<?xml version="1.0"?>
<svg xmlns="http://www.w3.org/2000/svg" xmlns:xlink="http://www.w3.org/1999/xlink" viewBox="0 0 407.600000 224.000000" width="203.800000mm" height="112.000000mm" version="1.1">
<a xlink:href="process.svg">
<rect x="0.000000" y="0.000000" width="406.600000" height="223.000000" rx="0" ry="0" style="stroke:#000000;fill:#FFFFFF;"/>
</a>
<text x="10.000000" y="7.000000" font-family="Verdana" font-size="7"></text>
<rect x="48.000000" y="80.000000" width="25.800000" height="24.000000" rx="0" ry="0" style="stroke:#000000;fill:#FFFFFF;"/>
<text x="60.900000" y="94.000000" font-family="Verdana" font-size="7" text-anchor="middle" fill="#000000">[1] t</text>
<circle cx="50.000000" cy="82.000000" r="1"/>
<line x1="45.000000" y1="91.000000" x2="48.000000" y2="92.000000"  transform="rotate(0.000000,48.000000,92.000000)" style="stroke: black; stroke-width:0.25;"/>
<line x1="45.000000" y1="93.000000" x2="48.000000" y2="92.000000"  transform="rotate(0.000000,48.000000,92.000000)" style="stroke: black; stroke-width:0.25;"/>
<rect x="48.000000" y="112.000000" width="25.800000" height="24.000000" rx="0" ry="0" style="stroke:#000000;fill:#FFFFFF;"/>
<text x="60.900000" y="126.000000" font-family="Verdana" font-size="7" text-anchor="middle" fill="#000000">[2] g</text>
<circle cx="50.000000" cy="114.000000" r="1"/>
<line x1="45.000000" y1="123.000000" x2="48.000000" y2="124.000000"  transform="rotate(0.000000,48.000000,124.000000)" style="stroke: black; stroke-width:0.25;"/>
<line x1="45.000000" y1="125.000000" x2="48.000000" y2="124.000000"  transform="rotate(0.000000,48.000000,124.000000)" style="stroke: black; stroke-width:0.25;"/>
<rect x="105.800000" y="136.000000" width="24.000000" height="24.000000" rx="0" ry="0" style="stroke:#000000;fill:#FFFFFF;"/>
<text x="117.800000" y="150.000000" font-family="Verdana" font-size="7" text-anchor="middle" fill="#000000">+</text>
<circle cx="107.800000" cy="138.000000" r="1"/>
<line x1="102.800000" y1="143.000000" x2="105.800000" y2="144.000000"  transform="rotate(0.000000,105.800000,144.000000)" style="stroke: black; stroke-width:0.25;"/>
<line x1="102.800000" y1="145.000000" x2="105.800000" y2="144.000000"  transform="rotate(0.000000,105.800000,144.000000)" style="stroke: black; stroke-width:0.25;"/>
<line x1="102.800000" y1="151.000000" x2="105.800000" y2="152.000000"  transform="rotate(0.000000,105.800000,152.000000)" style="stroke: black; stroke-width:0.25;"/>
<line x1="102.800000" y1="153.000000" x2="105.800000" y2="152.000000"  transform="rotate(0.000000,105.800000,152.000000)" style="stroke: black; stroke-width:0.25;"/>
<rect x="173.800000" y="104.000000" width="25.800000" height="24.000000" rx="0" ry="0" style="stroke:#000000;fill:#FFFFFF;"/>
<text x="186.700000" y="118.000000" font-family="Verdana" font-size="7" text-anchor="middle" fill="#000000">[1] t</text>
<circle cx="175.800000" cy="106.000000" r="1"/>
<rect x="174.700000" y="136.000000" width="24.000000" height="24.000000" rx="0" ry="0" style="stroke:#000000;fill:#FFFFFF;"/>
<text x="186.700000" y="150.000000" font-family="Verdana" font-size="7" text-anchor="middle" fill="#000000">1</text>
<circle cx="176.700000" cy="138.000000" r="1"/>
<rect x="215.600000" y="120.000000" width="24.000000" height="24.000000" rx="0" ry="0" style="stroke:#000000;fill:#FFFFFF;"/>
<text x="227.600000" y="134.000000" font-family="Verdana" font-size="7" text-anchor="middle" fill="#000000">-</text>
<circle cx="217.600000" cy="122.000000" r="1"/>
<line x1="212.600000" y1="127.000000" x2="215.600000" y2="128.000000"  transform="rotate(0.000000,215.600000,128.000000)" style="stroke: black; stroke-width:0.25;"/>
<line x1="212.600000" y1="129.000000" x2="215.600000" y2="128.000000"  transform="rotate(0.000000,215.600000,128.000000)" style="stroke: black; stroke-width:0.25;"/>
<line x1="212.600000" y1="135.000000" x2="215.600000" y2="136.000000"  transform="rotate(0.000000,215.600000,136.000000)" style="stroke: black; stroke-width:0.25;"/>
<line x1="212.600000" y1="137.000000" x2="215.600000" y2="136.000000"  transform="rotate(0.000000,215.600000,136.000000)" style="stroke: black; stroke-width:0.25;"/>
<rect x="255.600000" y="116.000000" width="24.000000" height="24.000000" rx="0" ry="0" style="stroke:#000000;fill:#FFFFFF;"/>
<text x="267.600000" y="130.000000" font-family="Verdana" font-size="7" text-anchor="middle" fill="#000000">@</text>
<circle cx="257.600000" cy="118.000000" r="1"/>
<line x1="252.600000" y1="123.000000" x2="255.600000" y2="124.000000"  transform="rotate(0.000000,255.600000,124.000000)" style="stroke: black; stroke-width:0.25;"/>
<line x1="252.600000" y1="125.000000" x2="255.600000" y2="124.000000"  transform="rotate(0.000000,255.600000,124.000000)" style="stroke: black; stroke-width:0.25;"/>
<line x1="252.600000" y1="131.000000" x2="255.600000" y2="132.000000"  transform="rotate(0.000000,255.600000,132.000000)" style="stroke: black; stroke-width:0.25;"/>
<line x1="252.600000" y1="133.000000" x2="255.600000" y2="132.000000"  transform="rotate(0.000000,255.600000,132.000000)" style="stroke: black; stroke-width:0.25;"/>
<rect x="193.800000" y="176.000000" width="25.800000" height="24.000000" rx="0" ry="0" style="stroke:#000000;fill:#FFFFFF;"/>
<text x="206.700000" y="190.000000" font-family="Verdana" font-size="7" text-anchor="middle" fill="#000000">[2] g</text>
<circle cx="195.800000" cy="178.000000" r="1"/>
<rect x="235.600000" y="172.000000" width="24.000000" height="24.000000" rx="0" ry="0" style="stroke:#000000;fill:#FFFFFF;"/>
<text x="247.600000" y="186.000000" font-family="Verdana" font-size="7" text-anchor="middle" fill="#000000">*</text>
<circle cx="237.600000" cy="174.000000" r="1"/>
<line x1="232.600000" y1="179.000000" x2="235.600000" y2="180.000000"  transform="rotate(0.000000,235.600000,180.000000)" style="stroke: black; stroke-width:0.25;"/>
<line x1="232.600000" y1="181.000000" x2="235.600000" y2="180.000000"  transform="rotate(0.000000,235.600000,180.000000)" style="stroke: black; stroke-width:0.25;"/>
<line x1="232.600000" y1="187.000000" x2="235.600000" y2="188.000000"  transform="rotate(0.000000,235.600000,188.000000)" style="stroke: black; stroke-width:0.25;"/>
<line x1="232.600000" y1="189.000000" x2="235.600000" y2="188.000000"  transform="rotate(0.000000,235.600000,188.000000)" style="stroke: black; stroke-width:0.25;"/>
<rect x="220.700000" y="56.000000" width="24.000000" height="24.000000" rx="0" ry="0" style="stroke:#000000;fill:#FFFFFF;"/>
<text x="232.700000" y="70.000000" font-family="Verdana" font-size="7" text-anchor="middle" fill="#000000">0</text>
<circle cx="242.700000" cy="78.000000" r="1"/>
<rect x="219.800000" y="24.000000" width="25.800000" height="24.000000" rx="0" ry="0" style="stroke:#000000;fill:#FFFFFF;"/>
<text x="232.700000" y="38.000000" font-family="Verdana" font-size="7" text-anchor="middle" fill="#000000">[2] g</text>
<circle cx="243.600000" cy="46.000000" r="1"/>
<rect x="179.800000" y="40.000000" width="24.000000" height="24.000000" rx="0" ry="0" style="stroke:#000000;fill:#FFFFFF;"/>
<text x="191.800000" y="54.000000" font-family="Verdana" font-size="7" text-anchor="middle" fill="#000000">-</text>
<circle cx="201.800000" cy="62.000000" r="1"/>
<line x1="206.800000" y1="55.000000" x2="203.800000" y2="56.000000"  transform="rotate(0.000000,203.800000,56.000000)" style="stroke: black; stroke-width:0.25;"/>
<line x1="206.800000" y1="57.000000" x2="203.800000" y2="56.000000"  transform="rotate(0.000000,203.800000,56.000000)" style="stroke: black; stroke-width:0.25;"/>
<line x1="206.800000" y1="47.000000" x2="203.800000" y2="48.000000"  transform="rotate(0.000000,203.800000,48.000000)" style="stroke: black; stroke-width:0.25;"/>
<line x1="206.800000" y1="49.000000" x2="203.800000" y2="48.000000"  transform="rotate(0.000000,203.800000,48.000000)" style="stroke: black; stroke-width:0.25;"/>
<rect x="139.800000" y="44.000000" width="24.000000" height="24.000000" rx="0" ry="0" style="stroke:#000000;fill:#FFFFFF;"/>
<text x="151.800000" y="58.000000" font-family="Verdana" font-size="7" text-anchor="middle" fill="#000000">*</text>
<circle cx="161.800000" cy="66.000000" r="1"/>
<line x1="166.800000" y1="59.000000" x2="163.800000" y2="60.000000"  transform="rotate(0.000000,163.800000,60.000000)" style="stroke: black; stroke-width:0.25;"/>
<line x1="166.800000" y1="61.000000" x2="163.800000" y2="60.000000"  transform="rotate(0.000000,163.800000,60.000000)" style="stroke: black; stroke-width:0.25;"/>
<line x1="166.800000" y1="51.000000" x2="163.800000" y2="52.000000"  transform="rotate(0.000000,163.800000,52.000000)" style="stroke: black; stroke-width:0.25;"/>
<line x1="166.800000" y1="53.000000" x2="163.800000" y2="52.000000"  transform="rotate(0.000000,163.800000,52.000000)" style="stroke: black; stroke-width:0.25;"/>
<line x1="281.600000" y1="128.000000" x2="281.600000" y2="124.000000"  style="stroke:black; stroke-linecap:round; stroke-width:0.25;"/>
<line x1="281.600000" y1="124.000000" x2="285.600000" y2="124.000000"  style="stroke:black; stroke-linecap:round; stroke-width:0.25;"/>
<line x1="285.600000" y1="124.000000" x2="285.600000" y2="128.000000"  style="stroke:black; stroke-linecap:round; stroke-width:0.25;"/>
<rect x="311.600000" y="96.000000" width="24.000000" height="24.000000" rx="0" ry="0" style="stroke:#000000;fill:#FFFFFF;"/>
<text x="323.600000" y="110.000000" font-family="Verdana" font-size="7" text-anchor="middle" fill="#000000">mem</text>
<circle cx="313.600000" cy="98.000000" r="1"/>
<line x1="308.600000" y1="107.000000" x2="311.600000" y2="108.000000"  transform="rotate(0.000000,311.600000,108.000000)" style="stroke: black; stroke-width:0.25;"/>
<line x1="308.600000" y1="109.000000" x2="311.600000" y2="108.000000"  transform="rotate(0.000000,311.600000,108.000000)" style="stroke: black; stroke-width:0.25;"/>
<rect x="351.600000" y="100.000000" width="24.000000" height="24.000000" rx="0" ry="0" style="stroke:#000000;fill:#FFFFFF;"/>
<text x="363.600000" y="114.000000" font-family="Verdana" font-size="7" text-anchor="middle" fill="#000000">+</text>
<circle cx="353.600000" cy="102.000000" r="1"/>
<line x1="348.600000" y1="107.000000" x2="351.600000" y2="108.000000"  transform="rotate(0.000000,351.600000,108.000000)" style="stroke: black; stroke-width:0.25;"/>
<line x1="348.600000" y1="109.000000" x2="351.600000" y2="108.000000"  transform="rotate(0.000000,351.600000,108.000000)" style="stroke: black; stroke-width:0.25;"/>
<line x1="348.600000" y1="115.000000" x2="351.600000" y2="116.000000"  transform="rotate(0.000000,351.600000,116.000000)" style="stroke: black; stroke-width:0.25;"/>
<line x1="348.600000" y1="117.000000" x2="351.600000" y2="116.000000"  transform="rotate(0.000000,351.600000,116.000000)" style="stroke: black; stroke-width:0.25;"/>
<line x1="15.000000" y1="15.000000" x2="15.000000" y2="209.000000"  style="stroke: black; stroke-linecap:round; stroke-width:0.25; stroke-dasharray:3,3;"/>
<line x1="15.000000" y1="209.000000" x2="392.600000" y2="209.000000"  style="stroke: black; stroke-linecap:round; stroke-width:0.25; stroke-dasharray:3,3;"/>
<line x1="392.600000" y1="209.000000" x2="392.600000" y2="15.000000"  style="stroke: black; stroke-linecap:round; stroke-width:0.25; stroke-dasharray:3,3;"/>
<line x1="15.000000" y1="15.000000" x2="20.000000" y2="15.000000"  style="stroke: black; stroke-linecap:round; stroke-width:0.25; stroke-dasharray:3,3;"/>
<line x1="36.125000" y1="15.000000" x2="392.600000" y2="15.000000"  style="stroke: black; stroke-linecap:round; stroke-width:0.25; stroke-dasharray:3,3;"/>
<text x="20.000000" y="17.000000" font-family="Verdana" font-size="7">apf</text>
<line x1="394.600000" y1="111.000000" x2="397.600000" y2="112.000000"  transform="rotate(0.000000,397.600000,112.000000)" style="stroke: black; stroke-width:0.25;"/>
<line x1="394.600000" y1="113.000000" x2="397.600000" y2="112.000000"  transform="rotate(0.000000,397.600000,112.000000)" style="stroke: black; stroke-width:0.25;"/>
<line x1="10.000000" y1="104.000000" x2="20.000000" y2="104.000000"  style="stroke:black; stroke-linecap:round; stroke-width:0.25;"/>
<line x1="10.000000" y1="112.000000" x2="20.000000" y2="112.000000"  style="stroke:black; stroke-linecap:round; stroke-width:0.25;"/>
<line x1="10.000000" y1="120.000000" x2="20.000000" y2="120.000000"  style="stroke:black; stroke-linecap:round; stroke-width:0.25;"/>
<line x1="20.000000" y1="104.000000" x2="24.000000" y2="104.000000"  style="stroke:black; stroke-linecap:round; stroke-width:0.25;"/>
<line x1="20.000000" y1="112.000000" x2="24.000000" y2="112.000000"  style="stroke:black; stroke-linecap:round; stroke-width:0.25;"/>
<line x1="20.000000" y1="120.000000" x2="24.000000" y2="120.000000"  style="stroke:black; stroke-linecap:round; stroke-width:0.25;"/>
<line x1="24.000000" y1="104.000000" x2="28.000000" y2="104.000000"  style="stroke:black; stroke-linecap:round; stroke-width:0.25;"/>
<line x1="24.000000" y1="112.000000" x2="28.000000" y2="112.000000"  style="stroke:black; stroke-linecap:round; stroke-width:0.25;"/>
<line x1="24.000000" y1="120.000000" x2="28.000000" y2="120.000000"  style="stroke:black; stroke-linecap:round; stroke-width:0.25;"/>
<line x1="28.000000" y1="92.000000" x2="44.000000" y2="92.000000"  style="stroke:black; stroke-linecap:round; stroke-width:0.25;"/>
<line x1="28.000000" y1="104.000000" x2="28.000000" y2="92.000000"  style="stroke:black; stroke-linecap:round; stroke-width:0.25;"/>
<line x1="28.000000" y1="104.000000" x2="28.000000" y2="104.000000"  style="stroke:black; stroke-linecap:round; stroke-width:0.25;"/>
<line x1="28.000000" y1="112.000000" x2="44.000000" y2="112.000000"  style="stroke:black; stroke-linecap:round; stroke-width:0.25;"/>
<line x1="28.000000" y1="120.000000" x2="36.000000" y2="120.000000"  style="stroke:black; stroke-linecap:round; stroke-width:0.25;"/>
<line x1="36.000000" y1="120.000000" x2="36.000000" y2="144.000000"  style="stroke:black; stroke-linecap:round; stroke-width:0.25;"/>
<line x1="36.000000" y1="144.000000" x2="44.000000" y2="144.000000"  style="stroke:black; stroke-linecap:round; stroke-width:0.25;"/>
<line x1="44.000000" y1="92.000000" x2="48.000000" y2="92.000000"  style="stroke:black; stroke-linecap:round; stroke-width:0.25;"/>
<line x1="44.000000" y1="112.000000" x2="44.000000" y2="124.000000"  style="stroke:black; stroke-linecap:round; stroke-width:0.25;"/>
<line x1="44.000000" y1="124.000000" x2="44.000000" y2="124.000000"  style="stroke:black; stroke-linecap:round; stroke-width:0.25;"/>
<line x1="44.000000" y1="124.000000" x2="48.000000" y2="124.000000"  style="stroke:black; stroke-linecap:round; stroke-width:0.25;"/>
<line x1="44.000000" y1="144.000000" x2="60.900000" y2="144.000000"  style="stroke:black; stroke-linecap:round; stroke-width:0.25;"/>
<line x1="60.900000" y1="144.000000" x2="77.800000" y2="144.000000"  style="stroke:black; stroke-linecap:round; stroke-width:0.25;"/>
<line x1="77.800000" y1="112.000000" x2="85.800000" y2="112.000000"  style="stroke:black; stroke-linecap:round; stroke-width:0.25;"/>
<line x1="77.800000" y1="144.000000" x2="77.800000" y2="112.000000"  style="stroke:black; stroke-linecap:round; stroke-width:0.25;"/>
<line x1="77.800000" y1="144.000000" x2="77.800000" y2="144.000000"  style="stroke:black; stroke-linecap:round; stroke-width:0.25;"/>
<line x1="85.800000" y1="112.000000" x2="93.800000" y2="112.000000"  style="stroke:black; stroke-linecap:round; stroke-width:0.25;"/>
<line x1="93.800000" y1="112.000000" x2="93.800000" y2="152.000000"  style="stroke:black; stroke-linecap:round; stroke-width:0.25;"/>
<line x1="93.800000" y1="152.000000" x2="93.800000" y2="152.000000"  style="stroke:black; stroke-linecap:round; stroke-width:0.25;"/>
<line x1="93.800000" y1="152.000000" x2="101.800000" y2="152.000000"  style="stroke:black; stroke-linecap:round; stroke-width:0.25;"/>
<line x1="101.800000" y1="144.000000" x2="105.800000" y2="144.000000"  style="stroke:black; stroke-linecap:round; stroke-width:0.25;"/>
<line x1="101.800000" y1="152.000000" x2="105.800000" y2="152.000000"  style="stroke:black; stroke-linecap:round; stroke-width:0.25;"/>
<line x1="101.800000" y1="56.000000" x2="101.800000" y2="56.000000"  style="stroke:black; stroke-linecap:round; stroke-width:0.25;"/>
<line x1="101.800000" y1="56.000000" x2="101.800000" y2="144.000000"  style="stroke:black; stroke-linecap:round; stroke-width:0.25;"/>
<line x1="101.800000" y1="144.000000" x2="101.800000" y2="144.000000"  style="stroke:black; stroke-linecap:round; stroke-width:0.25;"/>
<line x1="129.800000" y1="148.000000" x2="133.800000" y2="148.000000"  style="stroke:black; stroke-linecap:round; stroke-width:0.25;"/>
<line x1="133.800000" y1="148.000000" x2="133.800000" y2="148.000000"  style="stroke:black; stroke-linecap:round; stroke-width:0.25;"/>
<line x1="133.800000" y1="148.000000" x2="169.800000" y2="96.000000"  style="stroke:black; stroke-linecap:round; stroke-width:0.25;"/>
<line x1="133.800000" y1="148.000000" x2="169.800000" y2="168.000000"  style="stroke:black; stroke-linecap:round; stroke-width:0.25;"/>
<line x1="135.800000" y1="56.000000" x2="101.800000" y2="56.000000"  style="stroke:black; stroke-linecap:round; stroke-width:0.25;"/>
<line x1="139.800000" y1="56.000000" x2="135.800000" y2="56.000000"  style="stroke:black; stroke-linecap:round; stroke-width:0.25;"/>
<line x1="167.800000" y1="52.000000" x2="163.800000" y2="52.000000"  style="stroke:black; stroke-linecap:round; stroke-width:0.25;"/>
<line x1="167.800000" y1="60.000000" x2="163.800000" y2="60.000000"  style="stroke:black; stroke-linecap:round; stroke-width:0.25;"/>
<line x1="167.800000" y1="60.000000" x2="167.800000" y2="60.000000"  style="stroke:black; stroke-linecap:round; stroke-width:0.25;"/>
<line x1="167.800000" y1="88.000000" x2="167.800000" y2="60.000000"  style="stroke:black; stroke-linecap:round; stroke-width:0.25;"/>
<line x1="169.800000" y1="96.000000" x2="206.700000" y2="96.000000"  style="stroke:black; stroke-linecap:round; stroke-width:0.25;"/>
<line x1="169.800000" y1="168.000000" x2="189.800000" y2="168.000000"  style="stroke:black; stroke-linecap:round; stroke-width:0.25;"/>
<line x1="175.800000" y1="52.000000" x2="167.800000" y2="52.000000"  style="stroke:black; stroke-linecap:round; stroke-width:0.25;"/>
<line x1="175.800000" y1="88.000000" x2="167.800000" y2="88.000000"  style="stroke:black; stroke-linecap:round; stroke-width:0.25;"/>
<line x1="179.800000" y1="52.000000" x2="175.800000" y2="52.000000"  style="stroke:black; stroke-linecap:round; stroke-width:0.25;"/>
<line x1="189.800000" y1="168.000000" x2="206.700000" y2="168.000000"  style="stroke:black; stroke-linecap:round; stroke-width:0.25;"/>
<line x1="198.700000" y1="148.000000" x2="202.700000" y2="148.000000"  style="stroke:black; stroke-linecap:round; stroke-width:0.25;"/>
<line x1="199.600000" y1="116.000000" x2="203.600000" y2="116.000000"  style="stroke:black; stroke-linecap:round; stroke-width:0.25;"/>
<line x1="202.700000" y1="148.000000" x2="203.600000" y2="148.000000"  style="stroke:black; stroke-linecap:round; stroke-width:0.25;"/>
<line x1="203.600000" y1="116.000000" x2="211.600000" y2="116.000000"  style="stroke:black; stroke-linecap:round; stroke-width:0.25;"/>
<line x1="203.600000" y1="136.000000" x2="211.600000" y2="136.000000"  style="stroke:black; stroke-linecap:round; stroke-width:0.25;"/>
<line x1="203.600000" y1="148.000000" x2="203.600000" y2="136.000000"  style="stroke:black; stroke-linecap:round; stroke-width:0.25;"/>
<line x1="203.600000" y1="148.000000" x2="203.600000" y2="148.000000"  style="stroke:black; stroke-linecap:round; stroke-width:0.25;"/>
<line x1="206.700000" y1="96.000000" x2="243.600000" y2="96.000000"  style="stroke:black; stroke-linecap:round; stroke-width:0.25;"/>
<line x1="206.700000" y1="168.000000" x2="223.600000" y2="168.000000"  style="stroke:black; stroke-linecap:round; stroke-width:0.25;"/>
<line x1="207.800000" y1="48.000000" x2="203.800000" y2="48.000000"  style="stroke:black; stroke-linecap:round; stroke-width:0.25;"/>
<line x1="207.800000" y1="56.000000" x2="203.800000" y2="56.000000"  style="stroke:black; stroke-linecap:round; stroke-width:0.25;"/>
<line x1="207.800000" y1="56.000000" x2="207.800000" y2="56.000000"  style="stroke:black; stroke-linecap:round; stroke-width:0.25;"/>
<line x1="207.800000" y1="68.000000" x2="207.800000" y2="56.000000"  style="stroke:black; stroke-linecap:round; stroke-width:0.25;"/>
<line x1="211.600000" y1="116.000000" x2="211.600000" y2="128.000000"  style="stroke:black; stroke-linecap:round; stroke-width:0.25;"/>
<line x1="211.600000" y1="128.000000" x2="211.600000" y2="128.000000"  style="stroke:black; stroke-linecap:round; stroke-width:0.25;"/>
<line x1="211.600000" y1="128.000000" x2="215.600000" y2="128.000000"  style="stroke:black; stroke-linecap:round; stroke-width:0.25;"/>
<line x1="211.600000" y1="136.000000" x2="215.600000" y2="136.000000"  style="stroke:black; stroke-linecap:round; stroke-width:0.25;"/>
<line x1="212.700000" y1="88.000000" x2="175.800000" y2="88.000000"  style="stroke:black; stroke-linecap:round; stroke-width:0.25;"/>
<line x1="215.800000" y1="36.000000" x2="215.800000" y2="36.000000"  style="stroke:black; stroke-linecap:round; stroke-width:0.25;"/>
<line x1="215.800000" y1="36.000000" x2="215.800000" y2="48.000000"  style="stroke:black; stroke-linecap:round; stroke-width:0.25;"/>
<line x1="215.800000" y1="48.000000" x2="207.800000" y2="48.000000"  style="stroke:black; stroke-linecap:round; stroke-width:0.25;"/>
<line x1="215.800000" y1="68.000000" x2="207.800000" y2="68.000000"  style="stroke:black; stroke-linecap:round; stroke-width:0.25;"/>
<line x1="216.700000" y1="68.000000" x2="215.800000" y2="68.000000"  style="stroke:black; stroke-linecap:round; stroke-width:0.25;"/>
<line x1="219.600000" y1="188.000000" x2="223.600000" y2="188.000000"  style="stroke:black; stroke-linecap:round; stroke-width:0.25;"/>
<line x1="219.800000" y1="36.000000" x2="215.800000" y2="36.000000"  style="stroke:black; stroke-linecap:round; stroke-width:0.25;"/>
<line x1="220.700000" y1="68.000000" x2="216.700000" y2="68.000000"  style="stroke:black; stroke-linecap:round; stroke-width:0.25;"/>
<line x1="223.600000" y1="168.000000" x2="231.600000" y2="168.000000"  style="stroke:black; stroke-linecap:round; stroke-width:0.25;"/>
<line x1="223.600000" y1="188.000000" x2="231.600000" y2="188.000000"  style="stroke:black; stroke-linecap:round; stroke-width:0.25;"/>
<line x1="231.600000" y1="168.000000" x2="231.600000" y2="180.000000"  style="stroke:black; stroke-linecap:round; stroke-width:0.25;"/>
<line x1="231.600000" y1="180.000000" x2="231.600000" y2="180.000000"  style="stroke:black; stroke-linecap:round; stroke-width:0.25;"/>
<line x1="231.600000" y1="180.000000" x2="235.600000" y2="180.000000"  style="stroke:black; stroke-linecap:round; stroke-width:0.25;"/>
<line x1="231.600000" y1="188.000000" x2="235.600000" y2="188.000000"  style="stroke:black; stroke-linecap:round; stroke-width:0.25;"/>
<line x1="239.600000" y1="132.000000" x2="243.600000" y2="132.000000"  style="stroke:black; stroke-linecap:round; stroke-width:0.25;"/>
<line x1="243.600000" y1="96.000000" x2="251.600000" y2="96.000000"  style="stroke:black; stroke-linecap:round; stroke-width:0.25;"/>
<line x1="243.600000" y1="132.000000" x2="251.600000" y2="132.000000"  style="stroke:black; stroke-linecap:round; stroke-width:0.25;"/>
<line x1="249.600000" y1="88.000000" x2="212.700000" y2="88.000000"  style="stroke:black; stroke-linecap:round; stroke-width:0.25;"/>
<line x1="251.600000" y1="96.000000" x2="251.600000" y2="124.000000"  style="stroke:black; stroke-linecap:round; stroke-width:0.25;"/>
<line x1="251.600000" y1="124.000000" x2="251.600000" y2="124.000000"  style="stroke:black; stroke-linecap:round; stroke-width:0.25;"/>
<line x1="251.600000" y1="124.000000" x2="255.600000" y2="124.000000"  style="stroke:black; stroke-linecap:round; stroke-width:0.25;"/>
<line x1="251.600000" y1="132.000000" x2="255.600000" y2="132.000000"  style="stroke:black; stroke-linecap:round; stroke-width:0.25;"/>
<line x1="259.600000" y1="184.000000" x2="263.600000" y2="184.000000"  style="stroke:black; stroke-linecap:round; stroke-width:0.25;"/>
<line x1="263.600000" y1="184.000000" x2="283.600000" y2="184.000000"  style="stroke:black; stroke-linecap:round; stroke-width:0.25;"/>
<line x1="279.600000" y1="128.000000" x2="283.600000" y2="128.000000"  style="stroke:black; stroke-linecap:round; stroke-width:0.25;"/>
<line x1="283.600000" y1="88.000000" x2="249.600000" y2="88.000000"  style="stroke:black; stroke-linecap:round; stroke-width:0.25;"/>
<line x1="283.600000" y1="88.000000" x2="283.600000" y2="88.000000"  style="stroke:black; stroke-linecap:round; stroke-width:0.25;"/>
<line x1="283.600000" y1="124.000000" x2="283.600000" y2="88.000000"  style="stroke:black; stroke-linecap:round; stroke-width:0.25;"/>
<line x1="283.600000" y1="128.000000" x2="285.600000" y2="128.000000"  style="stroke:black; stroke-linecap:round; stroke-width:0.25;"/>
<line x1="283.600000" y1="184.000000" x2="291.600000" y2="184.000000"  style="stroke:black; stroke-linecap:round; stroke-width:0.25;"/>
<line x1="285.600000" y1="128.000000" x2="291.600000" y2="128.000000"  style="stroke:black; stroke-linecap:round; stroke-width:0.25;"/>
<line x1="291.600000" y1="108.000000" x2="307.600000" y2="108.000000"  style="stroke:black; stroke-linecap:round; stroke-width:0.25;"/>
<line x1="291.600000" y1="128.000000" x2="291.600000" y2="108.000000"  style="stroke:black; stroke-linecap:round; stroke-width:0.25;"/>
<line x1="291.600000" y1="128.000000" x2="291.600000" y2="128.000000"  style="stroke:black; stroke-linecap:round; stroke-width:0.25;"/>
<line x1="291.600000" y1="184.000000" x2="299.600000" y2="184.000000"  style="stroke:black; stroke-linecap:round; stroke-width:0.25;"/>
<line x1="299.600000" y1="128.000000" x2="307.600000" y2="128.000000"  style="stroke:black; stroke-linecap:round; stroke-width:0.25;"/>
<line x1="299.600000" y1="184.000000" x2="299.600000" y2="128.000000"  style="stroke:black; stroke-linecap:round; stroke-width:0.25;"/>
<line x1="307.600000" y1="108.000000" x2="311.600000" y2="108.000000"  style="stroke:black; stroke-linecap:round; stroke-width:0.25;"/>
<line x1="307.600000" y1="128.000000" x2="323.600000" y2="128.000000"  style="stroke:black; stroke-linecap:round; stroke-width:0.25;"/>
<line x1="323.600000" y1="128.000000" x2="339.600000" y2="128.000000"  style="stroke:black; stroke-linecap:round; stroke-width:0.25;"/>
<line x1="335.600000" y1="108.000000" x2="339.600000" y2="108.000000"  style="stroke:black; stroke-linecap:round; stroke-width:0.25;"/>
<line x1="339.600000" y1="108.000000" x2="347.600000" y2="108.000000"  style="stroke:black; stroke-linecap:round; stroke-width:0.25;"/>
<line x1="339.600000" y1="116.000000" x2="347.600000" y2="116.000000"  style="stroke:black; stroke-linecap:round; stroke-width:0.25;"/>
<line x1="339.600000" y1="128.000000" x2="339.600000" y2="116.000000"  style="stroke:black; stroke-linecap:round; stroke-width:0.25;"/>
<line x1="339.600000" y1="128.000000" x2="339.600000" y2="128.000000"  style="stroke:black; stroke-linecap:round; stroke-width:0.25;"/>
<line x1="347.600000" y1="108.000000" x2="351.600000" y2="108.000000"  style="stroke:black; stroke-linecap:round; stroke-width:0.25;"/>
<line x1="347.600000" y1="116.000000" x2="351.600000" y2="116.000000"  style="stroke:black; stroke-linecap:round; stroke-width:0.25;"/>
<line x1="375.600000" y1="112.000000" x2="379.600000" y2="112.000000"  style="stroke:black; stroke-linecap:round; stroke-width:0.25;"/>
<line x1="379.600000" y1="112.000000" x2="379.600000" y2="112.000000"  style="stroke:black; stroke-linecap:round; stroke-width:0.25;"/>
<line x1="379.600000" y1="112.000000" x2="383.600000" y2="112.000000"  style="stroke:black; stroke-linecap:round; stroke-width:0.25;"/>
<line x1="383.600000" y1="112.000000" x2="387.600000" y2="112.000000"  style="stroke:black; stroke-linecap:round; stroke-width:0.25;"/>
<line x1="387.600000" y1="112.000000" x2="397.600000" y2="112.000000"  style="stroke:black; stroke-linecap:round; stroke-width:0.25;"/>
</svg>
