<?xml version="1.0"?>
<svg xmlns="http://www.w3.org/2000/svg" xmlns:xlink="http://www.w3.org/1999/xlink" viewBox="0 0 625.600000 200.000000" width="312.800000mm" height="100.000000mm" version="1.1">
<a xlink:href="biquadFilter-0x7f4f301309a0.svg">
<rect x="0.000000" y="0.000000" width="624.600000" height="199.000000" rx="0" ry="0" style="stroke:#000000;fill:#FFFFFF;"/>
</a>
<text x="10.000000" y="7.000000" font-family="Verdana" font-size="7"></text>
<rect x="82.000000" y="92.000000" width="24.000000" height="24.000000" rx="0" ry="0" style="stroke:#000000;fill:#FFFFFF;"/>
<text x="94.000000" y="106.000000" font-family="Verdana" font-size="7" text-anchor="middle" fill="#000000">mem</text>
<circle cx="84.000000" cy="94.000000" r="1"/>
<line x1="79.000000" y1="103.000000" x2="82.000000" y2="104.000000"  transform="rotate(0.000000,82.000000,104.000000)" style="stroke: black; stroke-width:0.25;"/>
<line x1="79.000000" y1="105.000000" x2="82.000000" y2="104.000000"  transform="rotate(0.000000,82.000000,104.000000)" style="stroke: black; stroke-width:0.25;"/>
<rect x="132.000000" y="96.000000" width="24.000000" height="24.000000" rx="0" ry="0" style="stroke:#000000;fill:#FFFFFF;"/>
<text x="144.000000" y="110.000000" font-family="Verdana" font-size="7" text-anchor="middle" fill="#000000">mem</text>
<circle cx="134.000000" cy="98.000000" r="1"/>
<line x1="129.000000" y1="107.000000" x2="132.000000" y2="108.000000"  transform="rotate(0.000000,132.000000,108.000000)" style="stroke: black; stroke-width:0.25;"/>
<line x1="129.000000" y1="109.000000" x2="132.000000" y2="108.000000"  transform="rotate(0.000000,132.000000,108.000000)" style="stroke: black; stroke-width:0.25;"/>
<rect x="180.000000" y="52.000000" width="25.800000" height="24.000000" rx="0" ry="0" style="stroke:#000000;fill:#FFFFFF;"/>
<text x="192.900000" y="66.000000" font-family="Verdana" font-size="7" text-anchor="middle" fill="#000000">[3] a0</text>
<circle cx="182.000000" cy="54.000000" r="1"/>
<rect x="221.800000" y="48.000000" width="24.000000" height="24.000000" rx="0" ry="0" style="stroke:#000000;fill:#FFFFFF;"/>
<text x="233.800000" y="62.000000" font-family="Verdana" font-size="7" text-anchor="middle" fill="#000000">*</text>
<circle cx="223.800000" cy="50.000000" r="1"/>
<line x1="218.800000" y1="55.000000" x2="221.800000" y2="56.000000"  transform="rotate(0.000000,221.800000,56.000000)" style="stroke: black; stroke-width:0.25;"/>
<line x1="218.800000" y1="57.000000" x2="221.800000" y2="56.000000"  transform="rotate(0.000000,221.800000,56.000000)" style="stroke: black; stroke-width:0.25;"/>
<line x1="218.800000" y1="63.000000" x2="221.800000" y2="64.000000"  transform="rotate(0.000000,221.800000,64.000000)" style="stroke: black; stroke-width:0.25;"/>
<line x1="218.800000" y1="65.000000" x2="221.800000" y2="64.000000"  transform="rotate(0.000000,221.800000,64.000000)" style="stroke: black; stroke-width:0.25;"/>
<rect x="180.000000" y="92.000000" width="25.800000" height="24.000000" rx="0" ry="0" style="stroke:#000000;fill:#FFFFFF;"/>
<text x="192.900000" y="106.000000" font-family="Verdana" font-size="7" text-anchor="middle" fill="#000000">[4] a1</text>
<circle cx="182.000000" cy="94.000000" r="1"/>
<rect x="221.800000" y="88.000000" width="24.000000" height="24.000000" rx="0" ry="0" style="stroke:#000000;fill:#FFFFFF;"/>
<text x="233.800000" y="102.000000" font-family="Verdana" font-size="7" text-anchor="middle" fill="#000000">*</text>
<circle cx="223.800000" cy="90.000000" r="1"/>
<line x1="218.800000" y1="95.000000" x2="221.800000" y2="96.000000"  transform="rotate(0.000000,221.800000,96.000000)" style="stroke: black; stroke-width:0.25;"/>
<line x1="218.800000" y1="97.000000" x2="221.800000" y2="96.000000"  transform="rotate(0.000000,221.800000,96.000000)" style="stroke: black; stroke-width:0.25;"/>
<line x1="218.800000" y1="103.000000" x2="221.800000" y2="104.000000"  transform="rotate(0.000000,221.800000,104.000000)" style="stroke: black; stroke-width:0.25;"/>
<line x1="218.800000" y1="105.000000" x2="221.800000" y2="104.000000"  transform="rotate(0.000000,221.800000,104.000000)" style="stroke: black; stroke-width:0.25;"/>
<rect x="180.000000" y="132.000000" width="25.800000" height="24.000000" rx="0" ry="0" style="stroke:#000000;fill:#FFFFFF;"/>
<text x="192.900000" y="146.000000" font-family="Verdana" font-size="7" text-anchor="middle" fill="#000000">[5] a2</text>
<circle cx="182.000000" cy="134.000000" r="1"/>
<rect x="221.800000" y="128.000000" width="24.000000" height="24.000000" rx="0" ry="0" style="stroke:#000000;fill:#FFFFFF;"/>
<text x="233.800000" y="142.000000" font-family="Verdana" font-size="7" text-anchor="middle" fill="#000000">*</text>
<circle cx="223.800000" cy="130.000000" r="1"/>
<line x1="218.800000" y1="135.000000" x2="221.800000" y2="136.000000"  transform="rotate(0.000000,221.800000,136.000000)" style="stroke: black; stroke-width:0.25;"/>
<line x1="218.800000" y1="137.000000" x2="221.800000" y2="136.000000"  transform="rotate(0.000000,221.800000,136.000000)" style="stroke: black; stroke-width:0.25;"/>
<line x1="218.800000" y1="143.000000" x2="221.800000" y2="144.000000"  transform="rotate(0.000000,221.800000,144.000000)" style="stroke: black; stroke-width:0.25;"/>
<line x1="218.800000" y1="145.000000" x2="221.800000" y2="144.000000"  transform="rotate(0.000000,221.800000,144.000000)" style="stroke: black; stroke-width:0.25;"/>
<rect x="507.600000" y="76.000000" width="24.000000" height="24.000000" rx="0" ry="0" style="stroke:#000000;fill:#FFFFFF;"/>
<text x="519.600000" y="90.000000" font-family="Verdana" font-size="7" text-anchor="middle" fill="#000000">mem</text>
<circle cx="529.600000" cy="98.000000" r="1"/>
<line x1="534.600000" y1="87.000000" x2="531.600000" y2="88.000000"  transform="rotate(0.000000,531.600000,88.000000)" style="stroke: black; stroke-width:0.25;"/>
<line x1="534.600000" y1="89.000000" x2="531.600000" y2="88.000000"  transform="rotate(0.000000,531.600000,88.000000)" style="stroke: black; stroke-width:0.25;"/>
<rect x="466.700000" y="128.000000" width="24.000000" height="24.000000" rx="0" ry="0" style="stroke:#000000;fill:#FFFFFF;"/>
<text x="478.700000" y="142.000000" font-family="Verdana" font-size="7" text-anchor="middle" fill="#000000">0</text>
<circle cx="488.700000" cy="150.000000" r="1"/>
<rect x="465.800000" y="96.000000" width="25.800000" height="24.000000" rx="0" ry="0" style="stroke:#000000;fill:#FFFFFF;"/>
<text x="478.700000" y="110.000000" font-family="Verdana" font-size="7" text-anchor="middle" fill="#000000">[6] b1</text>
<circle cx="489.600000" cy="118.000000" r="1"/>
<rect x="425.800000" y="112.000000" width="24.000000" height="24.000000" rx="0" ry="0" style="stroke:#000000;fill:#FFFFFF;"/>
<text x="437.800000" y="126.000000" font-family="Verdana" font-size="7" text-anchor="middle" fill="#000000">-</text>
<circle cx="447.800000" cy="134.000000" r="1"/>
<line x1="452.800000" y1="127.000000" x2="449.800000" y2="128.000000"  transform="rotate(0.000000,449.800000,128.000000)" style="stroke: black; stroke-width:0.25;"/>
<line x1="452.800000" y1="129.000000" x2="449.800000" y2="128.000000"  transform="rotate(0.000000,449.800000,128.000000)" style="stroke: black; stroke-width:0.25;"/>
<line x1="452.800000" y1="119.000000" x2="449.800000" y2="120.000000"  transform="rotate(0.000000,449.800000,120.000000)" style="stroke: black; stroke-width:0.25;"/>
<line x1="452.800000" y1="121.000000" x2="449.800000" y2="120.000000"  transform="rotate(0.000000,449.800000,120.000000)" style="stroke: black; stroke-width:0.25;"/>
<rect x="385.800000" y="116.000000" width="24.000000" height="24.000000" rx="0" ry="0" style="stroke:#000000;fill:#FFFFFF;"/>
<text x="397.800000" y="130.000000" font-family="Verdana" font-size="7" text-anchor="middle" fill="#000000">*</text>
<circle cx="407.800000" cy="138.000000" r="1"/>
<line x1="412.800000" y1="131.000000" x2="409.800000" y2="132.000000"  transform="rotate(0.000000,409.800000,132.000000)" style="stroke: black; stroke-width:0.25;"/>
<line x1="412.800000" y1="133.000000" x2="409.800000" y2="132.000000"  transform="rotate(0.000000,409.800000,132.000000)" style="stroke: black; stroke-width:0.25;"/>
<line x1="412.800000" y1="123.000000" x2="409.800000" y2="124.000000"  transform="rotate(0.000000,409.800000,124.000000)" style="stroke: black; stroke-width:0.25;"/>
<line x1="412.800000" y1="125.000000" x2="409.800000" y2="124.000000"  transform="rotate(0.000000,409.800000,124.000000)" style="stroke: black; stroke-width:0.25;"/>
<rect x="466.700000" y="56.000000" width="24.000000" height="24.000000" rx="0" ry="0" style="stroke:#000000;fill:#FFFFFF;"/>
<text x="478.700000" y="70.000000" font-family="Verdana" font-size="7" text-anchor="middle" fill="#000000">0</text>
<circle cx="488.700000" cy="78.000000" r="1"/>
<rect x="465.800000" y="24.000000" width="25.800000" height="24.000000" rx="0" ry="0" style="stroke:#000000;fill:#FFFFFF;"/>
<text x="478.700000" y="38.000000" font-family="Verdana" font-size="7" text-anchor="middle" fill="#000000">[7] b2</text>
<circle cx="489.600000" cy="46.000000" r="1"/>
<rect x="425.800000" y="40.000000" width="24.000000" height="24.000000" rx="0" ry="0" style="stroke:#000000;fill:#FFFFFF;"/>
<text x="437.800000" y="54.000000" font-family="Verdana" font-size="7" text-anchor="middle" fill="#000000">-</text>
<circle cx="447.800000" cy="62.000000" r="1"/>
<line x1="452.800000" y1="55.000000" x2="449.800000" y2="56.000000"  transform="rotate(0.000000,449.800000,56.000000)" style="stroke: black; stroke-width:0.25;"/>
<line x1="452.800000" y1="57.000000" x2="449.800000" y2="56.000000"  transform="rotate(0.000000,449.800000,56.000000)" style="stroke: black; stroke-width:0.25;"/>
<line x1="452.800000" y1="47.000000" x2="449.800000" y2="48.000000"  transform="rotate(0.000000,449.800000,48.000000)" style="stroke: black; stroke-width:0.25;"/>
<line x1="452.800000" y1="49.000000" x2="449.800000" y2="48.000000"  transform="rotate(0.000000,449.800000,48.000000)" style="stroke: black; stroke-width:0.25;"/>
<rect x="385.800000" y="44.000000" width="24.000000" height="24.000000" rx="0" ry="0" style="stroke:#000000;fill:#FFFFFF;"/>
<text x="397.800000" y="58.000000" font-family="Verdana" font-size="7" text-anchor="middle" fill="#000000">*</text>
<circle cx="407.800000" cy="66.000000" r="1"/>
<line x1="412.800000" y1="59.000000" x2="409.800000" y2="60.000000"  transform="rotate(0.000000,409.800000,60.000000)" style="stroke: black; stroke-width:0.25;"/>
<line x1="412.800000" y1="61.000000" x2="409.800000" y2="60.000000"  transform="rotate(0.000000,409.800000,60.000000)" style="stroke: black; stroke-width:0.25;"/>
<line x1="412.800000" y1="51.000000" x2="409.800000" y2="52.000000"  transform="rotate(0.000000,409.800000,52.000000)" style="stroke: black; stroke-width:0.25;"/>
<line x1="412.800000" y1="53.000000" x2="409.800000" y2="52.000000"  transform="rotate(0.000000,409.800000,52.000000)" style="stroke: black; stroke-width:0.25;"/>
<line x1="579.600000" y1="172.000000" x2="579.600000" y2="168.000000"  style="stroke:black; stroke-linecap:round; stroke-width:0.25;"/>
<line x1="579.600000" y1="168.000000" x2="583.600000" y2="168.000000"  style="stroke:black; stroke-linecap:round; stroke-width:0.25;"/>
<line x1="583.600000" y1="168.000000" x2="583.600000" y2="172.000000"  style="stroke:black; stroke-linecap:round; stroke-width:0.25;"/>
<line x1="15.000000" y1="15.000000" x2="15.000000" y2="185.000000"  style="stroke: black; stroke-linecap:round; stroke-width:0.25; stroke-dasharray:3,3;"/>
<line x1="15.000000" y1="185.000000" x2="610.600000" y2="185.000000"  style="stroke: black; stroke-linecap:round; stroke-width:0.25; stroke-dasharray:3,3;"/>
<line x1="610.600000" y1="185.000000" x2="610.600000" y2="15.000000"  style="stroke: black; stroke-linecap:round; stroke-width:0.25; stroke-dasharray:3,3;"/>
<line x1="15.000000" y1="15.000000" x2="20.000000" y2="15.000000"  style="stroke: black; stroke-linecap:round; stroke-width:0.25; stroke-dasharray:3,3;"/>
<line x1="65.150000" y1="15.000000" x2="610.600000" y2="15.000000"  style="stroke: black; stroke-linecap:round; stroke-width:0.25; stroke-dasharray:3,3;"/>
<text x="20.000000" y="17.000000" font-family="Verdana" font-size="7">biquadFilter</text>
<line x1="612.600000" y1="99.000000" x2="615.600000" y2="100.000000"  transform="rotate(0.000000,615.600000,100.000000)" style="stroke: black; stroke-width:0.25;"/>
<line x1="612.600000" y1="101.000000" x2="615.600000" y2="100.000000"  transform="rotate(0.000000,615.600000,100.000000)" style="stroke: black; stroke-width:0.25;"/>
<line x1="10.000000" y1="100.000000" x2="20.000000" y2="100.000000"  style="stroke:black; stroke-linecap:round; stroke-width:0.25;"/>
<line x1="20.000000" y1="100.000000" x2="24.000000" y2="100.000000"  style="stroke:black; stroke-linecap:round; stroke-width:0.25;"/>
<line x1="24.000000" y1="100.000000" x2="28.000000" y2="100.000000"  style="stroke:black; stroke-linecap:round; stroke-width:0.25;"/>
<line x1="28.000000" y1="100.000000" x2="28.000000" y2="100.000000"  style="stroke:black; stroke-linecap:round; stroke-width:0.25;"/>
<line x1="28.000000" y1="100.000000" x2="32.000000" y2="100.000000"  style="stroke:black; stroke-linecap:round; stroke-width:0.25;"/>
<line x1="32.000000" y1="100.000000" x2="36.000000" y2="100.000000"  style="stroke:black; stroke-linecap:round; stroke-width:0.25;"/>
<line x1="36.000000" y1="100.000000" x2="78.000000" y2="80.000000"  style="stroke:black; stroke-linecap:round; stroke-width:0.25;"/>
<line x1="36.000000" y1="100.000000" x2="78.000000" y2="104.000000"  style="stroke:black; stroke-linecap:round; stroke-width:0.25;"/>
<line x1="78.000000" y1="80.000000" x2="119.000000" y2="80.000000"  style="stroke:black; stroke-linecap:round; stroke-width:0.25;"/>
<line x1="78.000000" y1="104.000000" x2="82.000000" y2="104.000000"  style="stroke:black; stroke-linecap:round; stroke-width:0.25;"/>
<line x1="106.000000" y1="104.000000" x2="110.000000" y2="104.000000"  style="stroke:black; stroke-linecap:round; stroke-width:0.25;"/>
<line x1="110.000000" y1="104.000000" x2="128.000000" y2="88.000000"  style="stroke:black; stroke-linecap:round; stroke-width:0.25;"/>
<line x1="110.000000" y1="104.000000" x2="128.000000" y2="108.000000"  style="stroke:black; stroke-linecap:round; stroke-width:0.25;"/>
<line x1="119.000000" y1="80.000000" x2="160.000000" y2="80.000000"  style="stroke:black; stroke-linecap:round; stroke-width:0.25;"/>
<line x1="128.000000" y1="88.000000" x2="144.000000" y2="88.000000"  style="stroke:black; stroke-linecap:round; stroke-width:0.25;"/>
<line x1="128.000000" y1="108.000000" x2="132.000000" y2="108.000000"  style="stroke:black; stroke-linecap:round; stroke-width:0.25;"/>
<line x1="144.000000" y1="88.000000" x2="160.000000" y2="88.000000"  style="stroke:black; stroke-linecap:round; stroke-width:0.25;"/>
<line x1="156.000000" y1="108.000000" x2="160.000000" y2="108.000000"  style="stroke:black; stroke-linecap:round; stroke-width:0.25;"/>
<line x1="160.000000" y1="44.000000" x2="176.000000" y2="44.000000"  style="stroke:black; stroke-linecap:round; stroke-width:0.25;"/>
<line x1="160.000000" y1="80.000000" x2="160.000000" y2="44.000000"  style="stroke:black; stroke-linecap:round; stroke-width:0.25;"/>
<line x1="160.000000" y1="80.000000" x2="160.000000" y2="80.000000"  style="stroke:black; stroke-linecap:round; stroke-width:0.25;"/>
<line x1="160.000000" y1="88.000000" x2="168.000000" y2="88.000000"  style="stroke:black; stroke-linecap:round; stroke-width:0.25;"/>
<line x1="160.000000" y1="108.000000" x2="176.000000" y2="108.000000"  style="stroke:black; stroke-linecap:round; stroke-width:0.25;"/>
<line x1="168.000000" y1="84.000000" x2="176.000000" y2="84.000000"  style="stroke:black; stroke-linecap:round; stroke-width:0.25;"/>
<line x1="168.000000" y1="88.000000" x2="168.000000" y2="84.000000"  style="stroke:black; stroke-linecap:round; stroke-width:0.25;"/>
<line x1="176.000000" y1="44.000000" x2="192.900000" y2="44.000000"  style="stroke:black; stroke-linecap:round; stroke-width:0.25;"/>
<line x1="176.000000" y1="84.000000" x2="192.900000" y2="84.000000"  style="stroke:black; stroke-linecap:round; stroke-width:0.25;"/>
<line x1="176.000000" y1="108.000000" x2="176.000000" y2="124.000000"  style="stroke:black; stroke-linecap:round; stroke-width:0.25;"/>
<line x1="176.000000" y1="124.000000" x2="176.000000" y2="124.000000"  style="stroke:black; stroke-linecap:round; stroke-width:0.25;"/>
<line x1="176.000000" y1="124.000000" x2="192.900000" y2="124.000000"  style="stroke:black; stroke-linecap:round; stroke-width:0.25;"/>
<line x1="192.900000" y1="44.000000" x2="209.800000" y2="44.000000"  style="stroke:black; stroke-linecap:round; stroke-width:0.25;"/>
<line x1="192.900000" y1="84.000000" x2="209.800000" y2="84.000000"  style="stroke:black; stroke-linecap:round; stroke-width:0.25;"/>
<line x1="192.900000" y1="124.000000" x2="209.800000" y2="124.000000"  style="stroke:black; stroke-linecap:round; stroke-width:0.25;"/>
<line x1="205.800000" y1="64.000000" x2="209.800000" y2="64.000000"  style="stroke:black; stroke-linecap:round; stroke-width:0.25;"/>
<line x1="205.800000" y1="104.000000" x2="209.800000" y2="104.000000"  style="stroke:black; stroke-linecap:round; stroke-width:0.25;"/>
<line x1="205.800000" y1="144.000000" x2="209.800000" y2="144.000000"  style="stroke:black; stroke-linecap:round; stroke-width:0.25;"/>
<line x1="209.800000" y1="44.000000" x2="217.800000" y2="44.000000"  style="stroke:black; stroke-linecap:round; stroke-width:0.25;"/>
<line x1="209.800000" y1="64.000000" x2="217.800000" y2="64.000000"  style="stroke:black; stroke-linecap:round; stroke-width:0.25;"/>
<line x1="209.800000" y1="84.000000" x2="217.800000" y2="84.000000"  style="stroke:black; stroke-linecap:round; stroke-width:0.25;"/>
<line x1="209.800000" y1="104.000000" x2="217.800000" y2="104.000000"  style="stroke:black; stroke-linecap:round; stroke-width:0.25;"/>
<line x1="209.800000" y1="124.000000" x2="217.800000" y2="124.000000"  style="stroke:black; stroke-linecap:round; stroke-width:0.25;"/>
<line x1="209.800000" y1="144.000000" x2="217.800000" y2="144.000000"  style="stroke:black; stroke-linecap:round; stroke-width:0.25;"/>
<line x1="217.800000" y1="44.000000" x2="217.800000" y2="56.000000"  style="stroke:black; stroke-linecap:round; stroke-width:0.25;"/>
<line x1="217.800000" y1="56.000000" x2="217.800000" y2="56.000000"  style="stroke:black; stroke-linecap:round; stroke-width:0.25;"/>
<line x1="217.800000" y1="56.000000" x2="221.800000" y2="56.000000"  style="stroke:black; stroke-linecap:round; stroke-width:0.25;"/>
<line x1="217.800000" y1="64.000000" x2="221.800000" y2="64.000000"  style="stroke:black; stroke-linecap:round; stroke-width:0.25;"/>
<line x1="217.800000" y1="84.000000" x2="217.800000" y2="96.000000"  style="stroke:black; stroke-linecap:round; stroke-width:0.25;"/>
<line x1="217.800000" y1="96.000000" x2="217.800000" y2="96.000000"  style="stroke:black; stroke-linecap:round; stroke-width:0.25;"/>
<line x1="217.800000" y1="96.000000" x2="221.800000" y2="96.000000"  style="stroke:black; stroke-linecap:round; stroke-width:0.25;"/>
<line x1="217.800000" y1="104.000000" x2="221.800000" y2="104.000000"  style="stroke:black; stroke-linecap:round; stroke-width:0.25;"/>
<line x1="217.800000" y1="124.000000" x2="217.800000" y2="136.000000"  style="stroke:black; stroke-linecap:round; stroke-width:0.25;"/>
<line x1="217.800000" y1="136.000000" x2="217.800000" y2="136.000000"  style="stroke:black; stroke-linecap:round; stroke-width:0.25;"/>
<line x1="217.800000" y1="136.000000" x2="221.800000" y2="136.000000"  style="stroke:black; stroke-linecap:round; stroke-width:0.25;"/>
<line x1="217.800000" y1="144.000000" x2="221.800000" y2="144.000000"  style="stroke:black; stroke-linecap:round; stroke-width:0.25;"/>
<line x1="245.800000" y1="60.000000" x2="249.800000" y2="60.000000"  style="stroke:black; stroke-linecap:round; stroke-width:0.25;"/>
<line x1="245.800000" y1="100.000000" x2="249.800000" y2="100.000000"  style="stroke:black; stroke-linecap:round; stroke-width:0.25;"/>
<line x1="245.800000" y1="140.000000" x2="249.800000" y2="140.000000"  style="stroke:black; stroke-linecap:round; stroke-width:0.25;"/>
<line x1="249.800000" y1="60.000000" x2="319.800000" y2="100.000000"  style="stroke:black; stroke-linecap:round; stroke-width:0.25;"/>
<line x1="249.800000" y1="100.000000" x2="319.800000" y2="100.000000"  style="stroke:black; stroke-linecap:round; stroke-width:0.25;"/>
<line x1="249.800000" y1="140.000000" x2="319.800000" y2="100.000000"  style="stroke:black; stroke-linecap:round; stroke-width:0.25;"/>
<line x1="319.800000" y1="100.000000" x2="327.800000" y2="100.000000"  style="stroke:black; stroke-linecap:round; stroke-width:0.25;"/>
<line x1="327.800000" y1="100.000000" x2="327.800000" y2="176.000000"  style="stroke:black; stroke-linecap:round; stroke-width:0.25;"/>
<line x1="327.800000" y1="176.000000" x2="327.800000" y2="176.000000"  style="stroke:black; stroke-linecap:round; stroke-width:0.25;"/>
<line x1="327.800000" y1="176.000000" x2="335.800000" y2="176.000000"  style="stroke:black; stroke-linecap:round; stroke-width:0.25;"/>
<line x1="335.800000" y1="92.000000" x2="335.800000" y2="92.000000"  style="stroke:black; stroke-linecap:round; stroke-width:0.25;"/>
<line x1="335.800000" y1="92.000000" x2="335.800000" y2="168.000000"  style="stroke:black; stroke-linecap:round; stroke-width:0.25;"/>
<line x1="335.800000" y1="168.000000" x2="335.800000" y2="168.000000"  style="stroke:black; stroke-linecap:round; stroke-width:0.25;"/>
<line x1="335.800000" y1="168.000000" x2="447.700000" y2="168.000000"  style="stroke:black; stroke-linecap:round; stroke-width:0.25;"/>
<line x1="335.800000" y1="176.000000" x2="447.700000" y2="176.000000"  style="stroke:black; stroke-linecap:round; stroke-width:0.25;"/>
<line x1="339.800000" y1="92.000000" x2="335.800000" y2="92.000000"  style="stroke:black; stroke-linecap:round; stroke-width:0.25;"/>
<line x1="343.800000" y1="92.000000" x2="339.800000" y2="92.000000"  style="stroke:black; stroke-linecap:round; stroke-width:0.25;"/>
<line x1="381.800000" y1="56.000000" x2="343.800000" y2="92.000000"  style="stroke:black; stroke-linecap:round; stroke-width:0.25;"/>
<line x1="381.800000" y1="128.000000" x2="343.800000" y2="92.000000"  style="stroke:black; stroke-linecap:round; stroke-width:0.25;"/>
<line x1="385.800000" y1="56.000000" x2="381.800000" y2="56.000000"  style="stroke:black; stroke-linecap:round; stroke-width:0.25;"/>
<line x1="385.800000" y1="128.000000" x2="381.800000" y2="128.000000"  style="stroke:black; stroke-linecap:round; stroke-width:0.25;"/>
<line x1="413.800000" y1="52.000000" x2="409.800000" y2="52.000000"  style="stroke:black; stroke-linecap:round; stroke-width:0.25;"/>
<line x1="413.800000" y1="60.000000" x2="409.800000" y2="60.000000"  style="stroke:black; stroke-linecap:round; stroke-width:0.25;"/>
<line x1="413.800000" y1="60.000000" x2="413.800000" y2="60.000000"  style="stroke:black; stroke-linecap:round; stroke-width:0.25;"/>
<line x1="413.800000" y1="88.000000" x2="413.800000" y2="60.000000"  style="stroke:black; stroke-linecap:round; stroke-width:0.25;"/>
<line x1="413.800000" y1="124.000000" x2="409.800000" y2="124.000000"  style="stroke:black; stroke-linecap:round; stroke-width:0.25;"/>
<line x1="413.800000" y1="132.000000" x2="409.800000" y2="132.000000"  style="stroke:black; stroke-linecap:round; stroke-width:0.25;"/>
<line x1="413.800000" y1="132.000000" x2="413.800000" y2="132.000000"  style="stroke:black; stroke-linecap:round; stroke-width:0.25;"/>
<line x1="413.800000" y1="160.000000" x2="413.800000" y2="132.000000"  style="stroke:black; stroke-linecap:round; stroke-width:0.25;"/>
<line x1="421.800000" y1="52.000000" x2="413.800000" y2="52.000000"  style="stroke:black; stroke-linecap:round; stroke-width:0.25;"/>
<line x1="421.800000" y1="88.000000" x2="413.800000" y2="88.000000"  style="stroke:black; stroke-linecap:round; stroke-width:0.25;"/>
<line x1="421.800000" y1="124.000000" x2="413.800000" y2="124.000000"  style="stroke:black; stroke-linecap:round; stroke-width:0.25;"/>
<line x1="421.800000" y1="160.000000" x2="413.800000" y2="160.000000"  style="stroke:black; stroke-linecap:round; stroke-width:0.25;"/>
<line x1="425.800000" y1="52.000000" x2="421.800000" y2="52.000000"  style="stroke:black; stroke-linecap:round; stroke-width:0.25;"/>
<line x1="425.800000" y1="124.000000" x2="421.800000" y2="124.000000"  style="stroke:black; stroke-linecap:round; stroke-width:0.25;"/>
<line x1="447.700000" y1="168.000000" x2="451.700000" y2="168.000000"  style="stroke:black; stroke-linecap:round; stroke-width:0.25;"/>
<line x1="447.700000" y1="176.000000" x2="451.700000" y2="176.000000"  style="stroke:black; stroke-linecap:round; stroke-width:0.25;"/>
<line x1="451.700000" y1="168.000000" x2="455.700000" y2="168.000000"  style="stroke:black; stroke-linecap:round; stroke-width:0.25;"/>
<line x1="451.700000" y1="176.000000" x2="455.700000" y2="176.000000"  style="stroke:black; stroke-linecap:round; stroke-width:0.25;"/>
<line x1="453.800000" y1="48.000000" x2="449.800000" y2="48.000000"  style="stroke:black; stroke-linecap:round; stroke-width:0.25;"/>
<line x1="453.800000" y1="56.000000" x2="449.800000" y2="56.000000"  style="stroke:black; stroke-linecap:round; stroke-width:0.25;"/>
<line x1="453.800000" y1="56.000000" x2="453.800000" y2="56.000000"  style="stroke:black; stroke-linecap:round; stroke-width:0.25;"/>
<line x1="453.800000" y1="68.000000" x2="453.800000" y2="56.000000"  style="stroke:black; stroke-linecap:round; stroke-width:0.25;"/>
<line x1="453.800000" y1="120.000000" x2="449.800000" y2="120.000000"  style="stroke:black; stroke-linecap:round; stroke-width:0.25;"/>
<line x1="453.800000" y1="128.000000" x2="449.800000" y2="128.000000"  style="stroke:black; stroke-linecap:round; stroke-width:0.25;"/>
<line x1="453.800000" y1="128.000000" x2="453.800000" y2="128.000000"  style="stroke:black; stroke-linecap:round; stroke-width:0.25;"/>
<line x1="453.800000" y1="140.000000" x2="453.800000" y2="128.000000"  style="stroke:black; stroke-linecap:round; stroke-width:0.25;"/>
<line x1="455.700000" y1="168.000000" x2="461.700000" y2="172.000000"  style="stroke:black; stroke-linecap:round; stroke-width:0.25;"/>
<line x1="455.700000" y1="176.000000" x2="461.700000" y2="172.000000"  style="stroke:black; stroke-linecap:round; stroke-width:0.25;"/>
<line x1="458.700000" y1="88.000000" x2="421.800000" y2="88.000000"  style="stroke:black; stroke-linecap:round; stroke-width:0.25;"/>
<line x1="458.700000" y1="160.000000" x2="421.800000" y2="160.000000"  style="stroke:black; stroke-linecap:round; stroke-width:0.25;"/>
<line x1="461.700000" y1="172.000000" x2="465.700000" y2="172.000000"  style="stroke:black; stroke-linecap:round; stroke-width:0.25;"/>
<line x1="461.800000" y1="36.000000" x2="461.800000" y2="36.000000"  style="stroke:black; stroke-linecap:round; stroke-width:0.25;"/>
<line x1="461.800000" y1="36.000000" x2="461.800000" y2="48.000000"  style="stroke:black; stroke-linecap:round; stroke-width:0.25;"/>
<line x1="461.800000" y1="48.000000" x2="453.800000" y2="48.000000"  style="stroke:black; stroke-linecap:round; stroke-width:0.25;"/>
<line x1="461.800000" y1="68.000000" x2="453.800000" y2="68.000000"  style="stroke:black; stroke-linecap:round; stroke-width:0.25;"/>
<line x1="461.800000" y1="108.000000" x2="461.800000" y2="108.000000"  style="stroke:black; stroke-linecap:round; stroke-width:0.25;"/>
<line x1="461.800000" y1="108.000000" x2="461.800000" y2="120.000000"  style="stroke:black; stroke-linecap:round; stroke-width:0.25;"/>
<line x1="461.800000" y1="120.000000" x2="453.800000" y2="120.000000"  style="stroke:black; stroke-linecap:round; stroke-width:0.25;"/>
<line x1="461.800000" y1="140.000000" x2="453.800000" y2="140.000000"  style="stroke:black; stroke-linecap:round; stroke-width:0.25;"/>
<line x1="462.700000" y1="68.000000" x2="461.800000" y2="68.000000"  style="stroke:black; stroke-linecap:round; stroke-width:0.25;"/>
<line x1="462.700000" y1="140.000000" x2="461.800000" y2="140.000000"  style="stroke:black; stroke-linecap:round; stroke-width:0.25;"/>
<line x1="465.700000" y1="172.000000" x2="469.700000" y2="172.000000"  style="stroke:black; stroke-linecap:round; stroke-width:0.25;"/>
<line x1="465.800000" y1="36.000000" x2="461.800000" y2="36.000000"  style="stroke:black; stroke-linecap:round; stroke-width:0.25;"/>
<line x1="465.800000" y1="108.000000" x2="461.800000" y2="108.000000"  style="stroke:black; stroke-linecap:round; stroke-width:0.25;"/>
<line x1="466.700000" y1="68.000000" x2="462.700000" y2="68.000000"  style="stroke:black; stroke-linecap:round; stroke-width:0.25;"/>
<line x1="466.700000" y1="140.000000" x2="462.700000" y2="140.000000"  style="stroke:black; stroke-linecap:round; stroke-width:0.25;"/>
<line x1="469.700000" y1="172.000000" x2="581.600000" y2="172.000000"  style="stroke:black; stroke-linecap:round; stroke-width:0.25;"/>
<line x1="495.600000" y1="88.000000" x2="458.700000" y2="88.000000"  style="stroke:black; stroke-linecap:round; stroke-width:0.25;"/>
<line x1="495.600000" y1="160.000000" x2="458.700000" y2="160.000000"  style="stroke:black; stroke-linecap:round; stroke-width:0.25;"/>
<line x1="503.600000" y1="88.000000" x2="495.600000" y2="88.000000"  style="stroke:black; stroke-linecap:round; stroke-width:0.25;"/>
<line x1="503.600000" y1="108.000000" x2="503.600000" y2="108.000000"  style="stroke:black; stroke-linecap:round; stroke-width:0.25;"/>
<line x1="503.600000" y1="108.000000" x2="503.600000" y2="160.000000"  style="stroke:black; stroke-linecap:round; stroke-width:0.25;"/>
<line x1="503.600000" y1="160.000000" x2="495.600000" y2="160.000000"  style="stroke:black; stroke-linecap:round; stroke-width:0.25;"/>
<line x1="507.600000" y1="88.000000" x2="503.600000" y2="88.000000"  style="stroke:black; stroke-linecap:round; stroke-width:0.25;"/>
<line x1="519.600000" y1="108.000000" x2="503.600000" y2="108.000000"  style="stroke:black; stroke-linecap:round; stroke-width:0.25;"/>
<line x1="535.600000" y1="88.000000" x2="531.600000" y2="88.000000"  style="stroke:black; stroke-linecap:round; stroke-width:0.25;"/>
<line x1="535.600000" y1="108.000000" x2="519.600000" y2="108.000000"  style="stroke:black; stroke-linecap:round; stroke-width:0.25;"/>
<line x1="573.600000" y1="92.000000" x2="535.600000" y2="88.000000"  style="stroke:black; stroke-linecap:round; stroke-width:0.25;"/>
<line x1="573.600000" y1="92.000000" x2="535.600000" y2="108.000000"  style="stroke:black; stroke-linecap:round; stroke-width:0.25;"/>
<line x1="577.600000" y1="92.000000" x2="573.600000" y2="92.000000"  style="stroke:black; stroke-linecap:round; stroke-width:0.25;"/>
<line x1="581.600000" y1="92.000000" x2="577.600000" y2="92.000000"  style="stroke:black; stroke-linecap:round; stroke-width:0.25;"/>
<line x1="581.600000" y1="92.000000" x2="581.600000" y2="92.000000"  style="stroke:black; stroke-linecap:round; stroke-width:0.25;"/>
<line x1="581.600000" y1="168.000000" x2="581.600000" y2="92.000000"  style="stroke:black; stroke-linecap:round; stroke-width:0.25;"/>
<line x1="581.600000" y1="172.000000" x2="583.600000" y2="172.000000"  style="stroke:black; stroke-linecap:round; stroke-width:0.25;"/>
<line x1="583.600000" y1="172.000000" x2="589.600000" y2="172.000000"  style="stroke:black; stroke-linecap:round; stroke-width:0.25;"/>
<line x1="589.600000" y1="100.000000" x2="597.600000" y2="100.000000"  style="stroke:black; stroke-linecap:round; stroke-width:0.25;"/>
<line x1="589.600000" y1="172.000000" x2="589.600000" y2="100.000000"  style="stroke:black; stroke-linecap:round; stroke-width:0.25;"/>
<line x1="589.600000" y1="172.000000" x2="589.600000" y2="172.000000"  style="stroke:black; stroke-linecap:round; stroke-width:0.25;"/>
<line x1="597.600000" y1="100.000000" x2="601.600000" y2="100.000000"  style="stroke:black; stroke-linecap:round; stroke-width:0.25;"/>
<line x1="601.600000" y1="100.000000" x2="605.600000" y2="100.000000"  style="stroke:black; stroke-linecap:round; stroke-width:0.25;"/>
<line x1="605.600000" y1="100.000000" x2="615.600000" y2="100.000000"  style="stroke:black; stroke-linecap:round; stroke-width:0.25;"/>
</svg>
