<?xml version="1.0"?>
<svg xmlns="http://www.w3.org/2000/svg" xmlns:xlink="http://www.w3.org/1999/xlink" viewBox="0 0 367.800000 132.000000" width="183.900000mm" height="66.000000mm" version="1.1">
<rect x="0.000000" y="0.000000" width="366.800000" height="131.000000" rx="0" ry="0" style="stroke:#000000;fill:#FFFFFF;"/>
<text x="10.000000" y="7.000000" font-family="Verdana" font-size="7"></text>
<rect x="78.000000" y="34.000000" width="24.000000" height="24.000000" rx="0" ry="0" style="stroke:#000000;fill:#FFFFFF;"/>
<text x="90.000000" y="48.000000" font-family="Verdana" font-size="7" text-anchor="middle" fill="#000000">mem</text>
<circle cx="80.000000" cy="36.000000" r="1"/>
<line x1="75.000000" y1="45.000000" x2="78.000000" y2="46.000000"  transform="rotate(0.000000,78.000000,46.000000)" style="stroke: black; stroke-width:0.25;"/>
<line x1="75.000000" y1="47.000000" x2="78.000000" y2="46.000000"  transform="rotate(0.000000,78.000000,46.000000)" style="stroke: black; stroke-width:0.25;"/>
<rect x="78.000000" y="66.000000" width="24.000000" height="24.000000" rx="0" ry="0" style="stroke:#000000;fill:#FFFFFF;"/>
<text x="90.000000" y="80.000000" font-family="Verdana" font-size="7" text-anchor="middle" fill="#000000">-1</text>
<circle cx="80.000000" cy="68.000000" r="1"/>
<rect x="118.000000" y="50.000000" width="24.000000" height="24.000000" rx="0" ry="0" style="stroke:#000000;fill:#FFFFFF;"/>
<text x="130.000000" y="64.000000" font-family="Verdana" font-size="7" text-anchor="middle" fill="#000000">*</text>
<circle cx="120.000000" cy="52.000000" r="1"/>
<line x1="115.000000" y1="57.000000" x2="118.000000" y2="58.000000"  transform="rotate(0.000000,118.000000,58.000000)" style="stroke: black; stroke-width:0.25;"/>
<line x1="115.000000" y1="59.000000" x2="118.000000" y2="58.000000"  transform="rotate(0.000000,118.000000,58.000000)" style="stroke: black; stroke-width:0.25;"/>
<line x1="115.000000" y1="65.000000" x2="118.000000" y2="66.000000"  transform="rotate(0.000000,118.000000,66.000000)" style="stroke: black; stroke-width:0.25;"/>
<line x1="115.000000" y1="67.000000" x2="118.000000" y2="66.000000"  transform="rotate(0.000000,118.000000,66.000000)" style="stroke: black; stroke-width:0.25;"/>
<rect x="176.000000" y="54.000000" width="24.000000" height="24.000000" rx="0" ry="0" style="stroke:#000000;fill:#FFFFFF;"/>
<text x="188.000000" y="68.000000" font-family="Verdana" font-size="7" text-anchor="middle" fill="#000000">+</text>
<circle cx="178.000000" cy="56.000000" r="1"/>
<line x1="173.000000" y1="61.000000" x2="176.000000" y2="62.000000"  transform="rotate(0.000000,176.000000,62.000000)" style="stroke: black; stroke-width:0.25;"/>
<line x1="173.000000" y1="63.000000" x2="176.000000" y2="62.000000"  transform="rotate(0.000000,176.000000,62.000000)" style="stroke: black; stroke-width:0.25;"/>
<line x1="173.000000" y1="69.000000" x2="176.000000" y2="70.000000"  transform="rotate(0.000000,176.000000,70.000000)" style="stroke: black; stroke-width:0.25;"/>
<line x1="173.000000" y1="71.000000" x2="176.000000" y2="70.000000"  transform="rotate(0.000000,176.000000,70.000000)" style="stroke: black; stroke-width:0.25;"/>
<line x1="33.000000" y1="25.000000" x2="33.000000" y2="107.000000"  style="stroke: black; stroke-linecap:round; stroke-width:0.25; stroke-dasharray:3,3;"/>
<line x1="33.000000" y1="107.000000" x2="209.000000" y2="107.000000"  style="stroke: black; stroke-linecap:round; stroke-width:0.25; stroke-dasharray:3,3;"/>
<line x1="209.000000" y1="107.000000" x2="209.000000" y2="25.000000"  style="stroke: black; stroke-linecap:round; stroke-width:0.25; stroke-dasharray:3,3;"/>
<line x1="33.000000" y1="25.000000" x2="38.000000" y2="25.000000"  style="stroke: black; stroke-linecap:round; stroke-width:0.25; stroke-dasharray:3,3;"/>
<line x1="63.800000" y1="25.000000" x2="209.000000" y2="25.000000"  style="stroke: black; stroke-linecap:round; stroke-width:0.25; stroke-dasharray:3,3;"/>
<text x="38.000000" y="27.000000" font-family="Verdana" font-size="7">oz(-1)</text>
<rect x="264.900000" y="74.000000" width="24.000000" height="24.000000" rx="0" ry="0" style="stroke:#000000;fill:#FFFFFF;"/>
<text x="276.900000" y="88.000000" font-family="Verdana" font-size="7" text-anchor="middle" fill="#000000">+</text>
<circle cx="266.900000" cy="76.000000" r="1"/>
<line x1="261.900000" y1="81.000000" x2="264.900000" y2="82.000000"  transform="rotate(0.000000,264.900000,82.000000)" style="stroke: black; stroke-width:0.25;"/>
<line x1="261.900000" y1="83.000000" x2="264.900000" y2="82.000000"  transform="rotate(0.000000,264.900000,82.000000)" style="stroke: black; stroke-width:0.25;"/>
<line x1="261.900000" y1="89.000000" x2="264.900000" y2="90.000000"  transform="rotate(0.000000,264.900000,90.000000)" style="stroke: black; stroke-width:0.25;"/>
<line x1="261.900000" y1="91.000000" x2="264.900000" y2="90.000000"  transform="rotate(0.000000,264.900000,90.000000)" style="stroke: black; stroke-width:0.25;"/>
<rect x="284.000000" y="34.000000" width="25.800000" height="24.000000" rx="0" ry="0" style="stroke:#000000;fill:#FFFFFF;"/>
<text x="296.900000" y="48.000000" font-family="Verdana" font-size="7" text-anchor="middle" fill="#000000">0.998f</text>
<circle cx="307.800000" cy="56.000000" r="1"/>
<rect x="244.000000" y="38.000000" width="24.000000" height="24.000000" rx="0" ry="0" style="stroke:#000000;fill:#FFFFFF;"/>
<text x="256.000000" y="52.000000" font-family="Verdana" font-size="7" text-anchor="middle" fill="#000000">*</text>
<circle cx="266.000000" cy="60.000000" r="1"/>
<line x1="271.000000" y1="53.000000" x2="268.000000" y2="54.000000"  transform="rotate(0.000000,268.000000,54.000000)" style="stroke: black; stroke-width:0.25;"/>
<line x1="271.000000" y1="55.000000" x2="268.000000" y2="54.000000"  transform="rotate(0.000000,268.000000,54.000000)" style="stroke: black; stroke-width:0.25;"/>
<line x1="271.000000" y1="45.000000" x2="268.000000" y2="46.000000"  transform="rotate(0.000000,268.000000,46.000000)" style="stroke: black; stroke-width:0.25;"/>
<line x1="271.000000" y1="47.000000" x2="268.000000" y2="46.000000"  transform="rotate(0.000000,268.000000,46.000000)" style="stroke: black; stroke-width:0.25;"/>
<line x1="311.800000" y1="86.000000" x2="311.800000" y2="82.000000"  style="stroke:black; stroke-linecap:round; stroke-width:0.25;"/>
<line x1="311.800000" y1="82.000000" x2="315.800000" y2="82.000000"  style="stroke:black; stroke-linecap:round; stroke-width:0.25;"/>
<line x1="315.800000" y1="82.000000" x2="315.800000" y2="86.000000"  style="stroke:black; stroke-linecap:round; stroke-width:0.25;"/>
<line x1="227.000000" y1="25.000000" x2="227.000000" y2="107.000000"  style="stroke: black; stroke-linecap:round; stroke-width:0.25; stroke-dasharray:3,3;"/>
<line x1="227.000000" y1="107.000000" x2="326.800000" y2="107.000000"  style="stroke: black; stroke-linecap:round; stroke-width:0.25; stroke-dasharray:3,3;"/>
<line x1="326.800000" y1="107.000000" x2="326.800000" y2="25.000000"  style="stroke: black; stroke-linecap:round; stroke-width:0.25; stroke-dasharray:3,3;"/>
<line x1="227.000000" y1="25.000000" x2="232.000000" y2="25.000000"  style="stroke: black; stroke-linecap:round; stroke-width:0.25; stroke-dasharray:3,3;"/>
<line x1="277.150000" y1="25.000000" x2="326.800000" y2="25.000000"  style="stroke: black; stroke-linecap:round; stroke-width:0.25; stroke-dasharray:3,3;"/>
<text x="232.000000" y="27.000000" font-family="Verdana" font-size="7">pole(0.998f)</text>
<line x1="15.000000" y1="15.000000" x2="15.000000" y2="117.000000"  style="stroke: black; stroke-linecap:round; stroke-width:0.25; stroke-dasharray:3,3;"/>
<line x1="15.000000" y1="117.000000" x2="352.800000" y2="117.000000"  style="stroke: black; stroke-linecap:round; stroke-width:0.25; stroke-dasharray:3,3;"/>
<line x1="352.800000" y1="117.000000" x2="352.800000" y2="15.000000"  style="stroke: black; stroke-linecap:round; stroke-width:0.25; stroke-dasharray:3,3;"/>
<line x1="15.000000" y1="15.000000" x2="20.000000" y2="15.000000"  style="stroke: black; stroke-linecap:round; stroke-width:0.25; stroke-dasharray:3,3;"/>
<line x1="49.025000" y1="15.000000" x2="352.800000" y2="15.000000"  style="stroke: black; stroke-linecap:round; stroke-width:0.25; stroke-dasharray:3,3;"/>
<text x="20.000000" y="17.000000" font-family="Verdana" font-size="7">process</text>
<line x1="354.800000" y1="65.000000" x2="357.800000" y2="66.000000"  transform="rotate(0.000000,357.800000,66.000000)" style="stroke: black; stroke-width:0.25;"/>
<line x1="354.800000" y1="67.000000" x2="357.800000" y2="66.000000"  transform="rotate(0.000000,357.800000,66.000000)" style="stroke: black; stroke-width:0.25;"/>
<line x1="10.000000" y1="66.000000" x2="20.000000" y2="66.000000"  style="stroke:black; stroke-linecap:round; stroke-width:0.25;"/>
<line x1="20.000000" y1="66.000000" x2="24.000000" y2="66.000000"  style="stroke:black; stroke-linecap:round; stroke-width:0.25;"/>
<line x1="24.000000" y1="66.000000" x2="28.000000" y2="66.000000"  style="stroke:black; stroke-linecap:round; stroke-width:0.25;"/>
<line x1="28.000000" y1="66.000000" x2="28.000000" y2="66.000000"  style="stroke:black; stroke-linecap:round; stroke-width:0.25;"/>
<line x1="28.000000" y1="66.000000" x2="38.000000" y2="66.000000"  style="stroke:black; stroke-linecap:round; stroke-width:0.25;"/>
<line x1="38.000000" y1="66.000000" x2="42.000000" y2="66.000000"  style="stroke:black; stroke-linecap:round; stroke-width:0.25;"/>
<line x1="42.000000" y1="66.000000" x2="46.000000" y2="66.000000"  style="stroke:black; stroke-linecap:round; stroke-width:0.25;"/>
<line x1="46.000000" y1="66.000000" x2="66.000000" y2="62.000000"  style="stroke:black; stroke-linecap:round; stroke-width:0.25;"/>
<line x1="46.000000" y1="66.000000" x2="66.000000" y2="98.000000"  style="stroke:black; stroke-linecap:round; stroke-width:0.25;"/>
<line x1="66.000000" y1="46.000000" x2="74.000000" y2="46.000000"  style="stroke:black; stroke-linecap:round; stroke-width:0.25;"/>
<line x1="66.000000" y1="62.000000" x2="66.000000" y2="46.000000"  style="stroke:black; stroke-linecap:round; stroke-width:0.25;"/>
<line x1="66.000000" y1="62.000000" x2="66.000000" y2="62.000000"  style="stroke:black; stroke-linecap:round; stroke-width:0.25;"/>
<line x1="66.000000" y1="98.000000" x2="106.000000" y2="98.000000"  style="stroke:black; stroke-linecap:round; stroke-width:0.25;"/>
<line x1="74.000000" y1="46.000000" x2="78.000000" y2="46.000000"  style="stroke:black; stroke-linecap:round; stroke-width:0.25;"/>
<line x1="102.000000" y1="46.000000" x2="106.000000" y2="46.000000"  style="stroke:black; stroke-linecap:round; stroke-width:0.25;"/>
<line x1="102.000000" y1="78.000000" x2="106.000000" y2="78.000000"  style="stroke:black; stroke-linecap:round; stroke-width:0.25;"/>
<line x1="106.000000" y1="46.000000" x2="114.000000" y2="46.000000"  style="stroke:black; stroke-linecap:round; stroke-width:0.25;"/>
<line x1="106.000000" y1="66.000000" x2="114.000000" y2="66.000000"  style="stroke:black; stroke-linecap:round; stroke-width:0.25;"/>
<line x1="106.000000" y1="78.000000" x2="106.000000" y2="66.000000"  style="stroke:black; stroke-linecap:round; stroke-width:0.25;"/>
<line x1="106.000000" y1="78.000000" x2="106.000000" y2="78.000000"  style="stroke:black; stroke-linecap:round; stroke-width:0.25;"/>
<line x1="106.000000" y1="98.000000" x2="146.000000" y2="98.000000"  style="stroke:black; stroke-linecap:round; stroke-width:0.25;"/>
<line x1="114.000000" y1="46.000000" x2="114.000000" y2="58.000000"  style="stroke:black; stroke-linecap:round; stroke-width:0.25;"/>
<line x1="114.000000" y1="58.000000" x2="114.000000" y2="58.000000"  style="stroke:black; stroke-linecap:round; stroke-width:0.25;"/>
<line x1="114.000000" y1="58.000000" x2="118.000000" y2="58.000000"  style="stroke:black; stroke-linecap:round; stroke-width:0.25;"/>
<line x1="114.000000" y1="66.000000" x2="118.000000" y2="66.000000"  style="stroke:black; stroke-linecap:round; stroke-width:0.25;"/>
<line x1="142.000000" y1="62.000000" x2="146.000000" y2="62.000000"  style="stroke:black; stroke-linecap:round; stroke-width:0.25;"/>
<line x1="146.000000" y1="62.000000" x2="172.000000" y2="62.000000"  style="stroke:black; stroke-linecap:round; stroke-width:0.25;"/>
<line x1="146.000000" y1="98.000000" x2="172.000000" y2="70.000000"  style="stroke:black; stroke-linecap:round; stroke-width:0.25;"/>
<line x1="172.000000" y1="62.000000" x2="176.000000" y2="62.000000"  style="stroke:black; stroke-linecap:round; stroke-width:0.25;"/>
<line x1="172.000000" y1="70.000000" x2="176.000000" y2="70.000000"  style="stroke:black; stroke-linecap:round; stroke-width:0.25;"/>
<line x1="200.000000" y1="66.000000" x2="204.000000" y2="66.000000"  style="stroke:black; stroke-linecap:round; stroke-width:0.25;"/>
<line x1="204.000000" y1="66.000000" x2="214.000000" y2="66.000000"  style="stroke:black; stroke-linecap:round; stroke-width:0.25;"/>
<line x1="214.000000" y1="66.000000" x2="222.000000" y2="66.000000"  style="stroke:black; stroke-linecap:round; stroke-width:0.25;"/>
<line x1="222.000000" y1="90.000000" x2="232.000000" y2="90.000000"  style="stroke:black; stroke-linecap:round; stroke-width:0.25;"/>
<line x1="222.000000" y1="66.000000" x2="222.000000" y2="90.000000"  style="stroke:black; stroke-linecap:round; stroke-width:0.25;"/>
<line x1="222.000000" y1="90.000000" x2="222.000000" y2="90.000000"  style="stroke:black; stroke-linecap:round; stroke-width:0.25;"/>
<line x1="232.000000" y1="90.000000" x2="240.000000" y2="90.000000"  style="stroke:black; stroke-linecap:round; stroke-width:0.25;"/>
<line x1="240.000000" y1="82.000000" x2="260.900000" y2="82.000000"  style="stroke:black; stroke-linecap:round; stroke-width:0.25;"/>
<line x1="240.000000" y1="90.000000" x2="260.900000" y2="90.000000"  style="stroke:black; stroke-linecap:round; stroke-width:0.25;"/>
<line x1="240.000000" y1="50.000000" x2="240.000000" y2="50.000000"  style="stroke:black; stroke-linecap:round; stroke-width:0.25;"/>
<line x1="240.000000" y1="50.000000" x2="240.000000" y2="82.000000"  style="stroke:black; stroke-linecap:round; stroke-width:0.25;"/>
<line x1="240.000000" y1="82.000000" x2="240.000000" y2="82.000000"  style="stroke:black; stroke-linecap:round; stroke-width:0.25;"/>
<line x1="244.000000" y1="50.000000" x2="240.000000" y2="50.000000"  style="stroke:black; stroke-linecap:round; stroke-width:0.25;"/>
<line x1="260.900000" y1="82.000000" x2="264.900000" y2="82.000000"  style="stroke:black; stroke-linecap:round; stroke-width:0.25;"/>
<line x1="260.900000" y1="90.000000" x2="264.900000" y2="90.000000"  style="stroke:black; stroke-linecap:round; stroke-width:0.25;"/>
<line x1="272.000000" y1="46.000000" x2="268.000000" y2="46.000000"  style="stroke:black; stroke-linecap:round; stroke-width:0.25;"/>
<line x1="272.000000" y1="54.000000" x2="268.000000" y2="54.000000"  style="stroke:black; stroke-linecap:round; stroke-width:0.25;"/>
<line x1="272.000000" y1="54.000000" x2="272.000000" y2="54.000000"  style="stroke:black; stroke-linecap:round; stroke-width:0.25;"/>
<line x1="272.000000" y1="66.000000" x2="272.000000" y2="54.000000"  style="stroke:black; stroke-linecap:round; stroke-width:0.25;"/>
<line x1="280.000000" y1="46.000000" x2="272.000000" y2="46.000000"  style="stroke:black; stroke-linecap:round; stroke-width:0.25;"/>
<line x1="280.000000" y1="66.000000" x2="272.000000" y2="66.000000"  style="stroke:black; stroke-linecap:round; stroke-width:0.25;"/>
<line x1="284.000000" y1="46.000000" x2="280.000000" y2="46.000000"  style="stroke:black; stroke-linecap:round; stroke-width:0.25;"/>
<line x1="288.900000" y1="86.000000" x2="292.900000" y2="86.000000"  style="stroke:black; stroke-linecap:round; stroke-width:0.25;"/>
<line x1="292.900000" y1="86.000000" x2="313.800000" y2="86.000000"  style="stroke:black; stroke-linecap:round; stroke-width:0.25;"/>
<line x1="296.900000" y1="66.000000" x2="280.000000" y2="66.000000"  style="stroke:black; stroke-linecap:round; stroke-width:0.25;"/>
<line x1="313.800000" y1="66.000000" x2="296.900000" y2="66.000000"  style="stroke:black; stroke-linecap:round; stroke-width:0.25;"/>
<line x1="313.800000" y1="66.000000" x2="313.800000" y2="66.000000"  style="stroke:black; stroke-linecap:round; stroke-width:0.25;"/>
<line x1="313.800000" y1="82.000000" x2="313.800000" y2="66.000000"  style="stroke:black; stroke-linecap:round; stroke-width:0.25;"/>
<line x1="313.800000" y1="86.000000" x2="315.800000" y2="86.000000"  style="stroke:black; stroke-linecap:round; stroke-width:0.25;"/>
<line x1="315.800000" y1="86.000000" x2="321.800000" y2="86.000000"  style="stroke:black; stroke-linecap:round; stroke-width:0.25;"/>
<line x1="321.800000" y1="86.000000" x2="331.800000" y2="86.000000"  style="stroke:black; stroke-linecap:round; stroke-width:0.25;"/>
<line x1="331.800000" y1="66.000000" x2="339.800000" y2="66.000000"  style="stroke:black; stroke-linecap:round; stroke-width:0.25;"/>
<line x1="331.800000" y1="86.000000" x2="331.800000" y2="66.000000"  style="stroke:black; stroke-linecap:round; stroke-width:0.25;"/>
<line x1="331.800000" y1="86.000000" x2="331.800000" y2="86.000000"  style="stroke:black; stroke-linecap:round; stroke-width:0.25;"/>
<line x1="339.800000" y1="66.000000" x2="343.800000" y2="66.000000"  style="stroke:black; stroke-linecap:round; stroke-width:0.25;"/>
<line x1="343.800000" y1="66.000000" x2="347.800000" y2="66.000000"  style="stroke:black; stroke-linecap:round; stroke-width:0.25;"/>
<line x1="347.800000" y1="66.000000" x2="357.800000" y2="66.000000"  style="stroke:black; stroke-linecap:round; stroke-width:0.25;"/>
</svg>
