<?xml version="1.0"?>
<svg xmlns="http://www.w3.org/2000/svg" xmlns:xlink="http://www.w3.org/1999/xlink" viewBox="0 0 400.500000 248.000000" width="200.250000mm" height="124.000000mm" version="1.1">
<rect x="0.000000" y="0.000000" width="399.500000" height="247.000000" rx="0" ry="0" style="stroke:#000000;fill:#FFFFFF;"/>
<text x="10.000000" y="7.000000" font-family="Verdana" font-size="7"></text>
<rect x="42.000000" y="116.000000" width="64.500000" height="24.000000" rx="0" ry="0" style="stroke:#000000;fill:#FFFFFF;"/>
<text x="74.250000" y="130.000000" font-family="Verdana" font-size="7" text-anchor="middle" fill="#000000">[1] argument1</text>
<circle cx="44.000000" cy="118.000000" r="1"/>
<line x1="39.000000" y1="127.000000" x2="42.000000" y2="128.000000"  transform="rotate(0.000000,42.000000,128.000000)" style="stroke: black; stroke-width:0.25;"/>
<line x1="39.000000" y1="129.000000" x2="42.000000" y2="128.000000"  transform="rotate(0.000000,42.000000,128.000000)" style="stroke: black; stroke-width:0.25;"/>
<rect x="140.250000" y="42.000000" width="64.500000" height="24.000000" rx="0" ry="0" style="stroke:#000000;fill:#FFFFFF;"/>
<text x="172.500000" y="56.000000" font-family="Verdana" font-size="7" text-anchor="middle" fill="#000000">[1] argument1</text>
<circle cx="142.250000" cy="44.000000" r="1"/>
<rect x="153.150000" y="74.000000" width="38.700000" height="24.000000" rx="0" ry="0" style="stroke:#000000;fill:#FFFFFF;"/>
<text x="172.500000" y="88.000000" font-family="Verdana" font-size="7" text-anchor="middle" fill="#000000">0.9999f</text>
<circle cx="155.150000" cy="76.000000" r="1"/>
<rect x="220.750000" y="58.000000" width="24.000000" height="24.000000" rx="0" ry="0" style="stroke:#000000;fill:#FFFFFF;"/>
<text x="232.750000" y="72.000000" font-family="Verdana" font-size="7" text-anchor="middle" fill="#000000">*</text>
<circle cx="222.750000" cy="60.000000" r="1"/>
<line x1="217.750000" y1="65.000000" x2="220.750000" y2="66.000000"  transform="rotate(0.000000,220.750000,66.000000)" style="stroke: black; stroke-width:0.25;"/>
<line x1="217.750000" y1="67.000000" x2="220.750000" y2="66.000000"  transform="rotate(0.000000,220.750000,66.000000)" style="stroke: black; stroke-width:0.25;"/>
<line x1="217.750000" y1="73.000000" x2="220.750000" y2="74.000000"  transform="rotate(0.000000,220.750000,74.000000)" style="stroke: black; stroke-width:0.25;"/>
<line x1="217.750000" y1="75.000000" x2="220.750000" y2="74.000000"  transform="rotate(0.000000,220.750000,74.000000)" style="stroke: black; stroke-width:0.25;"/>
<rect x="140.500000" y="116.000000" width="24.000000" height="24.000000" rx="0" ry="0" style="stroke:#000000;fill:#FFFFFF;"/>
<text x="152.500000" y="130.000000" font-family="Verdana" font-size="7" text-anchor="middle" fill="#000000">1</text>
<circle cx="142.500000" cy="118.000000" r="1"/>
<rect x="124.500000" y="148.000000" width="24.000000" height="24.000000" rx="0" ry="0" style="stroke:#000000;fill:#FFFFFF;"/>
<text x="136.500000" y="162.000000" font-family="Verdana" font-size="7" text-anchor="middle" fill="#000000">1</text>
<circle cx="126.500000" cy="150.000000" r="1"/>
<rect x="156.500000" y="148.000000" width="24.000000" height="24.000000" rx="0" ry="0" style="stroke:#000000;fill:#FFFFFF;"/>
<text x="168.500000" y="162.000000" font-family="Verdana" font-size="7" text-anchor="middle" fill="#000000">mem</text>
<circle cx="158.500000" cy="150.000000" r="1"/>
<line x1="153.500000" y1="159.000000" x2="156.500000" y2="160.000000"  transform="rotate(0.000000,156.500000,160.000000)" style="stroke: black; stroke-width:0.25;"/>
<line x1="153.500000" y1="161.000000" x2="156.500000" y2="160.000000"  transform="rotate(0.000000,156.500000,160.000000)" style="stroke: black; stroke-width:0.25;"/>
<rect x="196.500000" y="132.000000" width="24.000000" height="24.000000" rx="0" ry="0" style="stroke:#000000;fill:#FFFFFF;"/>
<text x="208.500000" y="146.000000" font-family="Verdana" font-size="7" text-anchor="middle" fill="#000000">-</text>
<circle cx="198.500000" cy="134.000000" r="1"/>
<line x1="193.500000" y1="139.000000" x2="196.500000" y2="140.000000"  transform="rotate(0.000000,196.500000,140.000000)" style="stroke: black; stroke-width:0.25;"/>
<line x1="193.500000" y1="141.000000" x2="196.500000" y2="140.000000"  transform="rotate(0.000000,196.500000,140.000000)" style="stroke: black; stroke-width:0.25;"/>
<line x1="193.500000" y1="147.000000" x2="196.500000" y2="148.000000"  transform="rotate(0.000000,196.500000,148.000000)" style="stroke: black; stroke-width:0.25;"/>
<line x1="193.500000" y1="149.000000" x2="196.500000" y2="148.000000"  transform="rotate(0.000000,196.500000,148.000000)" style="stroke: black; stroke-width:0.25;"/>
<rect x="159.600000" y="180.000000" width="25.800000" height="24.000000" rx="0" ry="0" style="stroke:#000000;fill:#FFFFFF;"/>
<text x="172.500000" y="194.000000" font-family="Verdana" font-size="7" text-anchor="middle" fill="#000000">1000</text>
<circle cx="161.600000" cy="182.000000" r="1"/>
<rect x="236.500000" y="148.000000" width="24.000000" height="24.000000" rx="0" ry="0" style="stroke:#000000;fill:#FFFFFF;"/>
<text x="248.500000" y="162.000000" font-family="Verdana" font-size="7" text-anchor="middle" fill="#000000">*</text>
<circle cx="238.500000" cy="150.000000" r="1"/>
<line x1="233.500000" y1="155.000000" x2="236.500000" y2="156.000000"  transform="rotate(0.000000,236.500000,156.000000)" style="stroke: black; stroke-width:0.25;"/>
<line x1="233.500000" y1="157.000000" x2="236.500000" y2="156.000000"  transform="rotate(0.000000,236.500000,156.000000)" style="stroke: black; stroke-width:0.25;"/>
<line x1="233.500000" y1="163.000000" x2="236.500000" y2="164.000000"  transform="rotate(0.000000,236.500000,164.000000)" style="stroke: black; stroke-width:0.25;"/>
<line x1="233.500000" y1="165.000000" x2="236.500000" y2="164.000000"  transform="rotate(0.000000,236.500000,164.000000)" style="stroke: black; stroke-width:0.25;"/>
<line x1="115.500000" y1="107.000000" x2="115.500000" y2="213.000000"  style="stroke: black; stroke-linecap:round; stroke-width:0.25; stroke-dasharray:3,3;"/>
<line x1="115.500000" y1="213.000000" x2="269.500000" y2="213.000000"  style="stroke: black; stroke-linecap:round; stroke-width:0.25; stroke-dasharray:3,3;"/>
<line x1="269.500000" y1="213.000000" x2="269.500000" y2="107.000000"  style="stroke: black; stroke-linecap:round; stroke-width:0.25; stroke-dasharray:3,3;"/>
<line x1="115.500000" y1="107.000000" x2="120.500000" y2="107.000000"  style="stroke: black; stroke-linecap:round; stroke-width:0.25; stroke-dasharray:3,3;"/>
<line x1="152.750000" y1="107.000000" x2="269.500000" y2="107.000000"  style="stroke: black; stroke-linecap:round; stroke-width:0.25; stroke-dasharray:3,3;"/>
<text x="120.500000" y="109.000000" font-family="Verdana" font-size="7">section1</text>
<rect x="286.500000" y="116.000000" width="24.000000" height="24.000000" rx="0" ry="0" style="stroke:#000000;fill:#FFFFFF;"/>
<text x="298.500000" y="130.000000" font-family="Verdana" font-size="7" text-anchor="middle" fill="#000000">+</text>
<circle cx="288.500000" cy="118.000000" r="1"/>
<line x1="283.500000" y1="123.000000" x2="286.500000" y2="124.000000"  transform="rotate(0.000000,286.500000,124.000000)" style="stroke: black; stroke-width:0.25;"/>
<line x1="283.500000" y1="125.000000" x2="286.500000" y2="124.000000"  transform="rotate(0.000000,286.500000,124.000000)" style="stroke: black; stroke-width:0.25;"/>
<line x1="283.500000" y1="131.000000" x2="286.500000" y2="132.000000"  transform="rotate(0.000000,286.500000,132.000000)" style="stroke: black; stroke-width:0.25;"/>
<line x1="283.500000" y1="133.000000" x2="286.500000" y2="132.000000"  transform="rotate(0.000000,286.500000,132.000000)" style="stroke: black; stroke-width:0.25;"/>
<line x1="33.000000" y1="33.000000" x2="33.000000" y2="223.000000"  style="stroke: black; stroke-linecap:round; stroke-width:0.25; stroke-dasharray:3,3;"/>
<line x1="33.000000" y1="223.000000" x2="319.500000" y2="223.000000"  style="stroke: black; stroke-linecap:round; stroke-width:0.25; stroke-dasharray:3,3;"/>
<line x1="319.500000" y1="223.000000" x2="319.500000" y2="33.000000"  style="stroke: black; stroke-linecap:round; stroke-width:0.25; stroke-dasharray:3,3;"/>
<line x1="33.000000" y1="33.000000" x2="38.000000" y2="33.000000"  style="stroke: black; stroke-linecap:round; stroke-width:0.25; stroke-dasharray:3,3;"/>
<line x1="54.125000" y1="33.000000" x2="319.500000" y2="33.000000"  style="stroke: black; stroke-linecap:round; stroke-width:0.25; stroke-dasharray:3,3;"/>
<text x="38.000000" y="35.000000" font-family="Verdana" font-size="7">out</text>
<line x1="322.500000" y1="128.000000" x2="322.500000" y2="124.000000"  style="stroke:black; stroke-linecap:round; stroke-width:0.25;"/>
<line x1="322.500000" y1="124.000000" x2="326.500000" y2="124.000000"  style="stroke:black; stroke-linecap:round; stroke-width:0.25;"/>
<line x1="326.500000" y1="124.000000" x2="326.500000" y2="128.000000"  style="stroke:black; stroke-linecap:round; stroke-width:0.25;"/>
<rect x="344.500000" y="112.000000" width="24.000000" height="24.000000" rx="0" ry="0" style="stroke:#000000;fill:#FFFFFF;"/>
<text x="356.500000" y="126.000000" font-family="Verdana" font-size="7" text-anchor="middle" fill="#000000">sin</text>
<circle cx="346.500000" cy="114.000000" r="1"/>
<line x1="341.500000" y1="123.000000" x2="344.500000" y2="124.000000"  transform="rotate(0.000000,344.500000,124.000000)" style="stroke: black; stroke-width:0.25;"/>
<line x1="341.500000" y1="125.000000" x2="344.500000" y2="124.000000"  transform="rotate(0.000000,344.500000,124.000000)" style="stroke: black; stroke-width:0.25;"/>
<line x1="15.000000" y1="15.000000" x2="15.000000" y2="233.000000"  style="stroke: black; stroke-linecap:round; stroke-width:0.25; stroke-dasharray:3,3;"/>
<line x1="15.000000" y1="233.000000" x2="385.500000" y2="233.000000"  style="stroke: black; stroke-linecap:round; stroke-width:0.25; stroke-dasharray:3,3;"/>
<line x1="385.500000" y1="233.000000" x2="385.500000" y2="15.000000"  style="stroke: black; stroke-linecap:round; stroke-width:0.25; stroke-dasharray:3,3;"/>
<line x1="15.000000" y1="15.000000" x2="20.000000" y2="15.000000"  style="stroke: black; stroke-linecap:round; stroke-width:0.25; stroke-dasharray:3,3;"/>
<line x1="49.025000" y1="15.000000" x2="385.500000" y2="15.000000"  style="stroke: black; stroke-linecap:round; stroke-width:0.25; stroke-dasharray:3,3;"/>
<text x="20.000000" y="17.000000" font-family="Verdana" font-size="7">process</text>
<line x1="387.500000" y1="123.000000" x2="390.500000" y2="124.000000"  transform="rotate(0.000000,390.500000,124.000000)" style="stroke: black; stroke-width:0.25;"/>
<line x1="387.500000" y1="125.000000" x2="390.500000" y2="124.000000"  transform="rotate(0.000000,390.500000,124.000000)" style="stroke: black; stroke-width:0.25;"/>
<line x1="28.000000" y1="24.000000" x2="28.000000" y2="24.000000"  style="stroke:black; stroke-linecap:round; stroke-width:0.25;"/>
<line x1="28.000000" y1="24.000000" x2="28.000000" y2="128.000000"  style="stroke:black; stroke-linecap:round; stroke-width:0.25;"/>
<line x1="28.000000" y1="128.000000" x2="28.000000" y2="128.000000"  style="stroke:black; stroke-linecap:round; stroke-width:0.25;"/>
<line x1="28.000000" y1="128.000000" x2="38.000000" y2="128.000000"  style="stroke:black; stroke-linecap:round; stroke-width:0.25;"/>
<line x1="38.000000" y1="128.000000" x2="42.000000" y2="128.000000"  style="stroke:black; stroke-linecap:round; stroke-width:0.25;"/>
<line x1="148.500000" y1="160.000000" x2="152.500000" y2="160.000000"  style="stroke:black; stroke-linecap:round; stroke-width:0.25;"/>
<line x1="152.500000" y1="160.000000" x2="152.500000" y2="160.000000"  style="stroke:black; stroke-linecap:round; stroke-width:0.25;"/>
<line x1="152.500000" y1="160.000000" x2="156.500000" y2="160.000000"  style="stroke:black; stroke-linecap:round; stroke-width:0.25;"/>
<line x1="164.500000" y1="128.000000" x2="168.500000" y2="128.000000"  style="stroke:black; stroke-linecap:round; stroke-width:0.25;"/>
<line x1="168.500000" y1="128.000000" x2="184.500000" y2="128.000000"  style="stroke:black; stroke-linecap:round; stroke-width:0.25;"/>
<line x1="176.250000" y1="24.000000" x2="28.000000" y2="24.000000"  style="stroke:black; stroke-linecap:round; stroke-width:0.25;"/>
<line x1="180.500000" y1="160.000000" x2="184.500000" y2="160.000000"  style="stroke:black; stroke-linecap:round; stroke-width:0.25;"/>
<line x1="184.500000" y1="128.000000" x2="192.500000" y2="128.000000"  style="stroke:black; stroke-linecap:round; stroke-width:0.25;"/>
<line x1="184.500000" y1="148.000000" x2="192.500000" y2="148.000000"  style="stroke:black; stroke-linecap:round; stroke-width:0.25;"/>
<line x1="184.500000" y1="160.000000" x2="184.500000" y2="148.000000"  style="stroke:black; stroke-linecap:round; stroke-width:0.25;"/>
<line x1="184.500000" y1="160.000000" x2="184.500000" y2="160.000000"  style="stroke:black; stroke-linecap:round; stroke-width:0.25;"/>
<line x1="185.400000" y1="192.000000" x2="189.400000" y2="192.000000"  style="stroke:black; stroke-linecap:round; stroke-width:0.25;"/>
<line x1="189.400000" y1="192.000000" x2="224.500000" y2="192.000000"  style="stroke:black; stroke-linecap:round; stroke-width:0.25;"/>
<line x1="191.850000" y1="86.000000" x2="195.850000" y2="86.000000"  style="stroke:black; stroke-linecap:round; stroke-width:0.25;"/>
<line x1="192.500000" y1="128.000000" x2="192.500000" y2="140.000000"  style="stroke:black; stroke-linecap:round; stroke-width:0.25;"/>
<line x1="192.500000" y1="140.000000" x2="192.500000" y2="140.000000"  style="stroke:black; stroke-linecap:round; stroke-width:0.25;"/>
<line x1="192.500000" y1="140.000000" x2="196.500000" y2="140.000000"  style="stroke:black; stroke-linecap:round; stroke-width:0.25;"/>
<line x1="192.500000" y1="148.000000" x2="196.500000" y2="148.000000"  style="stroke:black; stroke-linecap:round; stroke-width:0.25;"/>
<line x1="195.850000" y1="86.000000" x2="208.750000" y2="86.000000"  style="stroke:black; stroke-linecap:round; stroke-width:0.25;"/>
<line x1="204.750000" y1="54.000000" x2="208.750000" y2="54.000000"  style="stroke:black; stroke-linecap:round; stroke-width:0.25;"/>
<line x1="208.750000" y1="54.000000" x2="216.750000" y2="54.000000"  style="stroke:black; stroke-linecap:round; stroke-width:0.25;"/>
<line x1="208.750000" y1="74.000000" x2="216.750000" y2="74.000000"  style="stroke:black; stroke-linecap:round; stroke-width:0.25;"/>
<line x1="208.750000" y1="86.000000" x2="208.750000" y2="74.000000"  style="stroke:black; stroke-linecap:round; stroke-width:0.25;"/>
<line x1="208.750000" y1="86.000000" x2="208.750000" y2="86.000000"  style="stroke:black; stroke-linecap:round; stroke-width:0.25;"/>
<line x1="216.750000" y1="54.000000" x2="216.750000" y2="66.000000"  style="stroke:black; stroke-linecap:round; stroke-width:0.25;"/>
<line x1="216.750000" y1="66.000000" x2="216.750000" y2="66.000000"  style="stroke:black; stroke-linecap:round; stroke-width:0.25;"/>
<line x1="216.750000" y1="66.000000" x2="220.750000" y2="66.000000"  style="stroke:black; stroke-linecap:round; stroke-width:0.25;"/>
<line x1="216.750000" y1="74.000000" x2="220.750000" y2="74.000000"  style="stroke:black; stroke-linecap:round; stroke-width:0.25;"/>
<line x1="220.500000" y1="144.000000" x2="224.500000" y2="144.000000"  style="stroke:black; stroke-linecap:round; stroke-width:0.25;"/>
<line x1="224.500000" y1="164.000000" x2="232.500000" y2="164.000000"  style="stroke:black; stroke-linecap:round; stroke-width:0.25;"/>
<line x1="224.500000" y1="192.000000" x2="224.500000" y2="164.000000"  style="stroke:black; stroke-linecap:round; stroke-width:0.25;"/>
<line x1="224.500000" y1="192.000000" x2="224.500000" y2="192.000000"  style="stroke:black; stroke-linecap:round; stroke-width:0.25;"/>
<line x1="224.500000" y1="144.000000" x2="232.500000" y2="144.000000"  style="stroke:black; stroke-linecap:round; stroke-width:0.25;"/>
<line x1="232.500000" y1="144.000000" x2="232.500000" y2="156.000000"  style="stroke:black; stroke-linecap:round; stroke-width:0.25;"/>
<line x1="232.500000" y1="156.000000" x2="232.500000" y2="156.000000"  style="stroke:black; stroke-linecap:round; stroke-width:0.25;"/>
<line x1="232.500000" y1="156.000000" x2="236.500000" y2="156.000000"  style="stroke:black; stroke-linecap:round; stroke-width:0.25;"/>
<line x1="232.500000" y1="164.000000" x2="236.500000" y2="164.000000"  style="stroke:black; stroke-linecap:round; stroke-width:0.25;"/>
<line x1="244.750000" y1="70.000000" x2="248.750000" y2="70.000000"  style="stroke:black; stroke-linecap:round; stroke-width:0.25;"/>
<line x1="248.750000" y1="70.000000" x2="274.500000" y2="70.000000"  style="stroke:black; stroke-linecap:round; stroke-width:0.25;"/>
<line x1="260.500000" y1="160.000000" x2="264.500000" y2="160.000000"  style="stroke:black; stroke-linecap:round; stroke-width:0.25;"/>
<line x1="264.500000" y1="160.000000" x2="274.500000" y2="160.000000"  style="stroke:black; stroke-linecap:round; stroke-width:0.25;"/>
<line x1="274.500000" y1="70.000000" x2="282.500000" y2="70.000000"  style="stroke:black; stroke-linecap:round; stroke-width:0.25;"/>
<line x1="274.500000" y1="132.000000" x2="282.500000" y2="132.000000"  style="stroke:black; stroke-linecap:round; stroke-width:0.25;"/>
<line x1="274.500000" y1="160.000000" x2="274.500000" y2="132.000000"  style="stroke:black; stroke-linecap:round; stroke-width:0.25;"/>
<line x1="274.500000" y1="160.000000" x2="274.500000" y2="160.000000"  style="stroke:black; stroke-linecap:round; stroke-width:0.25;"/>
<line x1="282.500000" y1="70.000000" x2="282.500000" y2="124.000000"  style="stroke:black; stroke-linecap:round; stroke-width:0.25;"/>
<line x1="282.500000" y1="124.000000" x2="282.500000" y2="124.000000"  style="stroke:black; stroke-linecap:round; stroke-width:0.25;"/>
<line x1="282.500000" y1="124.000000" x2="286.500000" y2="124.000000"  style="stroke:black; stroke-linecap:round; stroke-width:0.25;"/>
<line x1="282.500000" y1="132.000000" x2="286.500000" y2="132.000000"  style="stroke:black; stroke-linecap:round; stroke-width:0.25;"/>
<line x1="310.500000" y1="128.000000" x2="314.500000" y2="128.000000"  style="stroke:black; stroke-linecap:round; stroke-width:0.25;"/>
<line x1="314.500000" y1="128.000000" x2="324.500000" y2="128.000000"  style="stroke:black; stroke-linecap:round; stroke-width:0.25;"/>
<line x1="324.500000" y1="24.000000" x2="176.250000" y2="24.000000"  style="stroke:black; stroke-linecap:round; stroke-width:0.25;"/>
<line x1="324.500000" y1="24.000000" x2="324.500000" y2="24.000000"  style="stroke:black; stroke-linecap:round; stroke-width:0.25;"/>
<line x1="324.500000" y1="124.000000" x2="324.500000" y2="24.000000"  style="stroke:black; stroke-linecap:round; stroke-width:0.25;"/>
<line x1="324.500000" y1="128.000000" x2="326.500000" y2="128.000000"  style="stroke:black; stroke-linecap:round; stroke-width:0.25;"/>
<line x1="326.500000" y1="128.000000" x2="332.500000" y2="128.000000"  style="stroke:black; stroke-linecap:round; stroke-width:0.25;"/>
<line x1="332.500000" y1="124.000000" x2="340.500000" y2="124.000000"  style="stroke:black; stroke-linecap:round; stroke-width:0.25;"/>
<line x1="332.500000" y1="128.000000" x2="332.500000" y2="124.000000"  style="stroke:black; stroke-linecap:round; stroke-width:0.25;"/>
<line x1="332.500000" y1="128.000000" x2="332.500000" y2="128.000000"  style="stroke:black; stroke-linecap:round; stroke-width:0.25;"/>
<line x1="340.500000" y1="124.000000" x2="344.500000" y2="124.000000"  style="stroke:black; stroke-linecap:round; stroke-width:0.25;"/>
<line x1="368.500000" y1="124.000000" x2="372.500000" y2="124.000000"  style="stroke:black; stroke-linecap:round; stroke-width:0.25;"/>
<line x1="372.500000" y1="124.000000" x2="372.500000" y2="124.000000"  style="stroke:black; stroke-linecap:round; stroke-width:0.25;"/>
<line x1="372.500000" y1="124.000000" x2="376.500000" y2="124.000000"  style="stroke:black; stroke-linecap:round; stroke-width:0.25;"/>
<line x1="376.500000" y1="124.000000" x2="380.500000" y2="124.000000"  style="stroke:black; stroke-linecap:round; stroke-width:0.25;"/>
<line x1="380.500000" y1="124.000000" x2="390.500000" y2="124.000000"  style="stroke:black; stroke-linecap:round; stroke-width:0.25;"/>
</svg>
