<?xml version="1.0"?>
<svg xmlns="http://www.w3.org/2000/svg" xmlns:xlink="http://www.w3.org/1999/xlink" viewBox="0 0 342.700000 136.000000" width="171.350000mm" height="68.000000mm" version="1.1">
<rect x="0.000000" y="0.000000" width="341.700000" height="135.000000" rx="0" ry="0" style="stroke:#000000;fill:#FFFFFF;"/>
<text x="10.000000" y="7.000000" font-family="Verdana" font-size="7"></text>
<rect x="40.000000" y="24.000000" width="24.000000" height="24.000000" rx="0" ry="0" style="stroke:#000000;fill:#FFFFFF;"/>
<text x="52.000000" y="38.000000" font-family="Verdana" font-size="7" text-anchor="middle" fill="#000000">1</text>
<circle cx="42.000000" cy="26.000000" r="1"/>
<rect x="24.000000" y="56.000000" width="24.000000" height="24.000000" rx="0" ry="0" style="stroke:#000000;fill:#FFFFFF;"/>
<text x="36.000000" y="70.000000" font-family="Verdana" font-size="7" text-anchor="middle" fill="#000000">1</text>
<circle cx="26.000000" cy="58.000000" r="1"/>
<rect x="56.000000" y="56.000000" width="24.000000" height="24.000000" rx="0" ry="0" style="stroke:#000000;fill:#FFFFFF;"/>
<text x="68.000000" y="70.000000" font-family="Verdana" font-size="7" text-anchor="middle" fill="#000000">mem</text>
<circle cx="58.000000" cy="58.000000" r="1"/>
<line x1="53.000000" y1="67.000000" x2="56.000000" y2="68.000000"  transform="rotate(0.000000,56.000000,68.000000)" style="stroke: black; stroke-width:0.25;"/>
<line x1="53.000000" y1="69.000000" x2="56.000000" y2="68.000000"  transform="rotate(0.000000,56.000000,68.000000)" style="stroke: black; stroke-width:0.25;"/>
<rect x="96.000000" y="40.000000" width="24.000000" height="24.000000" rx="0" ry="0" style="stroke:#000000;fill:#FFFFFF;"/>
<text x="108.000000" y="54.000000" font-family="Verdana" font-size="7" text-anchor="middle" fill="#000000">-</text>
<circle cx="98.000000" cy="42.000000" r="1"/>
<line x1="93.000000" y1="47.000000" x2="96.000000" y2="48.000000"  transform="rotate(0.000000,96.000000,48.000000)" style="stroke: black; stroke-width:0.25;"/>
<line x1="93.000000" y1="49.000000" x2="96.000000" y2="48.000000"  transform="rotate(0.000000,96.000000,48.000000)" style="stroke: black; stroke-width:0.25;"/>
<line x1="93.000000" y1="55.000000" x2="96.000000" y2="56.000000"  transform="rotate(0.000000,96.000000,56.000000)" style="stroke: black; stroke-width:0.25;"/>
<line x1="93.000000" y1="57.000000" x2="96.000000" y2="56.000000"  transform="rotate(0.000000,96.000000,56.000000)" style="stroke: black; stroke-width:0.25;"/>
<rect x="59.100000" y="88.000000" width="25.800000" height="24.000000" rx="0" ry="0" style="stroke:#000000;fill:#FFFFFF;"/>
<text x="72.000000" y="102.000000" font-family="Verdana" font-size="7" text-anchor="middle" fill="#000000">1000</text>
<circle cx="61.100000" cy="90.000000" r="1"/>
<rect x="136.000000" y="56.000000" width="24.000000" height="24.000000" rx="0" ry="0" style="stroke:#000000;fill:#FFFFFF;"/>
<text x="148.000000" y="70.000000" font-family="Verdana" font-size="7" text-anchor="middle" fill="#000000">*</text>
<circle cx="138.000000" cy="58.000000" r="1"/>
<line x1="133.000000" y1="63.000000" x2="136.000000" y2="64.000000"  transform="rotate(0.000000,136.000000,64.000000)" style="stroke: black; stroke-width:0.25;"/>
<line x1="133.000000" y1="65.000000" x2="136.000000" y2="64.000000"  transform="rotate(0.000000,136.000000,64.000000)" style="stroke: black; stroke-width:0.25;"/>
<line x1="133.000000" y1="71.000000" x2="136.000000" y2="72.000000"  transform="rotate(0.000000,136.000000,72.000000)" style="stroke: black; stroke-width:0.25;"/>
<line x1="133.000000" y1="73.000000" x2="136.000000" y2="72.000000"  transform="rotate(0.000000,136.000000,72.000000)" style="stroke: black; stroke-width:0.25;"/>
<rect x="211.350000" y="76.000000" width="24.000000" height="24.000000" rx="0" ry="0" style="stroke:#000000;fill:#FFFFFF;"/>
<text x="223.350000" y="90.000000" font-family="Verdana" font-size="7" text-anchor="middle" fill="#000000">+</text>
<circle cx="213.350000" cy="78.000000" r="1"/>
<line x1="208.350000" y1="83.000000" x2="211.350000" y2="84.000000"  transform="rotate(0.000000,211.350000,84.000000)" style="stroke: black; stroke-width:0.25;"/>
<line x1="208.350000" y1="85.000000" x2="211.350000" y2="84.000000"  transform="rotate(0.000000,211.350000,84.000000)" style="stroke: black; stroke-width:0.25;"/>
<line x1="208.350000" y1="91.000000" x2="211.350000" y2="92.000000"  transform="rotate(0.000000,211.350000,92.000000)" style="stroke: black; stroke-width:0.25;"/>
<line x1="208.350000" y1="93.000000" x2="211.350000" y2="92.000000"  transform="rotate(0.000000,211.350000,92.000000)" style="stroke: black; stroke-width:0.25;"/>
<rect x="224.000000" y="36.000000" width="38.700000" height="24.000000" rx="0" ry="0" style="stroke:#000000;fill:#FFFFFF;"/>
<text x="243.350000" y="50.000000" font-family="Verdana" font-size="7" text-anchor="middle" fill="#000000">0.9999f</text>
<circle cx="260.700000" cy="58.000000" r="1"/>
<rect x="184.000000" y="40.000000" width="24.000000" height="24.000000" rx="0" ry="0" style="stroke:#000000;fill:#FFFFFF;"/>
<text x="196.000000" y="54.000000" font-family="Verdana" font-size="7" text-anchor="middle" fill="#000000">*</text>
<circle cx="206.000000" cy="62.000000" r="1"/>
<line x1="211.000000" y1="55.000000" x2="208.000000" y2="56.000000"  transform="rotate(0.000000,208.000000,56.000000)" style="stroke: black; stroke-width:0.25;"/>
<line x1="211.000000" y1="57.000000" x2="208.000000" y2="56.000000"  transform="rotate(0.000000,208.000000,56.000000)" style="stroke: black; stroke-width:0.25;"/>
<line x1="211.000000" y1="47.000000" x2="208.000000" y2="48.000000"  transform="rotate(0.000000,208.000000,48.000000)" style="stroke: black; stroke-width:0.25;"/>
<line x1="211.000000" y1="49.000000" x2="208.000000" y2="48.000000"  transform="rotate(0.000000,208.000000,48.000000)" style="stroke: black; stroke-width:0.25;"/>
<line x1="264.700000" y1="88.000000" x2="264.700000" y2="84.000000"  style="stroke:black; stroke-linecap:round; stroke-width:0.25;"/>
<line x1="264.700000" y1="84.000000" x2="268.700000" y2="84.000000"  style="stroke:black; stroke-linecap:round; stroke-width:0.25;"/>
<line x1="268.700000" y1="84.000000" x2="268.700000" y2="88.000000"  style="stroke:black; stroke-linecap:round; stroke-width:0.25;"/>
<rect x="286.700000" y="56.000000" width="24.000000" height="24.000000" rx="0" ry="0" style="stroke:#000000;fill:#FFFFFF;"/>
<text x="298.700000" y="70.000000" font-family="Verdana" font-size="7" text-anchor="middle" fill="#000000">sin</text>
<circle cx="288.700000" cy="58.000000" r="1"/>
<line x1="283.700000" y1="67.000000" x2="286.700000" y2="68.000000"  transform="rotate(0.000000,286.700000,68.000000)" style="stroke: black; stroke-width:0.25;"/>
<line x1="283.700000" y1="69.000000" x2="286.700000" y2="68.000000"  transform="rotate(0.000000,286.700000,68.000000)" style="stroke: black; stroke-width:0.25;"/>
<line x1="15.000000" y1="15.000000" x2="15.000000" y2="121.000000"  style="stroke: black; stroke-linecap:round; stroke-width:0.25; stroke-dasharray:3,3;"/>
<line x1="15.000000" y1="121.000000" x2="327.700000" y2="121.000000"  style="stroke: black; stroke-linecap:round; stroke-width:0.25; stroke-dasharray:3,3;"/>
<line x1="327.700000" y1="121.000000" x2="327.700000" y2="15.000000"  style="stroke: black; stroke-linecap:round; stroke-width:0.25; stroke-dasharray:3,3;"/>
<line x1="15.000000" y1="15.000000" x2="20.000000" y2="15.000000"  style="stroke: black; stroke-linecap:round; stroke-width:0.25; stroke-dasharray:3,3;"/>
<line x1="49.025000" y1="15.000000" x2="327.700000" y2="15.000000"  style="stroke: black; stroke-linecap:round; stroke-width:0.25; stroke-dasharray:3,3;"/>
<text x="20.000000" y="17.000000" font-family="Verdana" font-size="7">process</text>
<line x1="329.700000" y1="67.000000" x2="332.700000" y2="68.000000"  transform="rotate(0.000000,332.700000,68.000000)" style="stroke: black; stroke-width:0.25;"/>
<line x1="329.700000" y1="69.000000" x2="332.700000" y2="68.000000"  transform="rotate(0.000000,332.700000,68.000000)" style="stroke: black; stroke-width:0.25;"/>
<line x1="48.000000" y1="68.000000" x2="52.000000" y2="68.000000"  style="stroke:black; stroke-linecap:round; stroke-width:0.25;"/>
<line x1="52.000000" y1="68.000000" x2="52.000000" y2="68.000000"  style="stroke:black; stroke-linecap:round; stroke-width:0.25;"/>
<line x1="52.000000" y1="68.000000" x2="56.000000" y2="68.000000"  style="stroke:black; stroke-linecap:round; stroke-width:0.25;"/>
<line x1="64.000000" y1="36.000000" x2="68.000000" y2="36.000000"  style="stroke:black; stroke-linecap:round; stroke-width:0.25;"/>
<line x1="68.000000" y1="36.000000" x2="84.000000" y2="36.000000"  style="stroke:black; stroke-linecap:round; stroke-width:0.25;"/>
<line x1="80.000000" y1="68.000000" x2="84.000000" y2="68.000000"  style="stroke:black; stroke-linecap:round; stroke-width:0.25;"/>
<line x1="84.000000" y1="36.000000" x2="92.000000" y2="36.000000"  style="stroke:black; stroke-linecap:round; stroke-width:0.25;"/>
<line x1="84.000000" y1="56.000000" x2="92.000000" y2="56.000000"  style="stroke:black; stroke-linecap:round; stroke-width:0.25;"/>
<line x1="84.000000" y1="68.000000" x2="84.000000" y2="56.000000"  style="stroke:black; stroke-linecap:round; stroke-width:0.25;"/>
<line x1="84.000000" y1="68.000000" x2="84.000000" y2="68.000000"  style="stroke:black; stroke-linecap:round; stroke-width:0.25;"/>
<line x1="84.900000" y1="100.000000" x2="88.900000" y2="100.000000"  style="stroke:black; stroke-linecap:round; stroke-width:0.25;"/>
<line x1="88.900000" y1="100.000000" x2="124.000000" y2="100.000000"  style="stroke:black; stroke-linecap:round; stroke-width:0.25;"/>
<line x1="92.000000" y1="36.000000" x2="92.000000" y2="48.000000"  style="stroke:black; stroke-linecap:round; stroke-width:0.25;"/>
<line x1="92.000000" y1="48.000000" x2="92.000000" y2="48.000000"  style="stroke:black; stroke-linecap:round; stroke-width:0.25;"/>
<line x1="92.000000" y1="48.000000" x2="96.000000" y2="48.000000"  style="stroke:black; stroke-linecap:round; stroke-width:0.25;"/>
<line x1="92.000000" y1="56.000000" x2="96.000000" y2="56.000000"  style="stroke:black; stroke-linecap:round; stroke-width:0.25;"/>
<line x1="120.000000" y1="52.000000" x2="124.000000" y2="52.000000"  style="stroke:black; stroke-linecap:round; stroke-width:0.25;"/>
<line x1="124.000000" y1="52.000000" x2="132.000000" y2="52.000000"  style="stroke:black; stroke-linecap:round; stroke-width:0.25;"/>
<line x1="124.000000" y1="72.000000" x2="132.000000" y2="72.000000"  style="stroke:black; stroke-linecap:round; stroke-width:0.25;"/>
<line x1="124.000000" y1="100.000000" x2="124.000000" y2="72.000000"  style="stroke:black; stroke-linecap:round; stroke-width:0.25;"/>
<line x1="124.000000" y1="100.000000" x2="124.000000" y2="100.000000"  style="stroke:black; stroke-linecap:round; stroke-width:0.25;"/>
<line x1="132.000000" y1="52.000000" x2="132.000000" y2="64.000000"  style="stroke:black; stroke-linecap:round; stroke-width:0.25;"/>
<line x1="132.000000" y1="64.000000" x2="132.000000" y2="64.000000"  style="stroke:black; stroke-linecap:round; stroke-width:0.25;"/>
<line x1="132.000000" y1="64.000000" x2="136.000000" y2="64.000000"  style="stroke:black; stroke-linecap:round; stroke-width:0.25;"/>
<line x1="132.000000" y1="72.000000" x2="136.000000" y2="72.000000"  style="stroke:black; stroke-linecap:round; stroke-width:0.25;"/>
<line x1="160.000000" y1="68.000000" x2="164.000000" y2="68.000000"  style="stroke:black; stroke-linecap:round; stroke-width:0.25;"/>
<line x1="164.000000" y1="68.000000" x2="172.000000" y2="68.000000"  style="stroke:black; stroke-linecap:round; stroke-width:0.25;"/>
<line x1="172.000000" y1="68.000000" x2="172.000000" y2="92.000000"  style="stroke:black; stroke-linecap:round; stroke-width:0.25;"/>
<line x1="172.000000" y1="92.000000" x2="172.000000" y2="92.000000"  style="stroke:black; stroke-linecap:round; stroke-width:0.25;"/>
<line x1="172.000000" y1="92.000000" x2="180.000000" y2="92.000000"  style="stroke:black; stroke-linecap:round; stroke-width:0.25;"/>
<line x1="180.000000" y1="52.000000" x2="180.000000" y2="52.000000"  style="stroke:black; stroke-linecap:round; stroke-width:0.25;"/>
<line x1="180.000000" y1="52.000000" x2="180.000000" y2="84.000000"  style="stroke:black; stroke-linecap:round; stroke-width:0.25;"/>
<line x1="180.000000" y1="84.000000" x2="180.000000" y2="84.000000"  style="stroke:black; stroke-linecap:round; stroke-width:0.25;"/>
<line x1="180.000000" y1="84.000000" x2="207.350000" y2="84.000000"  style="stroke:black; stroke-linecap:round; stroke-width:0.25;"/>
<line x1="180.000000" y1="92.000000" x2="207.350000" y2="92.000000"  style="stroke:black; stroke-linecap:round; stroke-width:0.25;"/>
<line x1="184.000000" y1="52.000000" x2="180.000000" y2="52.000000"  style="stroke:black; stroke-linecap:round; stroke-width:0.25;"/>
<line x1="207.350000" y1="84.000000" x2="207.350000" y2="84.000000"  style="stroke:black; stroke-linecap:round; stroke-width:0.25;"/>
<line x1="207.350000" y1="84.000000" x2="211.350000" y2="84.000000"  style="stroke:black; stroke-linecap:round; stroke-width:0.25;"/>
<line x1="207.350000" y1="92.000000" x2="207.350000" y2="92.000000"  style="stroke:black; stroke-linecap:round; stroke-width:0.25;"/>
<line x1="207.350000" y1="92.000000" x2="211.350000" y2="92.000000"  style="stroke:black; stroke-linecap:round; stroke-width:0.25;"/>
<line x1="212.000000" y1="48.000000" x2="208.000000" y2="48.000000"  style="stroke:black; stroke-linecap:round; stroke-width:0.25;"/>
<line x1="212.000000" y1="56.000000" x2="208.000000" y2="56.000000"  style="stroke:black; stroke-linecap:round; stroke-width:0.25;"/>
<line x1="212.000000" y1="56.000000" x2="212.000000" y2="56.000000"  style="stroke:black; stroke-linecap:round; stroke-width:0.25;"/>
<line x1="212.000000" y1="68.000000" x2="212.000000" y2="56.000000"  style="stroke:black; stroke-linecap:round; stroke-width:0.25;"/>
<line x1="220.000000" y1="48.000000" x2="212.000000" y2="48.000000"  style="stroke:black; stroke-linecap:round; stroke-width:0.25;"/>
<line x1="220.000000" y1="68.000000" x2="212.000000" y2="68.000000"  style="stroke:black; stroke-linecap:round; stroke-width:0.25;"/>
<line x1="224.000000" y1="48.000000" x2="220.000000" y2="48.000000"  style="stroke:black; stroke-linecap:round; stroke-width:0.25;"/>
<line x1="235.350000" y1="88.000000" x2="239.350000" y2="88.000000"  style="stroke:black; stroke-linecap:round; stroke-width:0.25;"/>
<line x1="239.350000" y1="88.000000" x2="266.700000" y2="88.000000"  style="stroke:black; stroke-linecap:round; stroke-width:0.25;"/>
<line x1="243.350000" y1="68.000000" x2="220.000000" y2="68.000000"  style="stroke:black; stroke-linecap:round; stroke-width:0.25;"/>
<line x1="266.700000" y1="68.000000" x2="243.350000" y2="68.000000"  style="stroke:black; stroke-linecap:round; stroke-width:0.25;"/>
<line x1="266.700000" y1="68.000000" x2="266.700000" y2="68.000000"  style="stroke:black; stroke-linecap:round; stroke-width:0.25;"/>
<line x1="266.700000" y1="84.000000" x2="266.700000" y2="68.000000"  style="stroke:black; stroke-linecap:round; stroke-width:0.25;"/>
<line x1="266.700000" y1="88.000000" x2="268.700000" y2="88.000000"  style="stroke:black; stroke-linecap:round; stroke-width:0.25;"/>
<line x1="268.700000" y1="88.000000" x2="274.700000" y2="88.000000"  style="stroke:black; stroke-linecap:round; stroke-width:0.25;"/>
<line x1="274.700000" y1="68.000000" x2="282.700000" y2="68.000000"  style="stroke:black; stroke-linecap:round; stroke-width:0.25;"/>
<line x1="274.700000" y1="88.000000" x2="274.700000" y2="68.000000"  style="stroke:black; stroke-linecap:round; stroke-width:0.25;"/>
<line x1="274.700000" y1="88.000000" x2="274.700000" y2="88.000000"  style="stroke:black; stroke-linecap:round; stroke-width:0.25;"/>
<line x1="282.700000" y1="68.000000" x2="286.700000" y2="68.000000"  style="stroke:black; stroke-linecap:round; stroke-width:0.25;"/>
<line x1="310.700000" y1="68.000000" x2="314.700000" y2="68.000000"  style="stroke:black; stroke-linecap:round; stroke-width:0.25;"/>
<line x1="314.700000" y1="68.000000" x2="314.700000" y2="68.000000"  style="stroke:black; stroke-linecap:round; stroke-width:0.25;"/>
<line x1="314.700000" y1="68.000000" x2="318.700000" y2="68.000000"  style="stroke:black; stroke-linecap:round; stroke-width:0.25;"/>
<line x1="318.700000" y1="68.000000" x2="322.700000" y2="68.000000"  style="stroke:black; stroke-linecap:round; stroke-width:0.25;"/>
<line x1="322.700000" y1="68.000000" x2="332.700000" y2="68.000000"  style="stroke:black; stroke-linecap:round; stroke-width:0.25;"/>
</svg>
