<?xml version="1.0"?>
<svg xmlns="http://www.w3.org/2000/svg" xmlns:xlink="http://www.w3.org/1999/xlink" viewBox="0 0 401.800000 328.000000" width="200.900000mm" height="164.000000mm" version="1.1">
<rect x="0.000000" y="0.000000" width="400.800000" height="327.000000" rx="0" ry="0" style="stroke:#000000;fill:#FFFFFF;"/>
<text x="10.000000" y="7.000000" font-family="Verdana" font-size="7"></text>
<rect x="62.000000" y="156.000000" width="25.800000" height="24.000000" rx="0" ry="0" style="stroke:#000000;fill:#FFFFFF;"/>
<text x="74.900000" y="170.000000" font-family="Verdana" font-size="7" text-anchor="middle" fill="#000000">[1] y</text>
<circle cx="64.000000" cy="158.000000" r="1"/>
<line x1="59.000000" y1="167.000000" x2="62.000000" y2="168.000000"  transform="rotate(0.000000,62.000000,168.000000)" style="stroke: black; stroke-width:0.25;"/>
<line x1="59.000000" y1="169.000000" x2="62.000000" y2="168.000000"  transform="rotate(0.000000,62.000000,168.000000)" style="stroke: black; stroke-width:0.25;"/>
<rect x="121.800000" y="72.000000" width="24.000000" height="24.000000" rx="0" ry="0" style="stroke:#000000;fill:#FFFFFF;"/>
<text x="133.800000" y="86.000000" font-family="Verdana" font-size="7" text-anchor="middle" fill="#000000">1</text>
<circle cx="123.800000" cy="74.000000" r="1"/>
<rect x="105.800000" y="104.000000" width="24.000000" height="24.000000" rx="0" ry="0" style="stroke:#000000;fill:#FFFFFF;"/>
<text x="117.800000" y="118.000000" font-family="Verdana" font-size="7" text-anchor="middle" fill="#000000">1</text>
<circle cx="107.800000" cy="106.000000" r="1"/>
<rect x="137.800000" y="104.000000" width="24.000000" height="24.000000" rx="0" ry="0" style="stroke:#000000;fill:#FFFFFF;"/>
<text x="149.800000" y="118.000000" font-family="Verdana" font-size="7" text-anchor="middle" fill="#000000">mem</text>
<circle cx="139.800000" cy="106.000000" r="1"/>
<line x1="134.800000" y1="115.000000" x2="137.800000" y2="116.000000"  transform="rotate(0.000000,137.800000,116.000000)" style="stroke: black; stroke-width:0.25;"/>
<line x1="134.800000" y1="117.000000" x2="137.800000" y2="116.000000"  transform="rotate(0.000000,137.800000,116.000000)" style="stroke: black; stroke-width:0.25;"/>
<rect x="177.800000" y="88.000000" width="24.000000" height="24.000000" rx="0" ry="0" style="stroke:#000000;fill:#FFFFFF;"/>
<text x="189.800000" y="102.000000" font-family="Verdana" font-size="7" text-anchor="middle" fill="#000000">-</text>
<circle cx="179.800000" cy="90.000000" r="1"/>
<line x1="174.800000" y1="95.000000" x2="177.800000" y2="96.000000"  transform="rotate(0.000000,177.800000,96.000000)" style="stroke: black; stroke-width:0.25;"/>
<line x1="174.800000" y1="97.000000" x2="177.800000" y2="96.000000"  transform="rotate(0.000000,177.800000,96.000000)" style="stroke: black; stroke-width:0.25;"/>
<line x1="174.800000" y1="103.000000" x2="177.800000" y2="104.000000"  transform="rotate(0.000000,177.800000,104.000000)" style="stroke: black; stroke-width:0.25;"/>
<line x1="174.800000" y1="105.000000" x2="177.800000" y2="104.000000"  transform="rotate(0.000000,177.800000,104.000000)" style="stroke: black; stroke-width:0.25;"/>
<line x1="96.800000" y1="63.000000" x2="96.800000" y2="137.000000"  style="stroke: black; stroke-linecap:round; stroke-width:0.25; stroke-dasharray:3,3;"/>
<line x1="96.800000" y1="137.000000" x2="210.800000" y2="137.000000"  style="stroke: black; stroke-linecap:round; stroke-width:0.25; stroke-dasharray:3,3;"/>
<line x1="210.800000" y1="137.000000" x2="210.800000" y2="63.000000"  style="stroke: black; stroke-linecap:round; stroke-width:0.25; stroke-dasharray:3,3;"/>
<line x1="96.800000" y1="63.000000" x2="101.800000" y2="63.000000"  style="stroke: black; stroke-linecap:round; stroke-width:0.25; stroke-dasharray:3,3;"/>
<line x1="124.375000" y1="63.000000" x2="210.800000" y2="63.000000"  style="stroke: black; stroke-linecap:round; stroke-width:0.25; stroke-dasharray:3,3;"/>
<text x="101.800000" y="65.000000" font-family="Verdana" font-size="7">dirac</text>
<rect x="140.900000" y="156.000000" width="25.800000" height="24.000000" rx="0" ry="0" style="stroke:#000000;fill:#FFFFFF;"/>
<text x="153.800000" y="170.000000" font-family="Verdana" font-size="7" text-anchor="middle" fill="#000000">1000</text>
<circle cx="142.900000" cy="158.000000" r="1"/>
<line x1="131.900000" y1="147.000000" x2="131.900000" y2="189.000000"  style="stroke: black; stroke-linecap:round; stroke-width:0.25; stroke-dasharray:3,3;"/>
<line x1="131.900000" y1="189.000000" x2="175.700000" y2="189.000000"  style="stroke: black; stroke-linecap:round; stroke-width:0.25; stroke-dasharray:3,3;"/>
<line x1="175.700000" y1="189.000000" x2="175.700000" y2="147.000000"  style="stroke: black; stroke-linecap:round; stroke-width:0.25; stroke-dasharray:3,3;"/>
<line x1="131.900000" y1="147.000000" x2="136.900000" y2="147.000000"  style="stroke: black; stroke-linecap:round; stroke-width:0.25; stroke-dasharray:3,3;"/>
<line x1="156.250000" y1="147.000000" x2="175.700000" y2="147.000000"  style="stroke: black; stroke-linecap:round; stroke-width:0.25; stroke-dasharray:3,3;"/>
<text x="136.900000" y="149.000000" font-family="Verdana" font-size="7">damp</text>
<rect x="227.800000" y="114.000000" width="24.000000" height="24.000000" rx="0" ry="0" style="stroke:#000000;fill:#FFFFFF;"/>
<text x="239.800000" y="128.000000" font-family="Verdana" font-size="7" text-anchor="middle" fill="#000000">*</text>
<circle cx="229.800000" cy="116.000000" r="1"/>
<line x1="224.800000" y1="121.000000" x2="227.800000" y2="122.000000"  transform="rotate(0.000000,227.800000,122.000000)" style="stroke: black; stroke-width:0.25;"/>
<line x1="224.800000" y1="123.000000" x2="227.800000" y2="122.000000"  transform="rotate(0.000000,227.800000,122.000000)" style="stroke: black; stroke-width:0.25;"/>
<line x1="224.800000" y1="129.000000" x2="227.800000" y2="130.000000"  transform="rotate(0.000000,227.800000,130.000000)" style="stroke: black; stroke-width:0.25;"/>
<line x1="224.800000" y1="131.000000" x2="227.800000" y2="130.000000"  transform="rotate(0.000000,227.800000,130.000000)" style="stroke: black; stroke-width:0.25;"/>
<rect x="134.450000" y="208.000000" width="38.700000" height="24.000000" rx="0" ry="0" style="stroke:#000000;fill:#FFFFFF;"/>
<text x="153.800000" y="222.000000" font-family="Verdana" font-size="7" text-anchor="middle" fill="#000000">0.9999f</text>
<circle cx="136.450000" cy="210.000000" r="1"/>
<line x1="125.450000" y1="199.000000" x2="125.450000" y2="241.000000"  style="stroke: black; stroke-linecap:round; stroke-width:0.25; stroke-dasharray:3,3;"/>
<line x1="125.450000" y1="241.000000" x2="182.150000" y2="241.000000"  style="stroke: black; stroke-linecap:round; stroke-width:0.25; stroke-dasharray:3,3;"/>
<line x1="182.150000" y1="241.000000" x2="182.150000" y2="199.000000"  style="stroke: black; stroke-linecap:round; stroke-width:0.25; stroke-dasharray:3,3;"/>
<line x1="125.450000" y1="199.000000" x2="130.450000" y2="199.000000"  style="stroke: black; stroke-linecap:round; stroke-width:0.25; stroke-dasharray:3,3;"/>
<line x1="146.575000" y1="199.000000" x2="182.150000" y2="199.000000"  style="stroke: black; stroke-linecap:round; stroke-width:0.25; stroke-dasharray:3,3;"/>
<text x="130.450000" y="201.000000" font-family="Verdana" font-size="7">amp</text>
<rect x="140.900000" y="250.000000" width="25.800000" height="24.000000" rx="0" ry="0" style="stroke:#000000;fill:#FFFFFF;"/>
<text x="153.800000" y="264.000000" font-family="Verdana" font-size="7" text-anchor="middle" fill="#000000">[1] y</text>
<circle cx="142.900000" cy="252.000000" r="1"/>
<rect x="199.150000" y="224.000000" width="24.000000" height="24.000000" rx="0" ry="0" style="stroke:#000000;fill:#FFFFFF;"/>
<text x="211.150000" y="238.000000" font-family="Verdana" font-size="7" text-anchor="middle" fill="#000000">*</text>
<circle cx="201.150000" cy="226.000000" r="1"/>
<line x1="196.150000" y1="231.000000" x2="199.150000" y2="232.000000"  transform="rotate(0.000000,199.150000,232.000000)" style="stroke: black; stroke-width:0.25;"/>
<line x1="196.150000" y1="233.000000" x2="199.150000" y2="232.000000"  transform="rotate(0.000000,199.150000,232.000000)" style="stroke: black; stroke-width:0.25;"/>
<line x1="196.150000" y1="239.000000" x2="199.150000" y2="240.000000"  transform="rotate(0.000000,199.150000,240.000000)" style="stroke: black; stroke-width:0.25;"/>
<line x1="196.150000" y1="241.000000" x2="199.150000" y2="240.000000"  transform="rotate(0.000000,199.150000,240.000000)" style="stroke: black; stroke-width:0.25;"/>
<rect x="267.800000" y="156.000000" width="24.000000" height="24.000000" rx="0" ry="0" style="stroke:#000000;fill:#FFFFFF;"/>
<text x="279.800000" y="170.000000" font-family="Verdana" font-size="7" text-anchor="middle" fill="#000000">+</text>
<circle cx="269.800000" cy="158.000000" r="1"/>
<line x1="264.800000" y1="163.000000" x2="267.800000" y2="164.000000"  transform="rotate(0.000000,267.800000,164.000000)" style="stroke: black; stroke-width:0.25;"/>
<line x1="264.800000" y1="165.000000" x2="267.800000" y2="164.000000"  transform="rotate(0.000000,267.800000,164.000000)" style="stroke: black; stroke-width:0.25;"/>
<line x1="264.800000" y1="171.000000" x2="267.800000" y2="172.000000"  transform="rotate(0.000000,267.800000,172.000000)" style="stroke: black; stroke-width:0.25;"/>
<line x1="264.800000" y1="173.000000" x2="267.800000" y2="172.000000"  transform="rotate(0.000000,267.800000,172.000000)" style="stroke: black; stroke-width:0.25;"/>
<line x1="53.000000" y1="53.000000" x2="53.000000" y2="283.000000"  style="stroke: black; stroke-linecap:round; stroke-width:0.25; stroke-dasharray:3,3;"/>
<line x1="53.000000" y1="283.000000" x2="300.800000" y2="283.000000"  style="stroke: black; stroke-linecap:round; stroke-width:0.25; stroke-dasharray:3,3;"/>
<line x1="300.800000" y1="283.000000" x2="300.800000" y2="53.000000"  style="stroke: black; stroke-linecap:round; stroke-width:0.25; stroke-dasharray:3,3;"/>
<line x1="53.000000" y1="53.000000" x2="58.000000" y2="53.000000"  style="stroke: black; stroke-linecap:round; stroke-width:0.25; stroke-dasharray:3,3;"/>
<line x1="99.925000" y1="53.000000" x2="300.800000" y2="53.000000"  style="stroke: black; stroke-linecap:round; stroke-width:0.25; stroke-dasharray:3,3;"/>
<text x="58.000000" y="55.000000" font-family="Verdana" font-size="7">Abstraction</text>
<line x1="303.800000" y1="168.000000" x2="303.800000" y2="164.000000"  style="stroke:black; stroke-linecap:round; stroke-width:0.25;"/>
<line x1="303.800000" y1="164.000000" x2="307.800000" y2="164.000000"  style="stroke:black; stroke-linecap:round; stroke-width:0.25;"/>
<line x1="307.800000" y1="164.000000" x2="307.800000" y2="168.000000"  style="stroke:black; stroke-linecap:round; stroke-width:0.25;"/>
<line x1="35.000000" y1="35.000000" x2="35.000000" y2="293.000000"  style="stroke: black; stroke-linecap:round; stroke-width:0.25; stroke-dasharray:3,3;"/>
<line x1="35.000000" y1="293.000000" x2="318.800000" y2="293.000000"  style="stroke: black; stroke-linecap:round; stroke-width:0.25; stroke-dasharray:3,3;"/>
<line x1="318.800000" y1="293.000000" x2="318.800000" y2="35.000000"  style="stroke: black; stroke-linecap:round; stroke-width:0.25; stroke-dasharray:3,3;"/>
<line x1="35.000000" y1="35.000000" x2="40.000000" y2="35.000000"  style="stroke: black; stroke-linecap:round; stroke-width:0.25; stroke-dasharray:3,3;"/>
<line x1="88.375000" y1="35.000000" x2="318.800000" y2="35.000000"  style="stroke: black; stroke-linecap:round; stroke-width:0.25; stroke-dasharray:3,3;"/>
<text x="40.000000" y="37.000000" font-family="Verdana" font-size="7">RECURSIVEBODY</text>
<line x1="25.000000" y1="25.000000" x2="25.000000" y2="303.000000"  style="stroke: black; stroke-linecap:round; stroke-width:0.25; stroke-dasharray:3,3;"/>
<line x1="25.000000" y1="303.000000" x2="336.800000" y2="303.000000"  style="stroke: black; stroke-linecap:round; stroke-width:0.25; stroke-dasharray:3,3;"/>
<line x1="336.800000" y1="303.000000" x2="336.800000" y2="25.000000"  style="stroke: black; stroke-linecap:round; stroke-width:0.25; stroke-dasharray:3,3;"/>
<line x1="25.000000" y1="25.000000" x2="30.000000" y2="25.000000"  style="stroke: black; stroke-linecap:round; stroke-width:0.25; stroke-dasharray:3,3;"/>
<line x1="39.675000" y1="25.000000" x2="336.800000" y2="25.000000"  style="stroke: black; stroke-linecap:round; stroke-width:0.25; stroke-dasharray:3,3;"/>
<text x="30.000000" y="27.000000" font-family="Verdana" font-size="7">y</text>
<rect x="345.800000" y="152.000000" width="24.000000" height="24.000000" rx="0" ry="0" style="stroke:#000000;fill:#FFFFFF;"/>
<text x="357.800000" y="166.000000" font-family="Verdana" font-size="7" text-anchor="middle" fill="#000000">sin</text>
<circle cx="347.800000" cy="154.000000" r="1"/>
<line x1="342.800000" y1="163.000000" x2="345.800000" y2="164.000000"  transform="rotate(0.000000,345.800000,164.000000)" style="stroke: black; stroke-width:0.25;"/>
<line x1="342.800000" y1="165.000000" x2="345.800000" y2="164.000000"  transform="rotate(0.000000,345.800000,164.000000)" style="stroke: black; stroke-width:0.25;"/>
<line x1="15.000000" y1="15.000000" x2="15.000000" y2="313.000000"  style="stroke: black; stroke-linecap:round; stroke-width:0.25; stroke-dasharray:3,3;"/>
<line x1="15.000000" y1="313.000000" x2="386.800000" y2="313.000000"  style="stroke: black; stroke-linecap:round; stroke-width:0.25; stroke-dasharray:3,3;"/>
<line x1="386.800000" y1="313.000000" x2="386.800000" y2="15.000000"  style="stroke: black; stroke-linecap:round; stroke-width:0.25; stroke-dasharray:3,3;"/>
<line x1="15.000000" y1="15.000000" x2="20.000000" y2="15.000000"  style="stroke: black; stroke-linecap:round; stroke-width:0.25; stroke-dasharray:3,3;"/>
<line x1="49.025000" y1="15.000000" x2="386.800000" y2="15.000000"  style="stroke: black; stroke-linecap:round; stroke-width:0.25; stroke-dasharray:3,3;"/>
<text x="20.000000" y="17.000000" font-family="Verdana" font-size="7">process</text>
<line x1="388.800000" y1="163.000000" x2="391.800000" y2="164.000000"  transform="rotate(0.000000,391.800000,164.000000)" style="stroke: black; stroke-width:0.25;"/>
<line x1="388.800000" y1="165.000000" x2="391.800000" y2="164.000000"  transform="rotate(0.000000,391.800000,164.000000)" style="stroke: black; stroke-width:0.25;"/>
<line x1="48.000000" y1="44.000000" x2="48.000000" y2="44.000000"  style="stroke:black; stroke-linecap:round; stroke-width:0.25;"/>
<line x1="48.000000" y1="44.000000" x2="48.000000" y2="168.000000"  style="stroke:black; stroke-linecap:round; stroke-width:0.25;"/>
<line x1="48.000000" y1="168.000000" x2="48.000000" y2="168.000000"  style="stroke:black; stroke-linecap:round; stroke-width:0.25;"/>
<line x1="48.000000" y1="168.000000" x2="58.000000" y2="168.000000"  style="stroke:black; stroke-linecap:round; stroke-width:0.25;"/>
<line x1="58.000000" y1="168.000000" x2="62.000000" y2="168.000000"  style="stroke:black; stroke-linecap:round; stroke-width:0.25;"/>
<line x1="129.800000" y1="116.000000" x2="133.800000" y2="116.000000"  style="stroke:black; stroke-linecap:round; stroke-width:0.25;"/>
<line x1="133.800000" y1="116.000000" x2="133.800000" y2="116.000000"  style="stroke:black; stroke-linecap:round; stroke-width:0.25;"/>
<line x1="133.800000" y1="116.000000" x2="137.800000" y2="116.000000"  style="stroke:black; stroke-linecap:round; stroke-width:0.25;"/>
<line x1="145.800000" y1="84.000000" x2="149.800000" y2="84.000000"  style="stroke:black; stroke-linecap:round; stroke-width:0.25;"/>
<line x1="149.800000" y1="84.000000" x2="165.800000" y2="84.000000"  style="stroke:black; stroke-linecap:round; stroke-width:0.25;"/>
<line x1="161.800000" y1="116.000000" x2="165.800000" y2="116.000000"  style="stroke:black; stroke-linecap:round; stroke-width:0.25;"/>
<line x1="165.800000" y1="84.000000" x2="173.800000" y2="84.000000"  style="stroke:black; stroke-linecap:round; stroke-width:0.25;"/>
<line x1="165.800000" y1="104.000000" x2="173.800000" y2="104.000000"  style="stroke:black; stroke-linecap:round; stroke-width:0.25;"/>
<line x1="165.800000" y1="116.000000" x2="165.800000" y2="104.000000"  style="stroke:black; stroke-linecap:round; stroke-width:0.25;"/>
<line x1="165.800000" y1="116.000000" x2="165.800000" y2="116.000000"  style="stroke:black; stroke-linecap:round; stroke-width:0.25;"/>
<line x1="166.700000" y1="168.000000" x2="170.700000" y2="168.000000"  style="stroke:black; stroke-linecap:round; stroke-width:0.25;"/>
<line x1="166.700000" y1="262.000000" x2="170.700000" y2="262.000000"  style="stroke:black; stroke-linecap:round; stroke-width:0.25;"/>
<line x1="170.700000" y1="168.000000" x2="180.700000" y2="168.000000"  style="stroke:black; stroke-linecap:round; stroke-width:0.25;"/>
<line x1="170.700000" y1="262.000000" x2="187.150000" y2="262.000000"  style="stroke:black; stroke-linecap:round; stroke-width:0.25;"/>
<line x1="173.150000" y1="220.000000" x2="177.150000" y2="220.000000"  style="stroke:black; stroke-linecap:round; stroke-width:0.25;"/>
<line x1="173.800000" y1="84.000000" x2="173.800000" y2="96.000000"  style="stroke:black; stroke-linecap:round; stroke-width:0.25;"/>
<line x1="173.800000" y1="96.000000" x2="173.800000" y2="96.000000"  style="stroke:black; stroke-linecap:round; stroke-width:0.25;"/>
<line x1="173.800000" y1="96.000000" x2="177.800000" y2="96.000000"  style="stroke:black; stroke-linecap:round; stroke-width:0.25;"/>
<line x1="173.800000" y1="104.000000" x2="177.800000" y2="104.000000"  style="stroke:black; stroke-linecap:round; stroke-width:0.25;"/>
<line x1="176.900000" y1="44.000000" x2="48.000000" y2="44.000000"  style="stroke:black; stroke-linecap:round; stroke-width:0.25;"/>
<line x1="177.150000" y1="220.000000" x2="187.150000" y2="220.000000"  style="stroke:black; stroke-linecap:round; stroke-width:0.25;"/>
<line x1="180.700000" y1="168.000000" x2="215.800000" y2="168.000000"  style="stroke:black; stroke-linecap:round; stroke-width:0.25;"/>
<line x1="187.150000" y1="220.000000" x2="195.150000" y2="220.000000"  style="stroke:black; stroke-linecap:round; stroke-width:0.25;"/>
<line x1="187.150000" y1="240.000000" x2="195.150000" y2="240.000000"  style="stroke:black; stroke-linecap:round; stroke-width:0.25;"/>
<line x1="187.150000" y1="262.000000" x2="187.150000" y2="240.000000"  style="stroke:black; stroke-linecap:round; stroke-width:0.25;"/>
<line x1="187.150000" y1="262.000000" x2="187.150000" y2="262.000000"  style="stroke:black; stroke-linecap:round; stroke-width:0.25;"/>
<line x1="195.150000" y1="220.000000" x2="195.150000" y2="232.000000"  style="stroke:black; stroke-linecap:round; stroke-width:0.25;"/>
<line x1="195.150000" y1="232.000000" x2="195.150000" y2="232.000000"  style="stroke:black; stroke-linecap:round; stroke-width:0.25;"/>
<line x1="195.150000" y1="232.000000" x2="199.150000" y2="232.000000"  style="stroke:black; stroke-linecap:round; stroke-width:0.25;"/>
<line x1="195.150000" y1="240.000000" x2="199.150000" y2="240.000000"  style="stroke:black; stroke-linecap:round; stroke-width:0.25;"/>
<line x1="201.800000" y1="100.000000" x2="205.800000" y2="100.000000"  style="stroke:black; stroke-linecap:round; stroke-width:0.25;"/>
<line x1="205.800000" y1="100.000000" x2="215.800000" y2="100.000000"  style="stroke:black; stroke-linecap:round; stroke-width:0.25;"/>
<line x1="215.800000" y1="130.000000" x2="223.800000" y2="130.000000"  style="stroke:black; stroke-linecap:round; stroke-width:0.25;"/>
<line x1="215.800000" y1="168.000000" x2="215.800000" y2="130.000000"  style="stroke:black; stroke-linecap:round; stroke-width:0.25;"/>
<line x1="215.800000" y1="168.000000" x2="215.800000" y2="168.000000"  style="stroke:black; stroke-linecap:round; stroke-width:0.25;"/>
<line x1="215.800000" y1="100.000000" x2="223.800000" y2="100.000000"  style="stroke:black; stroke-linecap:round; stroke-width:0.25;"/>
<line x1="223.150000" y1="236.000000" x2="227.150000" y2="236.000000"  style="stroke:black; stroke-linecap:round; stroke-width:0.25;"/>
<line x1="223.800000" y1="100.000000" x2="223.800000" y2="122.000000"  style="stroke:black; stroke-linecap:round; stroke-width:0.25;"/>
<line x1="223.800000" y1="122.000000" x2="223.800000" y2="122.000000"  style="stroke:black; stroke-linecap:round; stroke-width:0.25;"/>
<line x1="223.800000" y1="122.000000" x2="227.800000" y2="122.000000"  style="stroke:black; stroke-linecap:round; stroke-width:0.25;"/>
<line x1="223.800000" y1="130.000000" x2="227.800000" y2="130.000000"  style="stroke:black; stroke-linecap:round; stroke-width:0.25;"/>
<line x1="227.150000" y1="236.000000" x2="255.800000" y2="236.000000"  style="stroke:black; stroke-linecap:round; stroke-width:0.25;"/>
<line x1="251.800000" y1="126.000000" x2="255.800000" y2="126.000000"  style="stroke:black; stroke-linecap:round; stroke-width:0.25;"/>
<line x1="255.800000" y1="172.000000" x2="263.800000" y2="172.000000"  style="stroke:black; stroke-linecap:round; stroke-width:0.25;"/>
<line x1="255.800000" y1="236.000000" x2="255.800000" y2="172.000000"  style="stroke:black; stroke-linecap:round; stroke-width:0.25;"/>
<line x1="255.800000" y1="236.000000" x2="255.800000" y2="236.000000"  style="stroke:black; stroke-linecap:round; stroke-width:0.25;"/>
<line x1="255.800000" y1="126.000000" x2="263.800000" y2="126.000000"  style="stroke:black; stroke-linecap:round; stroke-width:0.25;"/>
<line x1="263.800000" y1="126.000000" x2="263.800000" y2="164.000000"  style="stroke:black; stroke-linecap:round; stroke-width:0.25;"/>
<line x1="263.800000" y1="164.000000" x2="263.800000" y2="164.000000"  style="stroke:black; stroke-linecap:round; stroke-width:0.25;"/>
<line x1="263.800000" y1="164.000000" x2="267.800000" y2="164.000000"  style="stroke:black; stroke-linecap:round; stroke-width:0.25;"/>
<line x1="263.800000" y1="172.000000" x2="267.800000" y2="172.000000"  style="stroke:black; stroke-linecap:round; stroke-width:0.25;"/>
<line x1="291.800000" y1="168.000000" x2="295.800000" y2="168.000000"  style="stroke:black; stroke-linecap:round; stroke-width:0.25;"/>
<line x1="295.800000" y1="168.000000" x2="305.800000" y2="168.000000"  style="stroke:black; stroke-linecap:round; stroke-width:0.25;"/>
<line x1="305.800000" y1="44.000000" x2="176.900000" y2="44.000000"  style="stroke:black; stroke-linecap:round; stroke-width:0.25;"/>
<line x1="305.800000" y1="44.000000" x2="305.800000" y2="44.000000"  style="stroke:black; stroke-linecap:round; stroke-width:0.25;"/>
<line x1="305.800000" y1="164.000000" x2="305.800000" y2="44.000000"  style="stroke:black; stroke-linecap:round; stroke-width:0.25;"/>
<line x1="305.800000" y1="168.000000" x2="307.800000" y2="168.000000"  style="stroke:black; stroke-linecap:round; stroke-width:0.25;"/>
<line x1="307.800000" y1="168.000000" x2="313.800000" y2="168.000000"  style="stroke:black; stroke-linecap:round; stroke-width:0.25;"/>
<line x1="313.800000" y1="168.000000" x2="323.800000" y2="168.000000"  style="stroke:black; stroke-linecap:round; stroke-width:0.25;"/>
<line x1="323.800000" y1="164.000000" x2="331.800000" y2="164.000000"  style="stroke:black; stroke-linecap:round; stroke-width:0.25;"/>
<line x1="323.800000" y1="168.000000" x2="323.800000" y2="164.000000"  style="stroke:black; stroke-linecap:round; stroke-width:0.25;"/>
<line x1="323.800000" y1="168.000000" x2="323.800000" y2="168.000000"  style="stroke:black; stroke-linecap:round; stroke-width:0.25;"/>
<line x1="331.800000" y1="164.000000" x2="341.800000" y2="164.000000"  style="stroke:black; stroke-linecap:round; stroke-width:0.25;"/>
<line x1="341.800000" y1="164.000000" x2="341.800000" y2="164.000000"  style="stroke:black; stroke-linecap:round; stroke-width:0.25;"/>
<line x1="341.800000" y1="164.000000" x2="345.800000" y2="164.000000"  style="stroke:black; stroke-linecap:round; stroke-width:0.25;"/>
<line x1="369.800000" y1="164.000000" x2="373.800000" y2="164.000000"  style="stroke:black; stroke-linecap:round; stroke-width:0.25;"/>
<line x1="373.800000" y1="164.000000" x2="373.800000" y2="164.000000"  style="stroke:black; stroke-linecap:round; stroke-width:0.25;"/>
<line x1="373.800000" y1="164.000000" x2="377.800000" y2="164.000000"  style="stroke:black; stroke-linecap:round; stroke-width:0.25;"/>
<line x1="377.800000" y1="164.000000" x2="381.800000" y2="164.000000"  style="stroke:black; stroke-linecap:round; stroke-width:0.25;"/>
<line x1="381.800000" y1="164.000000" x2="391.800000" y2="164.000000"  style="stroke:black; stroke-linecap:round; stroke-width:0.25;"/>
</svg>
