<?xml version="1.0"?>
<svg xmlns="http://www.w3.org/2000/svg" xmlns:xlink="http://www.w3.org/1999/xlink" viewBox="0 0 317.600000 120.000000" width="158.800000mm" height="60.000000mm" version="1.1">
<a xlink:href="process.svg">
<rect x="0.000000" y="0.000000" width="316.600000" height="119.000000" rx="0" ry="0" style="stroke:#000000;fill:#FFFFFF;"/>
</a>
<text x="10.000000" y="7.000000" font-family="Verdana" font-size="7"></text>
<rect x="48.000000" y="28.000000" width="25.800000" height="24.000000" rx="0" ry="0" style="stroke:#000000;fill:#FFFFFF;"/>
<text x="60.900000" y="42.000000" font-family="Verdana" font-size="7" text-anchor="middle" fill="#000000">[1] t</text>
<circle cx="50.000000" cy="30.000000" r="1"/>
<line x1="45.000000" y1="39.000000" x2="48.000000" y2="40.000000"  transform="rotate(0.000000,48.000000,40.000000)" style="stroke: black; stroke-width:0.25;"/>
<line x1="45.000000" y1="41.000000" x2="48.000000" y2="40.000000"  transform="rotate(0.000000,48.000000,40.000000)" style="stroke: black; stroke-width:0.25;"/>
<rect x="48.000000" y="60.000000" width="25.800000" height="24.000000" rx="0" ry="0" style="stroke:#000000;fill:#FFFFFF;"/>
<text x="60.900000" y="74.000000" font-family="Verdana" font-size="7" text-anchor="middle" fill="#000000">[2] g</text>
<circle cx="50.000000" cy="62.000000" r="1"/>
<line x1="45.000000" y1="71.000000" x2="48.000000" y2="72.000000"  transform="rotate(0.000000,48.000000,72.000000)" style="stroke: black; stroke-width:0.25;"/>
<line x1="45.000000" y1="73.000000" x2="48.000000" y2="72.000000"  transform="rotate(0.000000,48.000000,72.000000)" style="stroke: black; stroke-width:0.25;"/>
<rect x="119.800000" y="32.000000" width="25.800000" height="24.000000" rx="0" ry="0" style="stroke:#000000;fill:#FFFFFF;"/>
<text x="132.700000" y="46.000000" font-family="Verdana" font-size="7" text-anchor="middle" fill="#000000">[1] t</text>
<circle cx="121.800000" cy="34.000000" r="1"/>
<rect x="161.600000" y="28.000000" width="24.000000" height="24.000000" rx="0" ry="0" style="stroke:#000000;fill:#FFFFFF;"/>
<text x="173.600000" y="42.000000" font-family="Verdana" font-size="7" text-anchor="middle" fill="#000000">@</text>
<circle cx="163.600000" cy="30.000000" r="1"/>
<line x1="158.600000" y1="35.000000" x2="161.600000" y2="36.000000"  transform="rotate(0.000000,161.600000,36.000000)" style="stroke: black; stroke-width:0.25;"/>
<line x1="158.600000" y1="37.000000" x2="161.600000" y2="36.000000"  transform="rotate(0.000000,161.600000,36.000000)" style="stroke: black; stroke-width:0.25;"/>
<line x1="158.600000" y1="43.000000" x2="161.600000" y2="44.000000"  transform="rotate(0.000000,161.600000,44.000000)" style="stroke: black; stroke-width:0.25;"/>
<line x1="158.600000" y1="45.000000" x2="161.600000" y2="44.000000"  transform="rotate(0.000000,161.600000,44.000000)" style="stroke: black; stroke-width:0.25;"/>
<rect x="139.800000" y="64.000000" width="25.800000" height="24.000000" rx="0" ry="0" style="stroke:#000000;fill:#FFFFFF;"/>
<text x="152.700000" y="78.000000" font-family="Verdana" font-size="7" text-anchor="middle" fill="#000000">[2] g</text>
<circle cx="141.800000" cy="66.000000" r="1"/>
<rect x="201.600000" y="44.000000" width="24.000000" height="24.000000" rx="0" ry="0" style="stroke:#000000;fill:#FFFFFF;"/>
<text x="213.600000" y="58.000000" font-family="Verdana" font-size="7" text-anchor="middle" fill="#000000">*</text>
<circle cx="203.600000" cy="46.000000" r="1"/>
<line x1="198.600000" y1="51.000000" x2="201.600000" y2="52.000000"  transform="rotate(0.000000,201.600000,52.000000)" style="stroke: black; stroke-width:0.25;"/>
<line x1="198.600000" y1="53.000000" x2="201.600000" y2="52.000000"  transform="rotate(0.000000,201.600000,52.000000)" style="stroke: black; stroke-width:0.25;"/>
<line x1="198.600000" y1="59.000000" x2="201.600000" y2="60.000000"  transform="rotate(0.000000,201.600000,60.000000)" style="stroke: black; stroke-width:0.25;"/>
<line x1="198.600000" y1="61.000000" x2="201.600000" y2="60.000000"  transform="rotate(0.000000,201.600000,60.000000)" style="stroke: black; stroke-width:0.25;"/>
<rect x="261.600000" y="48.000000" width="24.000000" height="24.000000" rx="0" ry="0" style="stroke:#000000;fill:#FFFFFF;"/>
<text x="273.600000" y="62.000000" font-family="Verdana" font-size="7" text-anchor="middle" fill="#000000">+</text>
<circle cx="263.600000" cy="50.000000" r="1"/>
<line x1="258.600000" y1="55.000000" x2="261.600000" y2="56.000000"  transform="rotate(0.000000,261.600000,56.000000)" style="stroke: black; stroke-width:0.25;"/>
<line x1="258.600000" y1="57.000000" x2="261.600000" y2="56.000000"  transform="rotate(0.000000,261.600000,56.000000)" style="stroke: black; stroke-width:0.25;"/>
<line x1="258.600000" y1="63.000000" x2="261.600000" y2="64.000000"  transform="rotate(0.000000,261.600000,64.000000)" style="stroke: black; stroke-width:0.25;"/>
<line x1="258.600000" y1="65.000000" x2="261.600000" y2="64.000000"  transform="rotate(0.000000,261.600000,64.000000)" style="stroke: black; stroke-width:0.25;"/>
<line x1="15.000000" y1="15.000000" x2="15.000000" y2="105.000000"  style="stroke: black; stroke-linecap:round; stroke-width:0.25; stroke-dasharray:3,3;"/>
<line x1="15.000000" y1="105.000000" x2="302.600000" y2="105.000000"  style="stroke: black; stroke-linecap:round; stroke-width:0.25; stroke-dasharray:3,3;"/>
<line x1="302.600000" y1="105.000000" x2="302.600000" y2="15.000000"  style="stroke: black; stroke-linecap:round; stroke-width:0.25; stroke-dasharray:3,3;"/>
<line x1="15.000000" y1="15.000000" x2="20.000000" y2="15.000000"  style="stroke: black; stroke-linecap:round; stroke-width:0.25; stroke-dasharray:3,3;"/>
<line x1="39.350000" y1="15.000000" x2="302.600000" y2="15.000000"  style="stroke: black; stroke-linecap:round; stroke-width:0.25; stroke-dasharray:3,3;"/>
<text x="20.000000" y="17.000000" font-family="Verdana" font-size="7">ffcf</text>
<line x1="304.600000" y1="59.000000" x2="307.600000" y2="60.000000"  transform="rotate(0.000000,307.600000,60.000000)" style="stroke: black; stroke-width:0.25;"/>
<line x1="304.600000" y1="61.000000" x2="307.600000" y2="60.000000"  transform="rotate(0.000000,307.600000,60.000000)" style="stroke: black; stroke-width:0.25;"/>
<line x1="10.000000" y1="52.000000" x2="20.000000" y2="52.000000"  style="stroke:black; stroke-linecap:round; stroke-width:0.25;"/>
<line x1="10.000000" y1="60.000000" x2="20.000000" y2="60.000000"  style="stroke:black; stroke-linecap:round; stroke-width:0.25;"/>
<line x1="10.000000" y1="68.000000" x2="20.000000" y2="68.000000"  style="stroke:black; stroke-linecap:round; stroke-width:0.25;"/>
<line x1="20.000000" y1="52.000000" x2="24.000000" y2="52.000000"  style="stroke:black; stroke-linecap:round; stroke-width:0.25;"/>
<line x1="20.000000" y1="60.000000" x2="24.000000" y2="60.000000"  style="stroke:black; stroke-linecap:round; stroke-width:0.25;"/>
<line x1="20.000000" y1="68.000000" x2="24.000000" y2="68.000000"  style="stroke:black; stroke-linecap:round; stroke-width:0.25;"/>
<line x1="24.000000" y1="52.000000" x2="28.000000" y2="52.000000"  style="stroke:black; stroke-linecap:round; stroke-width:0.25;"/>
<line x1="24.000000" y1="60.000000" x2="28.000000" y2="60.000000"  style="stroke:black; stroke-linecap:round; stroke-width:0.25;"/>
<line x1="24.000000" y1="68.000000" x2="28.000000" y2="68.000000"  style="stroke:black; stroke-linecap:round; stroke-width:0.25;"/>
<line x1="28.000000" y1="40.000000" x2="44.000000" y2="40.000000"  style="stroke:black; stroke-linecap:round; stroke-width:0.25;"/>
<line x1="28.000000" y1="52.000000" x2="28.000000" y2="40.000000"  style="stroke:black; stroke-linecap:round; stroke-width:0.25;"/>
<line x1="28.000000" y1="52.000000" x2="28.000000" y2="52.000000"  style="stroke:black; stroke-linecap:round; stroke-width:0.25;"/>
<line x1="28.000000" y1="60.000000" x2="44.000000" y2="60.000000"  style="stroke:black; stroke-linecap:round; stroke-width:0.25;"/>
<line x1="28.000000" y1="68.000000" x2="36.000000" y2="68.000000"  style="stroke:black; stroke-linecap:round; stroke-width:0.25;"/>
<line x1="36.000000" y1="68.000000" x2="36.000000" y2="92.000000"  style="stroke:black; stroke-linecap:round; stroke-width:0.25;"/>
<line x1="36.000000" y1="92.000000" x2="44.000000" y2="92.000000"  style="stroke:black; stroke-linecap:round; stroke-width:0.25;"/>
<line x1="44.000000" y1="40.000000" x2="48.000000" y2="40.000000"  style="stroke:black; stroke-linecap:round; stroke-width:0.25;"/>
<line x1="44.000000" y1="60.000000" x2="44.000000" y2="72.000000"  style="stroke:black; stroke-linecap:round; stroke-width:0.25;"/>
<line x1="44.000000" y1="72.000000" x2="44.000000" y2="72.000000"  style="stroke:black; stroke-linecap:round; stroke-width:0.25;"/>
<line x1="44.000000" y1="72.000000" x2="48.000000" y2="72.000000"  style="stroke:black; stroke-linecap:round; stroke-width:0.25;"/>
<line x1="44.000000" y1="92.000000" x2="60.900000" y2="92.000000"  style="stroke:black; stroke-linecap:round; stroke-width:0.25;"/>
<line x1="60.900000" y1="92.000000" x2="77.800000" y2="92.000000"  style="stroke:black; stroke-linecap:round; stroke-width:0.25;"/>
<line x1="77.800000" y1="60.000000" x2="85.800000" y2="60.000000"  style="stroke:black; stroke-linecap:round; stroke-width:0.25;"/>
<line x1="77.800000" y1="92.000000" x2="77.800000" y2="60.000000"  style="stroke:black; stroke-linecap:round; stroke-width:0.25;"/>
<line x1="77.800000" y1="92.000000" x2="77.800000" y2="92.000000"  style="stroke:black; stroke-linecap:round; stroke-width:0.25;"/>
<line x1="85.800000" y1="60.000000" x2="89.800000" y2="60.000000"  style="stroke:black; stroke-linecap:round; stroke-width:0.25;"/>
<line x1="89.800000" y1="60.000000" x2="93.800000" y2="60.000000"  style="stroke:black; stroke-linecap:round; stroke-width:0.25;"/>
<line x1="93.800000" y1="60.000000" x2="115.800000" y2="24.000000"  style="stroke:black; stroke-linecap:round; stroke-width:0.25;"/>
<line x1="93.800000" y1="60.000000" x2="115.800000" y2="96.000000"  style="stroke:black; stroke-linecap:round; stroke-width:0.25;"/>
<line x1="115.800000" y1="24.000000" x2="132.700000" y2="24.000000"  style="stroke:black; stroke-linecap:round; stroke-width:0.25;"/>
<line x1="115.800000" y1="96.000000" x2="172.700000" y2="96.000000"  style="stroke:black; stroke-linecap:round; stroke-width:0.25;"/>
<line x1="132.700000" y1="24.000000" x2="149.600000" y2="24.000000"  style="stroke:black; stroke-linecap:round; stroke-width:0.25;"/>
<line x1="145.600000" y1="44.000000" x2="149.600000" y2="44.000000"  style="stroke:black; stroke-linecap:round; stroke-width:0.25;"/>
<line x1="149.600000" y1="24.000000" x2="157.600000" y2="24.000000"  style="stroke:black; stroke-linecap:round; stroke-width:0.25;"/>
<line x1="149.600000" y1="44.000000" x2="157.600000" y2="44.000000"  style="stroke:black; stroke-linecap:round; stroke-width:0.25;"/>
<line x1="157.600000" y1="24.000000" x2="157.600000" y2="36.000000"  style="stroke:black; stroke-linecap:round; stroke-width:0.25;"/>
<line x1="157.600000" y1="36.000000" x2="157.600000" y2="36.000000"  style="stroke:black; stroke-linecap:round; stroke-width:0.25;"/>
<line x1="157.600000" y1="36.000000" x2="161.600000" y2="36.000000"  style="stroke:black; stroke-linecap:round; stroke-width:0.25;"/>
<line x1="157.600000" y1="44.000000" x2="161.600000" y2="44.000000"  style="stroke:black; stroke-linecap:round; stroke-width:0.25;"/>
<line x1="165.600000" y1="76.000000" x2="169.600000" y2="76.000000"  style="stroke:black; stroke-linecap:round; stroke-width:0.25;"/>
<line x1="169.600000" y1="76.000000" x2="189.600000" y2="76.000000"  style="stroke:black; stroke-linecap:round; stroke-width:0.25;"/>
<line x1="172.700000" y1="96.000000" x2="229.600000" y2="96.000000"  style="stroke:black; stroke-linecap:round; stroke-width:0.25;"/>
<line x1="185.600000" y1="40.000000" x2="189.600000" y2="40.000000"  style="stroke:black; stroke-linecap:round; stroke-width:0.25;"/>
<line x1="189.600000" y1="40.000000" x2="197.600000" y2="40.000000"  style="stroke:black; stroke-linecap:round; stroke-width:0.25;"/>
<line x1="189.600000" y1="60.000000" x2="197.600000" y2="60.000000"  style="stroke:black; stroke-linecap:round; stroke-width:0.25;"/>
<line x1="189.600000" y1="76.000000" x2="189.600000" y2="60.000000"  style="stroke:black; stroke-linecap:round; stroke-width:0.25;"/>
<line x1="189.600000" y1="76.000000" x2="189.600000" y2="76.000000"  style="stroke:black; stroke-linecap:round; stroke-width:0.25;"/>
<line x1="197.600000" y1="40.000000" x2="197.600000" y2="52.000000"  style="stroke:black; stroke-linecap:round; stroke-width:0.25;"/>
<line x1="197.600000" y1="52.000000" x2="197.600000" y2="52.000000"  style="stroke:black; stroke-linecap:round; stroke-width:0.25;"/>
<line x1="197.600000" y1="52.000000" x2="201.600000" y2="52.000000"  style="stroke:black; stroke-linecap:round; stroke-width:0.25;"/>
<line x1="197.600000" y1="60.000000" x2="201.600000" y2="60.000000"  style="stroke:black; stroke-linecap:round; stroke-width:0.25;"/>
<line x1="225.600000" y1="56.000000" x2="229.600000" y2="56.000000"  style="stroke:black; stroke-linecap:round; stroke-width:0.25;"/>
<line x1="229.600000" y1="56.000000" x2="257.600000" y2="56.000000"  style="stroke:black; stroke-linecap:round; stroke-width:0.25;"/>
<line x1="229.600000" y1="96.000000" x2="257.600000" y2="64.000000"  style="stroke:black; stroke-linecap:round; stroke-width:0.25;"/>
<line x1="257.600000" y1="56.000000" x2="261.600000" y2="56.000000"  style="stroke:black; stroke-linecap:round; stroke-width:0.25;"/>
<line x1="257.600000" y1="64.000000" x2="261.600000" y2="64.000000"  style="stroke:black; stroke-linecap:round; stroke-width:0.25;"/>
<line x1="285.600000" y1="60.000000" x2="289.600000" y2="60.000000"  style="stroke:black; stroke-linecap:round; stroke-width:0.25;"/>
<line x1="289.600000" y1="60.000000" x2="289.600000" y2="60.000000"  style="stroke:black; stroke-linecap:round; stroke-width:0.25;"/>
<line x1="289.600000" y1="60.000000" x2="293.600000" y2="60.000000"  style="stroke:black; stroke-linecap:round; stroke-width:0.25;"/>
<line x1="293.600000" y1="60.000000" x2="297.600000" y2="60.000000"  style="stroke:black; stroke-linecap:round; stroke-width:0.25;"/>
<line x1="297.600000" y1="60.000000" x2="307.600000" y2="60.000000"  style="stroke:black; stroke-linecap:round; stroke-width:0.25;"/>
</svg>
