<?xml version="1.0"?>
<svg xmlns="http://www.w3.org/2000/svg" xmlns:xlink="http://www.w3.org/1999/xlink" viewBox="0 0 291.600000 200.000000" width="145.800000mm" height="100.000000mm" version="1.1">
<a xlink:href="process.svg">
<rect x="0.000000" y="0.000000" width="290.600000" height="199.000000" rx="0" ry="0" style="stroke:#000000;fill:#FFFFFF;"/>
</a>
<text x="10.000000" y="7.000000" font-family="Verdana" font-size="7"></text>
<rect x="48.000000" y="52.000000" width="25.800000" height="24.000000" rx="0" ry="0" style="stroke:#000000;fill:#FFFFFF;"/>
<text x="60.900000" y="66.000000" font-family="Verdana" font-size="7" text-anchor="middle" fill="#000000">[1] t</text>
<circle cx="50.000000" cy="54.000000" r="1"/>
<line x1="45.000000" y1="63.000000" x2="48.000000" y2="64.000000"  transform="rotate(0.000000,48.000000,64.000000)" style="stroke: black; stroke-width:0.25;"/>
<line x1="45.000000" y1="65.000000" x2="48.000000" y2="64.000000"  transform="rotate(0.000000,48.000000,64.000000)" style="stroke: black; stroke-width:0.25;"/>
<rect x="48.000000" y="84.000000" width="25.800000" height="24.000000" rx="0" ry="0" style="stroke:#000000;fill:#FFFFFF;"/>
<text x="60.900000" y="98.000000" font-family="Verdana" font-size="7" text-anchor="middle" fill="#000000">[2] g</text>
<circle cx="50.000000" cy="86.000000" r="1"/>
<line x1="45.000000" y1="95.000000" x2="48.000000" y2="96.000000"  transform="rotate(0.000000,48.000000,96.000000)" style="stroke: black; stroke-width:0.25;"/>
<line x1="45.000000" y1="97.000000" x2="48.000000" y2="96.000000"  transform="rotate(0.000000,48.000000,96.000000)" style="stroke: black; stroke-width:0.25;"/>
<rect x="48.000000" y="116.000000" width="25.800000" height="24.000000" rx="0" ry="0" style="stroke:#000000;fill:#FFFFFF;"/>
<text x="60.900000" y="130.000000" font-family="Verdana" font-size="7" text-anchor="middle" fill="#000000">[3] fc</text>
<circle cx="50.000000" cy="118.000000" r="1"/>
<line x1="45.000000" y1="127.000000" x2="48.000000" y2="128.000000"  transform="rotate(0.000000,48.000000,128.000000)" style="stroke: black; stroke-width:0.25;"/>
<line x1="45.000000" y1="129.000000" x2="48.000000" y2="128.000000"  transform="rotate(0.000000,48.000000,128.000000)" style="stroke: black; stroke-width:0.25;"/>
<rect x="126.700000" y="88.000000" width="24.000000" height="24.000000" rx="0" ry="0" style="stroke:#000000;fill:#FFFFFF;"/>
<text x="138.700000" y="102.000000" font-family="Verdana" font-size="7" text-anchor="middle" fill="#000000">+</text>
<circle cx="128.700000" cy="90.000000" r="1"/>
<line x1="123.700000" y1="95.000000" x2="126.700000" y2="96.000000"  transform="rotate(0.000000,126.700000,96.000000)" style="stroke: black; stroke-width:0.25;"/>
<line x1="123.700000" y1="97.000000" x2="126.700000" y2="96.000000"  transform="rotate(0.000000,126.700000,96.000000)" style="stroke: black; stroke-width:0.25;"/>
<line x1="123.700000" y1="103.000000" x2="126.700000" y2="104.000000"  transform="rotate(0.000000,126.700000,104.000000)" style="stroke: black; stroke-width:0.25;"/>
<line x1="123.700000" y1="105.000000" x2="126.700000" y2="104.000000"  transform="rotate(0.000000,126.700000,104.000000)" style="stroke: black; stroke-width:0.25;"/>
<rect x="105.800000" y="120.000000" width="25.800000" height="24.000000" rx="0" ry="0" style="stroke:#000000;fill:#FFFFFF;"/>
<text x="118.700000" y="134.000000" font-family="Verdana" font-size="7" text-anchor="middle" fill="#000000">[1] t</text>
<circle cx="107.800000" cy="122.000000" r="1"/>
<rect x="106.700000" y="152.000000" width="24.000000" height="24.000000" rx="0" ry="0" style="stroke:#000000;fill:#FFFFFF;"/>
<text x="118.700000" y="166.000000" font-family="Verdana" font-size="7" text-anchor="middle" fill="#000000">1</text>
<circle cx="108.700000" cy="154.000000" r="1"/>
<rect x="147.600000" y="136.000000" width="24.000000" height="24.000000" rx="0" ry="0" style="stroke:#000000;fill:#FFFFFF;"/>
<text x="159.600000" y="150.000000" font-family="Verdana" font-size="7" text-anchor="middle" fill="#000000">-</text>
<circle cx="149.600000" cy="138.000000" r="1"/>
<line x1="144.600000" y1="143.000000" x2="147.600000" y2="144.000000"  transform="rotate(0.000000,147.600000,144.000000)" style="stroke: black; stroke-width:0.25;"/>
<line x1="144.600000" y1="145.000000" x2="147.600000" y2="144.000000"  transform="rotate(0.000000,147.600000,144.000000)" style="stroke: black; stroke-width:0.25;"/>
<line x1="144.600000" y1="151.000000" x2="147.600000" y2="152.000000"  transform="rotate(0.000000,147.600000,152.000000)" style="stroke: black; stroke-width:0.25;"/>
<line x1="144.600000" y1="153.000000" x2="147.600000" y2="152.000000"  transform="rotate(0.000000,147.600000,152.000000)" style="stroke: black; stroke-width:0.25;"/>
<rect x="187.600000" y="120.000000" width="24.000000" height="24.000000" rx="0" ry="0" style="stroke:#000000;fill:#FFFFFF;"/>
<text x="199.600000" y="134.000000" font-family="Verdana" font-size="7" text-anchor="middle" fill="#000000">@</text>
<circle cx="189.600000" cy="122.000000" r="1"/>
<line x1="184.600000" y1="127.000000" x2="187.600000" y2="128.000000"  transform="rotate(0.000000,187.600000,128.000000)" style="stroke: black; stroke-width:0.25;"/>
<line x1="184.600000" y1="129.000000" x2="187.600000" y2="128.000000"  transform="rotate(0.000000,187.600000,128.000000)" style="stroke: black; stroke-width:0.25;"/>
<line x1="184.600000" y1="135.000000" x2="187.600000" y2="136.000000"  transform="rotate(0.000000,187.600000,136.000000)" style="stroke: black; stroke-width:0.25;"/>
<line x1="184.600000" y1="137.000000" x2="187.600000" y2="136.000000"  transform="rotate(0.000000,187.600000,136.000000)" style="stroke: black; stroke-width:0.25;"/>
<a xlink:href="lp1p-0x7ffab811e690.svg">
<rect x="159.350000" y="56.000000" width="38.700000" height="24.000000" rx="0" ry="0" style="stroke:#000000;fill:#FFFFFF;"/>
</a>
<a xlink:href="lp1p-0x7ffab811e690.svg">
<text x="178.700000" y="70.000000" font-family="Verdana" font-size="7" text-anchor="middle" fill="#000000">lp1p(x3)</text>
</a>
<circle cx="196.050000" cy="78.000000" r="1"/>
<line x1="201.050000" y1="67.000000" x2="198.050000" y2="68.000000"  transform="rotate(0.000000,198.050000,68.000000)" style="stroke: black; stroke-width:0.25;"/>
<line x1="201.050000" y1="69.000000" x2="198.050000" y2="68.000000"  transform="rotate(0.000000,198.050000,68.000000)" style="stroke: black; stroke-width:0.25;"/>
<rect x="165.800000" y="24.000000" width="25.800000" height="24.000000" rx="0" ry="0" style="stroke:#000000;fill:#FFFFFF;"/>
<text x="178.700000" y="38.000000" font-family="Verdana" font-size="7" text-anchor="middle" fill="#000000">[2] g</text>
<circle cx="189.600000" cy="46.000000" r="1"/>
<rect x="119.350000" y="40.000000" width="24.000000" height="24.000000" rx="0" ry="0" style="stroke:#000000;fill:#FFFFFF;"/>
<text x="131.350000" y="54.000000" font-family="Verdana" font-size="7" text-anchor="middle" fill="#000000">*</text>
<circle cx="141.350000" cy="62.000000" r="1"/>
<line x1="146.350000" y1="55.000000" x2="143.350000" y2="56.000000"  transform="rotate(0.000000,143.350000,56.000000)" style="stroke: black; stroke-width:0.25;"/>
<line x1="146.350000" y1="57.000000" x2="143.350000" y2="56.000000"  transform="rotate(0.000000,143.350000,56.000000)" style="stroke: black; stroke-width:0.25;"/>
<line x1="146.350000" y1="47.000000" x2="143.350000" y2="48.000000"  transform="rotate(0.000000,143.350000,48.000000)" style="stroke: black; stroke-width:0.25;"/>
<line x1="146.350000" y1="49.000000" x2="143.350000" y2="48.000000"  transform="rotate(0.000000,143.350000,48.000000)" style="stroke: black; stroke-width:0.25;"/>
<line x1="213.600000" y1="132.000000" x2="213.600000" y2="128.000000"  style="stroke:black; stroke-linecap:round; stroke-width:0.25;"/>
<line x1="213.600000" y1="128.000000" x2="217.600000" y2="128.000000"  style="stroke:black; stroke-linecap:round; stroke-width:0.25;"/>
<line x1="217.600000" y1="128.000000" x2="217.600000" y2="132.000000"  style="stroke:black; stroke-linecap:round; stroke-width:0.25;"/>
<rect x="235.600000" y="88.000000" width="24.000000" height="24.000000" rx="0" ry="0" style="stroke:#000000;fill:#FFFFFF;"/>
<text x="247.600000" y="102.000000" font-family="Verdana" font-size="7" text-anchor="middle" fill="#000000">mem</text>
<circle cx="237.600000" cy="90.000000" r="1"/>
<line x1="232.600000" y1="99.000000" x2="235.600000" y2="100.000000"  transform="rotate(0.000000,235.600000,100.000000)" style="stroke: black; stroke-width:0.25;"/>
<line x1="232.600000" y1="101.000000" x2="235.600000" y2="100.000000"  transform="rotate(0.000000,235.600000,100.000000)" style="stroke: black; stroke-width:0.25;"/>
<line x1="15.000000" y1="15.000000" x2="15.000000" y2="185.000000"  style="stroke: black; stroke-linecap:round; stroke-width:0.25; stroke-dasharray:3,3;"/>
<line x1="15.000000" y1="185.000000" x2="276.600000" y2="185.000000"  style="stroke: black; stroke-linecap:round; stroke-width:0.25; stroke-dasharray:3,3;"/>
<line x1="276.600000" y1="185.000000" x2="276.600000" y2="15.000000"  style="stroke: black; stroke-linecap:round; stroke-width:0.25; stroke-dasharray:3,3;"/>
<line x1="15.000000" y1="15.000000" x2="20.000000" y2="15.000000"  style="stroke: black; stroke-linecap:round; stroke-width:0.25; stroke-dasharray:3,3;"/>
<line x1="39.350000" y1="15.000000" x2="276.600000" y2="15.000000"  style="stroke: black; stroke-linecap:round; stroke-width:0.25; stroke-dasharray:3,3;"/>
<text x="20.000000" y="17.000000" font-family="Verdana" font-size="7">lbcf</text>
<line x1="278.600000" y1="99.000000" x2="281.600000" y2="100.000000"  transform="rotate(0.000000,281.600000,100.000000)" style="stroke: black; stroke-width:0.25;"/>
<line x1="278.600000" y1="101.000000" x2="281.600000" y2="100.000000"  transform="rotate(0.000000,281.600000,100.000000)" style="stroke: black; stroke-width:0.25;"/>
<line x1="10.000000" y1="88.000000" x2="20.000000" y2="88.000000"  style="stroke:black; stroke-linecap:round; stroke-width:0.25;"/>
<line x1="10.000000" y1="96.000000" x2="20.000000" y2="96.000000"  style="stroke:black; stroke-linecap:round; stroke-width:0.25;"/>
<line x1="10.000000" y1="104.000000" x2="20.000000" y2="104.000000"  style="stroke:black; stroke-linecap:round; stroke-width:0.25;"/>
<line x1="10.000000" y1="112.000000" x2="20.000000" y2="112.000000"  style="stroke:black; stroke-linecap:round; stroke-width:0.25;"/>
<line x1="20.000000" y1="88.000000" x2="24.000000" y2="88.000000"  style="stroke:black; stroke-linecap:round; stroke-width:0.25;"/>
<line x1="20.000000" y1="96.000000" x2="24.000000" y2="96.000000"  style="stroke:black; stroke-linecap:round; stroke-width:0.25;"/>
<line x1="20.000000" y1="104.000000" x2="24.000000" y2="104.000000"  style="stroke:black; stroke-linecap:round; stroke-width:0.25;"/>
<line x1="20.000000" y1="112.000000" x2="24.000000" y2="112.000000"  style="stroke:black; stroke-linecap:round; stroke-width:0.25;"/>
<line x1="24.000000" y1="88.000000" x2="28.000000" y2="88.000000"  style="stroke:black; stroke-linecap:round; stroke-width:0.25;"/>
<line x1="24.000000" y1="96.000000" x2="28.000000" y2="96.000000"  style="stroke:black; stroke-linecap:round; stroke-width:0.25;"/>
<line x1="24.000000" y1="104.000000" x2="28.000000" y2="104.000000"  style="stroke:black; stroke-linecap:round; stroke-width:0.25;"/>
<line x1="24.000000" y1="112.000000" x2="28.000000" y2="112.000000"  style="stroke:black; stroke-linecap:round; stroke-width:0.25;"/>
<line x1="28.000000" y1="64.000000" x2="44.000000" y2="64.000000"  style="stroke:black; stroke-linecap:round; stroke-width:0.25;"/>
<line x1="28.000000" y1="88.000000" x2="28.000000" y2="64.000000"  style="stroke:black; stroke-linecap:round; stroke-width:0.25;"/>
<line x1="28.000000" y1="88.000000" x2="28.000000" y2="88.000000"  style="stroke:black; stroke-linecap:round; stroke-width:0.25;"/>
<line x1="28.000000" y1="96.000000" x2="44.000000" y2="96.000000"  style="stroke:black; stroke-linecap:round; stroke-width:0.25;"/>
<line x1="28.000000" y1="104.000000" x2="44.000000" y2="104.000000"  style="stroke:black; stroke-linecap:round; stroke-width:0.25;"/>
<line x1="28.000000" y1="112.000000" x2="36.000000" y2="112.000000"  style="stroke:black; stroke-linecap:round; stroke-width:0.25;"/>
<line x1="36.000000" y1="112.000000" x2="36.000000" y2="148.000000"  style="stroke:black; stroke-linecap:round; stroke-width:0.25;"/>
<line x1="36.000000" y1="148.000000" x2="44.000000" y2="148.000000"  style="stroke:black; stroke-linecap:round; stroke-width:0.25;"/>
<line x1="44.000000" y1="64.000000" x2="48.000000" y2="64.000000"  style="stroke:black; stroke-linecap:round; stroke-width:0.25;"/>
<line x1="44.000000" y1="96.000000" x2="48.000000" y2="96.000000"  style="stroke:black; stroke-linecap:round; stroke-width:0.25;"/>
<line x1="44.000000" y1="104.000000" x2="44.000000" y2="128.000000"  style="stroke:black; stroke-linecap:round; stroke-width:0.25;"/>
<line x1="44.000000" y1="128.000000" x2="44.000000" y2="128.000000"  style="stroke:black; stroke-linecap:round; stroke-width:0.25;"/>
<line x1="44.000000" y1="128.000000" x2="48.000000" y2="128.000000"  style="stroke:black; stroke-linecap:round; stroke-width:0.25;"/>
<line x1="44.000000" y1="148.000000" x2="60.900000" y2="148.000000"  style="stroke:black; stroke-linecap:round; stroke-width:0.25;"/>
<line x1="60.900000" y1="148.000000" x2="77.800000" y2="148.000000"  style="stroke:black; stroke-linecap:round; stroke-width:0.25;"/>
<line x1="77.800000" y1="100.000000" x2="85.800000" y2="100.000000"  style="stroke:black; stroke-linecap:round; stroke-width:0.25;"/>
<line x1="77.800000" y1="148.000000" x2="77.800000" y2="100.000000"  style="stroke:black; stroke-linecap:round; stroke-width:0.25;"/>
<line x1="77.800000" y1="148.000000" x2="77.800000" y2="148.000000"  style="stroke:black; stroke-linecap:round; stroke-width:0.25;"/>
<line x1="85.800000" y1="100.000000" x2="93.800000" y2="100.000000"  style="stroke:black; stroke-linecap:round; stroke-width:0.25;"/>
<line x1="93.800000" y1="100.000000" x2="93.800000" y2="104.000000"  style="stroke:black; stroke-linecap:round; stroke-width:0.25;"/>
<line x1="93.800000" y1="104.000000" x2="93.800000" y2="104.000000"  style="stroke:black; stroke-linecap:round; stroke-width:0.25;"/>
<line x1="93.800000" y1="104.000000" x2="101.800000" y2="104.000000"  style="stroke:black; stroke-linecap:round; stroke-width:0.25;"/>
<line x1="101.800000" y1="52.000000" x2="101.800000" y2="52.000000"  style="stroke:black; stroke-linecap:round; stroke-width:0.25;"/>
<line x1="101.800000" y1="52.000000" x2="101.800000" y2="96.000000"  style="stroke:black; stroke-linecap:round; stroke-width:0.25;"/>
<line x1="101.800000" y1="96.000000" x2="101.800000" y2="96.000000"  style="stroke:black; stroke-linecap:round; stroke-width:0.25;"/>
<line x1="101.800000" y1="96.000000" x2="122.700000" y2="96.000000"  style="stroke:black; stroke-linecap:round; stroke-width:0.25;"/>
<line x1="101.800000" y1="104.000000" x2="122.700000" y2="104.000000"  style="stroke:black; stroke-linecap:round; stroke-width:0.25;"/>
<line x1="115.350000" y1="52.000000" x2="101.800000" y2="52.000000"  style="stroke:black; stroke-linecap:round; stroke-width:0.25;"/>
<line x1="119.350000" y1="52.000000" x2="115.350000" y2="52.000000"  style="stroke:black; stroke-linecap:round; stroke-width:0.25;"/>
<line x1="122.700000" y1="96.000000" x2="126.700000" y2="96.000000"  style="stroke:black; stroke-linecap:round; stroke-width:0.25;"/>
<line x1="122.700000" y1="104.000000" x2="126.700000" y2="104.000000"  style="stroke:black; stroke-linecap:round; stroke-width:0.25;"/>
<line x1="130.700000" y1="164.000000" x2="134.700000" y2="164.000000"  style="stroke:black; stroke-linecap:round; stroke-width:0.25;"/>
<line x1="131.600000" y1="132.000000" x2="135.600000" y2="132.000000"  style="stroke:black; stroke-linecap:round; stroke-width:0.25;"/>
<line x1="134.700000" y1="164.000000" x2="135.600000" y2="164.000000"  style="stroke:black; stroke-linecap:round; stroke-width:0.25;"/>
<line x1="135.600000" y1="132.000000" x2="143.600000" y2="132.000000"  style="stroke:black; stroke-linecap:round; stroke-width:0.25;"/>
<line x1="135.600000" y1="152.000000" x2="143.600000" y2="152.000000"  style="stroke:black; stroke-linecap:round; stroke-width:0.25;"/>
<line x1="135.600000" y1="164.000000" x2="135.600000" y2="152.000000"  style="stroke:black; stroke-linecap:round; stroke-width:0.25;"/>
<line x1="135.600000" y1="164.000000" x2="135.600000" y2="164.000000"  style="stroke:black; stroke-linecap:round; stroke-width:0.25;"/>
<line x1="143.600000" y1="132.000000" x2="143.600000" y2="144.000000"  style="stroke:black; stroke-linecap:round; stroke-width:0.25;"/>
<line x1="143.600000" y1="144.000000" x2="143.600000" y2="144.000000"  style="stroke:black; stroke-linecap:round; stroke-width:0.25;"/>
<line x1="143.600000" y1="144.000000" x2="147.600000" y2="144.000000"  style="stroke:black; stroke-linecap:round; stroke-width:0.25;"/>
<line x1="143.600000" y1="152.000000" x2="147.600000" y2="152.000000"  style="stroke:black; stroke-linecap:round; stroke-width:0.25;"/>
<line x1="147.350000" y1="48.000000" x2="143.350000" y2="48.000000"  style="stroke:black; stroke-linecap:round; stroke-width:0.25;"/>
<line x1="147.350000" y1="56.000000" x2="143.350000" y2="56.000000"  style="stroke:black; stroke-linecap:round; stroke-width:0.25;"/>
<line x1="147.350000" y1="56.000000" x2="147.350000" y2="56.000000"  style="stroke:black; stroke-linecap:round; stroke-width:0.25;"/>
<line x1="147.350000" y1="68.000000" x2="147.350000" y2="56.000000"  style="stroke:black; stroke-linecap:round; stroke-width:0.25;"/>
<line x1="150.700000" y1="100.000000" x2="154.700000" y2="100.000000"  style="stroke:black; stroke-linecap:round; stroke-width:0.25;"/>
<line x1="154.700000" y1="100.000000" x2="175.600000" y2="100.000000"  style="stroke:black; stroke-linecap:round; stroke-width:0.25;"/>
<line x1="155.350000" y1="36.000000" x2="155.350000" y2="36.000000"  style="stroke:black; stroke-linecap:round; stroke-width:0.25;"/>
<line x1="155.350000" y1="36.000000" x2="155.350000" y2="48.000000"  style="stroke:black; stroke-linecap:round; stroke-width:0.25;"/>
<line x1="155.350000" y1="48.000000" x2="147.350000" y2="48.000000"  style="stroke:black; stroke-linecap:round; stroke-width:0.25;"/>
<line x1="155.350000" y1="68.000000" x2="147.350000" y2="68.000000"  style="stroke:black; stroke-linecap:round; stroke-width:0.25;"/>
<line x1="159.350000" y1="68.000000" x2="155.350000" y2="68.000000"  style="stroke:black; stroke-linecap:round; stroke-width:0.25;"/>
<line x1="161.800000" y1="36.000000" x2="155.350000" y2="36.000000"  style="stroke:black; stroke-linecap:round; stroke-width:0.25;"/>
<line x1="165.800000" y1="36.000000" x2="161.800000" y2="36.000000"  style="stroke:black; stroke-linecap:round; stroke-width:0.25;"/>
<line x1="171.600000" y1="148.000000" x2="175.600000" y2="148.000000"  style="stroke:black; stroke-linecap:round; stroke-width:0.25;"/>
<line x1="175.600000" y1="100.000000" x2="183.600000" y2="100.000000"  style="stroke:black; stroke-linecap:round; stroke-width:0.25;"/>
<line x1="175.600000" y1="136.000000" x2="183.600000" y2="136.000000"  style="stroke:black; stroke-linecap:round; stroke-width:0.25;"/>
<line x1="175.600000" y1="148.000000" x2="175.600000" y2="136.000000"  style="stroke:black; stroke-linecap:round; stroke-width:0.25;"/>
<line x1="175.600000" y1="148.000000" x2="175.600000" y2="148.000000"  style="stroke:black; stroke-linecap:round; stroke-width:0.25;"/>
<line x1="183.600000" y1="100.000000" x2="183.600000" y2="128.000000"  style="stroke:black; stroke-linecap:round; stroke-width:0.25;"/>
<line x1="183.600000" y1="128.000000" x2="183.600000" y2="128.000000"  style="stroke:black; stroke-linecap:round; stroke-width:0.25;"/>
<line x1="183.600000" y1="128.000000" x2="187.600000" y2="128.000000"  style="stroke:black; stroke-linecap:round; stroke-width:0.25;"/>
<line x1="183.600000" y1="136.000000" x2="187.600000" y2="136.000000"  style="stroke:black; stroke-linecap:round; stroke-width:0.25;"/>
<line x1="202.050000" y1="68.000000" x2="198.050000" y2="68.000000"  style="stroke:black; stroke-linecap:round; stroke-width:0.25;"/>
<line x1="211.600000" y1="132.000000" x2="215.600000" y2="132.000000"  style="stroke:black; stroke-linecap:round; stroke-width:0.25;"/>
<line x1="215.600000" y1="68.000000" x2="202.050000" y2="68.000000"  style="stroke:black; stroke-linecap:round; stroke-width:0.25;"/>
<line x1="215.600000" y1="68.000000" x2="215.600000" y2="68.000000"  style="stroke:black; stroke-linecap:round; stroke-width:0.25;"/>
<line x1="215.600000" y1="128.000000" x2="215.600000" y2="68.000000"  style="stroke:black; stroke-linecap:round; stroke-width:0.25;"/>
<line x1="215.600000" y1="132.000000" x2="217.600000" y2="132.000000"  style="stroke:black; stroke-linecap:round; stroke-width:0.25;"/>
<line x1="217.600000" y1="132.000000" x2="223.600000" y2="132.000000"  style="stroke:black; stroke-linecap:round; stroke-width:0.25;"/>
<line x1="223.600000" y1="100.000000" x2="231.600000" y2="100.000000"  style="stroke:black; stroke-linecap:round; stroke-width:0.25;"/>
<line x1="223.600000" y1="132.000000" x2="223.600000" y2="100.000000"  style="stroke:black; stroke-linecap:round; stroke-width:0.25;"/>
<line x1="223.600000" y1="132.000000" x2="223.600000" y2="132.000000"  style="stroke:black; stroke-linecap:round; stroke-width:0.25;"/>
<line x1="231.600000" y1="100.000000" x2="235.600000" y2="100.000000"  style="stroke:black; stroke-linecap:round; stroke-width:0.25;"/>
<line x1="259.600000" y1="100.000000" x2="263.600000" y2="100.000000"  style="stroke:black; stroke-linecap:round; stroke-width:0.25;"/>
<line x1="263.600000" y1="100.000000" x2="263.600000" y2="100.000000"  style="stroke:black; stroke-linecap:round; stroke-width:0.25;"/>
<line x1="263.600000" y1="100.000000" x2="267.600000" y2="100.000000"  style="stroke:black; stroke-linecap:round; stroke-width:0.25;"/>
<line x1="267.600000" y1="100.000000" x2="271.600000" y2="100.000000"  style="stroke:black; stroke-linecap:round; stroke-width:0.25;"/>
<line x1="271.600000" y1="100.000000" x2="281.600000" y2="100.000000"  style="stroke:black; stroke-linecap:round; stroke-width:0.25;"/>
</svg>
