<?xml version="1.0"?>
<svg xmlns="http://www.w3.org/2000/svg" xmlns:xlink="http://www.w3.org/1999/xlink" viewBox="0 0 321.800000 112.000000" width="160.900000mm" height="56.000000mm" version="1.1">
<rect x="0.000000" y="0.000000" width="320.800000" height="111.000000" rx="0" ry="0" style="stroke:#000000;fill:#FFFFFF;"/>
<text x="10.000000" y="7.000000" font-family="Verdana" font-size="7"></text>
<rect x="40.000000" y="40.000000" width="25.800000" height="24.000000" rx="0" ry="0" style="stroke:#000000;fill:#FFFFFF;"/>
<text x="52.900000" y="54.000000" font-family="Verdana" font-size="7" text-anchor="middle" fill="#000000">[1] fc</text>
<circle cx="42.000000" cy="42.000000" r="1"/>
<line x1="37.000000" y1="51.000000" x2="40.000000" y2="52.000000"  transform="rotate(0.000000,40.000000,52.000000)" style="stroke: black; stroke-width:0.25;"/>
<line x1="37.000000" y1="53.000000" x2="40.000000" y2="52.000000"  transform="rotate(0.000000,40.000000,52.000000)" style="stroke: black; stroke-width:0.25;"/>
<rect x="81.800000" y="32.000000" width="24.000000" height="24.000000" rx="0" ry="0" style="stroke:#000000;fill:#FFFFFF;"/>
<text x="93.800000" y="46.000000" font-family="Verdana" font-size="7" text-anchor="middle" fill="#000000">1</text>
<circle cx="83.800000" cy="34.000000" r="1"/>
<a xlink:href="b1-0x7ff93410f980.svg">
<rect x="81.800000" y="64.000000" width="24.000000" height="24.000000" rx="0" ry="0" style="stroke:#000000;fill:#FFFFFF;"/>
</a>
<a xlink:href="b1-0x7ff93410f980.svg">
<text x="93.800000" y="78.000000" font-family="Verdana" font-size="7" text-anchor="middle" fill="#000000">b1</text>
</a>
<circle cx="83.800000" cy="66.000000" r="1"/>
<rect x="121.800000" y="48.000000" width="24.000000" height="24.000000" rx="0" ry="0" style="stroke:#000000;fill:#FFFFFF;"/>
<text x="133.800000" y="62.000000" font-family="Verdana" font-size="7" text-anchor="middle" fill="#000000">-</text>
<circle cx="123.800000" cy="50.000000" r="1"/>
<line x1="118.800000" y1="55.000000" x2="121.800000" y2="56.000000"  transform="rotate(0.000000,121.800000,56.000000)" style="stroke: black; stroke-width:0.25;"/>
<line x1="118.800000" y1="57.000000" x2="121.800000" y2="56.000000"  transform="rotate(0.000000,121.800000,56.000000)" style="stroke: black; stroke-width:0.25;"/>
<line x1="118.800000" y1="63.000000" x2="121.800000" y2="64.000000"  transform="rotate(0.000000,121.800000,64.000000)" style="stroke: black; stroke-width:0.25;"/>
<line x1="118.800000" y1="65.000000" x2="121.800000" y2="64.000000"  transform="rotate(0.000000,121.800000,64.000000)" style="stroke: black; stroke-width:0.25;"/>
<rect x="161.800000" y="44.000000" width="24.000000" height="24.000000" rx="0" ry="0" style="stroke:#000000;fill:#FFFFFF;"/>
<text x="173.800000" y="58.000000" font-family="Verdana" font-size="7" text-anchor="middle" fill="#000000">*</text>
<circle cx="163.800000" cy="46.000000" r="1"/>
<line x1="158.800000" y1="51.000000" x2="161.800000" y2="52.000000"  transform="rotate(0.000000,161.800000,52.000000)" style="stroke: black; stroke-width:0.25;"/>
<line x1="158.800000" y1="53.000000" x2="161.800000" y2="52.000000"  transform="rotate(0.000000,161.800000,52.000000)" style="stroke: black; stroke-width:0.25;"/>
<line x1="158.800000" y1="59.000000" x2="161.800000" y2="60.000000"  transform="rotate(0.000000,161.800000,60.000000)" style="stroke: black; stroke-width:0.25;"/>
<line x1="158.800000" y1="61.000000" x2="161.800000" y2="60.000000"  transform="rotate(0.000000,161.800000,60.000000)" style="stroke: black; stroke-width:0.25;"/>
<rect x="229.800000" y="64.000000" width="24.000000" height="24.000000" rx="0" ry="0" style="stroke:#000000;fill:#FFFFFF;"/>
<text x="241.800000" y="78.000000" font-family="Verdana" font-size="7" text-anchor="middle" fill="#000000">+</text>
<circle cx="231.800000" cy="66.000000" r="1"/>
<line x1="226.800000" y1="71.000000" x2="229.800000" y2="72.000000"  transform="rotate(0.000000,229.800000,72.000000)" style="stroke: black; stroke-width:0.25;"/>
<line x1="226.800000" y1="73.000000" x2="229.800000" y2="72.000000"  transform="rotate(0.000000,229.800000,72.000000)" style="stroke: black; stroke-width:0.25;"/>
<line x1="226.800000" y1="79.000000" x2="229.800000" y2="80.000000"  transform="rotate(0.000000,229.800000,80.000000)" style="stroke: black; stroke-width:0.25;"/>
<line x1="226.800000" y1="81.000000" x2="229.800000" y2="80.000000"  transform="rotate(0.000000,229.800000,80.000000)" style="stroke: black; stroke-width:0.25;"/>
<a xlink:href="b1-0x7ff93410f980.svg">
<rect x="249.800000" y="24.000000" width="24.000000" height="24.000000" rx="0" ry="0" style="stroke:#000000;fill:#FFFFFF;"/>
</a>
<a xlink:href="b1-0x7ff93410f980.svg">
<text x="261.800000" y="38.000000" font-family="Verdana" font-size="7" text-anchor="middle" fill="#000000">b1</text>
</a>
<circle cx="271.800000" cy="46.000000" r="1"/>
<rect x="209.800000" y="28.000000" width="24.000000" height="24.000000" rx="0" ry="0" style="stroke:#000000;fill:#FFFFFF;"/>
<text x="221.800000" y="42.000000" font-family="Verdana" font-size="7" text-anchor="middle" fill="#000000">*</text>
<circle cx="231.800000" cy="50.000000" r="1"/>
<line x1="236.800000" y1="43.000000" x2="233.800000" y2="44.000000"  transform="rotate(0.000000,233.800000,44.000000)" style="stroke: black; stroke-width:0.25;"/>
<line x1="236.800000" y1="45.000000" x2="233.800000" y2="44.000000"  transform="rotate(0.000000,233.800000,44.000000)" style="stroke: black; stroke-width:0.25;"/>
<line x1="236.800000" y1="35.000000" x2="233.800000" y2="36.000000"  transform="rotate(0.000000,233.800000,36.000000)" style="stroke: black; stroke-width:0.25;"/>
<line x1="236.800000" y1="37.000000" x2="233.800000" y2="36.000000"  transform="rotate(0.000000,233.800000,36.000000)" style="stroke: black; stroke-width:0.25;"/>
<line x1="275.800000" y1="76.000000" x2="275.800000" y2="72.000000"  style="stroke:black; stroke-linecap:round; stroke-width:0.25;"/>
<line x1="275.800000" y1="72.000000" x2="279.800000" y2="72.000000"  style="stroke:black; stroke-linecap:round; stroke-width:0.25;"/>
<line x1="279.800000" y1="72.000000" x2="279.800000" y2="76.000000"  style="stroke:black; stroke-linecap:round; stroke-width:0.25;"/>
<line x1="15.000000" y1="15.000000" x2="15.000000" y2="97.000000"  style="stroke: black; stroke-linecap:round; stroke-width:0.25; stroke-dasharray:3,3;"/>
<line x1="15.000000" y1="97.000000" x2="306.800000" y2="97.000000"  style="stroke: black; stroke-linecap:round; stroke-width:0.25; stroke-dasharray:3,3;"/>
<line x1="306.800000" y1="97.000000" x2="306.800000" y2="15.000000"  style="stroke: black; stroke-linecap:round; stroke-width:0.25; stroke-dasharray:3,3;"/>
<line x1="15.000000" y1="15.000000" x2="20.000000" y2="15.000000"  style="stroke: black; stroke-linecap:round; stroke-width:0.25; stroke-dasharray:3,3;"/>
<line x1="49.025000" y1="15.000000" x2="306.800000" y2="15.000000"  style="stroke: black; stroke-linecap:round; stroke-width:0.25; stroke-dasharray:3,3;"/>
<text x="20.000000" y="17.000000" font-family="Verdana" font-size="7">process</text>
<line x1="308.800000" y1="55.000000" x2="311.800000" y2="56.000000"  transform="rotate(0.000000,311.800000,56.000000)" style="stroke: black; stroke-width:0.25;"/>
<line x1="308.800000" y1="57.000000" x2="311.800000" y2="56.000000"  transform="rotate(0.000000,311.800000,56.000000)" style="stroke: black; stroke-width:0.25;"/>
<line x1="10.000000" y1="52.000000" x2="20.000000" y2="52.000000"  style="stroke:black; stroke-linecap:round; stroke-width:0.25;"/>
<line x1="10.000000" y1="60.000000" x2="20.000000" y2="60.000000"  style="stroke:black; stroke-linecap:round; stroke-width:0.25;"/>
<line x1="20.000000" y1="52.000000" x2="24.000000" y2="52.000000"  style="stroke:black; stroke-linecap:round; stroke-width:0.25;"/>
<line x1="20.000000" y1="60.000000" x2="24.000000" y2="60.000000"  style="stroke:black; stroke-linecap:round; stroke-width:0.25;"/>
<line x1="24.000000" y1="52.000000" x2="28.000000" y2="52.000000"  style="stroke:black; stroke-linecap:round; stroke-width:0.25;"/>
<line x1="24.000000" y1="60.000000" x2="28.000000" y2="60.000000"  style="stroke:black; stroke-linecap:round; stroke-width:0.25;"/>
<line x1="28.000000" y1="52.000000" x2="36.000000" y2="52.000000"  style="stroke:black; stroke-linecap:round; stroke-width:0.25;"/>
<line x1="28.000000" y1="60.000000" x2="36.000000" y2="60.000000"  style="stroke:black; stroke-linecap:round; stroke-width:0.25;"/>
<line x1="36.000000" y1="52.000000" x2="40.000000" y2="52.000000"  style="stroke:black; stroke-linecap:round; stroke-width:0.25;"/>
<line x1="36.000000" y1="60.000000" x2="36.000000" y2="72.000000"  style="stroke:black; stroke-linecap:round; stroke-width:0.25;"/>
<line x1="36.000000" y1="72.000000" x2="36.000000" y2="72.000000"  style="stroke:black; stroke-linecap:round; stroke-width:0.25;"/>
<line x1="36.000000" y1="72.000000" x2="52.900000" y2="72.000000"  style="stroke:black; stroke-linecap:round; stroke-width:0.25;"/>
<line x1="52.900000" y1="72.000000" x2="69.800000" y2="72.000000"  style="stroke:black; stroke-linecap:round; stroke-width:0.25;"/>
<line x1="69.800000" y1="24.000000" x2="77.800000" y2="24.000000"  style="stroke:black; stroke-linecap:round; stroke-width:0.25;"/>
<line x1="69.800000" y1="72.000000" x2="69.800000" y2="24.000000"  style="stroke:black; stroke-linecap:round; stroke-width:0.25;"/>
<line x1="69.800000" y1="72.000000" x2="69.800000" y2="72.000000"  style="stroke:black; stroke-linecap:round; stroke-width:0.25;"/>
<line x1="77.800000" y1="24.000000" x2="113.800000" y2="24.000000"  style="stroke:black; stroke-linecap:round; stroke-width:0.25;"/>
<line x1="105.800000" y1="44.000000" x2="109.800000" y2="44.000000"  style="stroke:black; stroke-linecap:round; stroke-width:0.25;"/>
<line x1="105.800000" y1="76.000000" x2="109.800000" y2="76.000000"  style="stroke:black; stroke-linecap:round; stroke-width:0.25;"/>
<line x1="109.800000" y1="44.000000" x2="117.800000" y2="44.000000"  style="stroke:black; stroke-linecap:round; stroke-width:0.25;"/>
<line x1="109.800000" y1="64.000000" x2="117.800000" y2="64.000000"  style="stroke:black; stroke-linecap:round; stroke-width:0.25;"/>
<line x1="109.800000" y1="76.000000" x2="109.800000" y2="64.000000"  style="stroke:black; stroke-linecap:round; stroke-width:0.25;"/>
<line x1="109.800000" y1="76.000000" x2="109.800000" y2="76.000000"  style="stroke:black; stroke-linecap:round; stroke-width:0.25;"/>
<line x1="113.800000" y1="24.000000" x2="149.800000" y2="24.000000"  style="stroke:black; stroke-linecap:round; stroke-width:0.25;"/>
<line x1="117.800000" y1="44.000000" x2="117.800000" y2="56.000000"  style="stroke:black; stroke-linecap:round; stroke-width:0.25;"/>
<line x1="117.800000" y1="56.000000" x2="117.800000" y2="56.000000"  style="stroke:black; stroke-linecap:round; stroke-width:0.25;"/>
<line x1="117.800000" y1="56.000000" x2="121.800000" y2="56.000000"  style="stroke:black; stroke-linecap:round; stroke-width:0.25;"/>
<line x1="117.800000" y1="64.000000" x2="121.800000" y2="64.000000"  style="stroke:black; stroke-linecap:round; stroke-width:0.25;"/>
<line x1="145.800000" y1="60.000000" x2="149.800000" y2="60.000000"  style="stroke:black; stroke-linecap:round; stroke-width:0.25;"/>
<line x1="149.800000" y1="24.000000" x2="157.800000" y2="24.000000"  style="stroke:black; stroke-linecap:round; stroke-width:0.25;"/>
<line x1="149.800000" y1="60.000000" x2="157.800000" y2="60.000000"  style="stroke:black; stroke-linecap:round; stroke-width:0.25;"/>
<line x1="157.800000" y1="24.000000" x2="157.800000" y2="52.000000"  style="stroke:black; stroke-linecap:round; stroke-width:0.25;"/>
<line x1="157.800000" y1="52.000000" x2="157.800000" y2="52.000000"  style="stroke:black; stroke-linecap:round; stroke-width:0.25;"/>
<line x1="157.800000" y1="52.000000" x2="161.800000" y2="52.000000"  style="stroke:black; stroke-linecap:round; stroke-width:0.25;"/>
<line x1="157.800000" y1="60.000000" x2="161.800000" y2="60.000000"  style="stroke:black; stroke-linecap:round; stroke-width:0.25;"/>
<line x1="185.800000" y1="56.000000" x2="189.800000" y2="56.000000"  style="stroke:black; stroke-linecap:round; stroke-width:0.25;"/>
<line x1="189.800000" y1="56.000000" x2="197.800000" y2="56.000000"  style="stroke:black; stroke-linecap:round; stroke-width:0.25;"/>
<line x1="197.800000" y1="56.000000" x2="197.800000" y2="80.000000"  style="stroke:black; stroke-linecap:round; stroke-width:0.25;"/>
<line x1="197.800000" y1="80.000000" x2="197.800000" y2="80.000000"  style="stroke:black; stroke-linecap:round; stroke-width:0.25;"/>
<line x1="197.800000" y1="80.000000" x2="205.800000" y2="80.000000"  style="stroke:black; stroke-linecap:round; stroke-width:0.25;"/>
<line x1="205.800000" y1="40.000000" x2="205.800000" y2="40.000000"  style="stroke:black; stroke-linecap:round; stroke-width:0.25;"/>
<line x1="205.800000" y1="40.000000" x2="205.800000" y2="72.000000"  style="stroke:black; stroke-linecap:round; stroke-width:0.25;"/>
<line x1="205.800000" y1="72.000000" x2="205.800000" y2="72.000000"  style="stroke:black; stroke-linecap:round; stroke-width:0.25;"/>
<line x1="205.800000" y1="72.000000" x2="225.800000" y2="72.000000"  style="stroke:black; stroke-linecap:round; stroke-width:0.25;"/>
<line x1="205.800000" y1="80.000000" x2="225.800000" y2="80.000000"  style="stroke:black; stroke-linecap:round; stroke-width:0.25;"/>
<line x1="209.800000" y1="40.000000" x2="205.800000" y2="40.000000"  style="stroke:black; stroke-linecap:round; stroke-width:0.25;"/>
<line x1="225.800000" y1="72.000000" x2="229.800000" y2="72.000000"  style="stroke:black; stroke-linecap:round; stroke-width:0.25;"/>
<line x1="225.800000" y1="80.000000" x2="229.800000" y2="80.000000"  style="stroke:black; stroke-linecap:round; stroke-width:0.25;"/>
<line x1="237.800000" y1="36.000000" x2="233.800000" y2="36.000000"  style="stroke:black; stroke-linecap:round; stroke-width:0.25;"/>
<line x1="237.800000" y1="44.000000" x2="233.800000" y2="44.000000"  style="stroke:black; stroke-linecap:round; stroke-width:0.25;"/>
<line x1="237.800000" y1="44.000000" x2="237.800000" y2="44.000000"  style="stroke:black; stroke-linecap:round; stroke-width:0.25;"/>
<line x1="237.800000" y1="56.000000" x2="237.800000" y2="44.000000"  style="stroke:black; stroke-linecap:round; stroke-width:0.25;"/>
<line x1="245.800000" y1="36.000000" x2="237.800000" y2="36.000000"  style="stroke:black; stroke-linecap:round; stroke-width:0.25;"/>
<line x1="245.800000" y1="56.000000" x2="237.800000" y2="56.000000"  style="stroke:black; stroke-linecap:round; stroke-width:0.25;"/>
<line x1="249.800000" y1="36.000000" x2="245.800000" y2="36.000000"  style="stroke:black; stroke-linecap:round; stroke-width:0.25;"/>
<line x1="253.800000" y1="76.000000" x2="257.800000" y2="76.000000"  style="stroke:black; stroke-linecap:round; stroke-width:0.25;"/>
<line x1="257.800000" y1="76.000000" x2="277.800000" y2="76.000000"  style="stroke:black; stroke-linecap:round; stroke-width:0.25;"/>
<line x1="261.800000" y1="56.000000" x2="245.800000" y2="56.000000"  style="stroke:black; stroke-linecap:round; stroke-width:0.25;"/>
<line x1="277.800000" y1="56.000000" x2="261.800000" y2="56.000000"  style="stroke:black; stroke-linecap:round; stroke-width:0.25;"/>
<line x1="277.800000" y1="56.000000" x2="277.800000" y2="56.000000"  style="stroke:black; stroke-linecap:round; stroke-width:0.25;"/>
<line x1="277.800000" y1="72.000000" x2="277.800000" y2="56.000000"  style="stroke:black; stroke-linecap:round; stroke-width:0.25;"/>
<line x1="277.800000" y1="76.000000" x2="279.800000" y2="76.000000"  style="stroke:black; stroke-linecap:round; stroke-width:0.25;"/>
<line x1="279.800000" y1="76.000000" x2="285.800000" y2="76.000000"  style="stroke:black; stroke-linecap:round; stroke-width:0.25;"/>
<line x1="285.800000" y1="56.000000" x2="293.800000" y2="56.000000"  style="stroke:black; stroke-linecap:round; stroke-width:0.25;"/>
<line x1="285.800000" y1="76.000000" x2="285.800000" y2="56.000000"  style="stroke:black; stroke-linecap:round; stroke-width:0.25;"/>
<line x1="285.800000" y1="76.000000" x2="285.800000" y2="76.000000"  style="stroke:black; stroke-linecap:round; stroke-width:0.25;"/>
<line x1="293.800000" y1="56.000000" x2="297.800000" y2="56.000000"  style="stroke:black; stroke-linecap:round; stroke-width:0.25;"/>
<line x1="297.800000" y1="56.000000" x2="301.800000" y2="56.000000"  style="stroke:black; stroke-linecap:round; stroke-width:0.25;"/>
<line x1="301.800000" y1="56.000000" x2="311.800000" y2="56.000000"  style="stroke:black; stroke-linecap:round; stroke-width:0.25;"/>
</svg>
