<?xml version="1.0"?>
<svg xmlns="http://www.w3.org/2000/svg" xmlns:xlink="http://www.w3.org/1999/xlink" viewBox="0 0 271.600000 156.000000" width="135.800000mm" height="78.000000mm" version="1.1">
<a xlink:href="process.svg">
<rect x="0.000000" y="0.000000" width="270.600000" height="155.000000" rx="0" ry="0" style="stroke:#000000;fill:#FFFFFF;"/>
</a>
<text x="10.000000" y="7.000000" font-family="Verdana" font-size="7"></text>
<rect x="46.900000" y="24.000000" width="25.800000" height="24.000000" rx="0" ry="0" style="stroke:#000000;fill:#FFFFFF;"/>
<text x="59.800000" y="38.000000" font-family="Verdana" font-size="7" text-anchor="middle" fill="#000000">[1] fc</text>
<circle cx="48.900000" cy="26.000000" r="1"/>
<rect x="34.000000" y="66.000000" width="51.600000" height="24.000000" rx="0" ry="0" style="stroke:#000000;fill:#FFFFFF;"/>
<text x="59.800000" y="80.000000" font-family="Verdana" font-size="7" text-anchor="middle" fill="#000000">3.1415927f</text>
<circle cx="36.000000" cy="68.000000" r="1"/>
<line x1="25.000000" y1="57.000000" x2="25.000000" y2="99.000000"  style="stroke: black; stroke-linecap:round; stroke-width:0.25; stroke-dasharray:3,3;"/>
<line x1="25.000000" y1="99.000000" x2="94.600000" y2="99.000000"  style="stroke: black; stroke-linecap:round; stroke-width:0.25; stroke-dasharray:3,3;"/>
<line x1="94.600000" y1="99.000000" x2="94.600000" y2="57.000000"  style="stroke: black; stroke-linecap:round; stroke-width:0.25; stroke-dasharray:3,3;"/>
<line x1="25.000000" y1="57.000000" x2="30.000000" y2="57.000000"  style="stroke: black; stroke-linecap:round; stroke-width:0.25; stroke-dasharray:3,3;"/>
<line x1="42.900000" y1="57.000000" x2="94.600000" y2="57.000000"  style="stroke: black; stroke-linecap:round; stroke-width:0.25; stroke-dasharray:3,3;"/>
<text x="30.000000" y="59.000000" font-family="Verdana" font-size="7">PI</text>
<rect x="111.600000" y="50.000000" width="24.000000" height="24.000000" rx="0" ry="0" style="stroke:#000000;fill:#FFFFFF;"/>
<text x="123.600000" y="64.000000" font-family="Verdana" font-size="7" text-anchor="middle" fill="#000000">*</text>
<circle cx="113.600000" cy="52.000000" r="1"/>
<line x1="108.600000" y1="57.000000" x2="111.600000" y2="58.000000"  transform="rotate(0.000000,111.600000,58.000000)" style="stroke: black; stroke-width:0.25;"/>
<line x1="108.600000" y1="59.000000" x2="111.600000" y2="58.000000"  transform="rotate(0.000000,111.600000,58.000000)" style="stroke: black; stroke-width:0.25;"/>
<line x1="108.600000" y1="65.000000" x2="111.600000" y2="66.000000"  transform="rotate(0.000000,111.600000,66.000000)" style="stroke: black; stroke-width:0.25;"/>
<line x1="108.600000" y1="67.000000" x2="111.600000" y2="66.000000"  transform="rotate(0.000000,111.600000,66.000000)" style="stroke: black; stroke-width:0.25;"/>
<a xlink:href="SR-0x7f4e0c10a250.svg">
<rect x="67.800000" y="108.000000" width="24.000000" height="24.000000" rx="0" ry="0" style="stroke:#000000;fill:#FFFFFF;"/>
</a>
<a xlink:href="SR-0x7f4e0c10a250.svg">
<text x="79.800000" y="122.000000" font-family="Verdana" font-size="7" text-anchor="middle" fill="#000000">SR</text>
</a>
<circle cx="69.800000" cy="110.000000" r="1"/>
<rect x="151.600000" y="66.000000" width="24.000000" height="24.000000" rx="0" ry="0" style="stroke:#000000;fill:#FFFFFF;"/>
<text x="163.600000" y="80.000000" font-family="Verdana" font-size="7" text-anchor="middle" fill="#000000">/</text>
<circle cx="153.600000" cy="68.000000" r="1"/>
<line x1="148.600000" y1="73.000000" x2="151.600000" y2="74.000000"  transform="rotate(0.000000,151.600000,74.000000)" style="stroke: black; stroke-width:0.25;"/>
<line x1="148.600000" y1="75.000000" x2="151.600000" y2="74.000000"  transform="rotate(0.000000,151.600000,74.000000)" style="stroke: black; stroke-width:0.25;"/>
<line x1="148.600000" y1="81.000000" x2="151.600000" y2="82.000000"  transform="rotate(0.000000,151.600000,82.000000)" style="stroke: black; stroke-width:0.25;"/>
<line x1="148.600000" y1="83.000000" x2="151.600000" y2="82.000000"  transform="rotate(0.000000,151.600000,82.000000)" style="stroke: black; stroke-width:0.25;"/>
<rect x="183.600000" y="66.000000" width="24.000000" height="24.000000" rx="0" ry="0" style="stroke:#000000;fill:#FFFFFF;"/>
<text x="195.600000" y="80.000000" font-family="Verdana" font-size="7" text-anchor="middle" fill="#000000">tan</text>
<circle cx="185.600000" cy="68.000000" r="1"/>
<line x1="180.600000" y1="77.000000" x2="183.600000" y2="78.000000"  transform="rotate(0.000000,183.600000,78.000000)" style="stroke: black; stroke-width:0.25;"/>
<line x1="180.600000" y1="79.000000" x2="183.600000" y2="78.000000"  transform="rotate(0.000000,183.600000,78.000000)" style="stroke: black; stroke-width:0.25;"/>
<a xlink:href="k-0x7f4e0c112480.svg">
<rect x="215.600000" y="66.000000" width="24.000000" height="24.000000" rx="0" ry="0" style="stroke:#000000;fill:#FFFFFF;"/>
</a>
<a xlink:href="k-0x7f4e0c112480.svg">
<text x="227.600000" y="80.000000" font-family="Verdana" font-size="7" text-anchor="middle" fill="#000000">k</text>
</a>
<circle cx="217.600000" cy="68.000000" r="1"/>
<line x1="212.600000" y1="77.000000" x2="215.600000" y2="78.000000"  transform="rotate(0.000000,215.600000,78.000000)" style="stroke: black; stroke-width:0.25;"/>
<line x1="212.600000" y1="79.000000" x2="215.600000" y2="78.000000"  transform="rotate(0.000000,215.600000,78.000000)" style="stroke: black; stroke-width:0.25;"/>
<line x1="15.000000" y1="15.000000" x2="15.000000" y2="141.000000"  style="stroke: black; stroke-linecap:round; stroke-width:0.25; stroke-dasharray:3,3;"/>
<line x1="15.000000" y1="141.000000" x2="256.600000" y2="141.000000"  style="stroke: black; stroke-linecap:round; stroke-width:0.25; stroke-dasharray:3,3;"/>
<line x1="256.600000" y1="141.000000" x2="256.600000" y2="15.000000"  style="stroke: black; stroke-linecap:round; stroke-width:0.25; stroke-dasharray:3,3;"/>
<line x1="15.000000" y1="15.000000" x2="20.000000" y2="15.000000"  style="stroke: black; stroke-linecap:round; stroke-width:0.25; stroke-dasharray:3,3;"/>
<line x1="29.675000" y1="15.000000" x2="256.600000" y2="15.000000"  style="stroke: black; stroke-linecap:round; stroke-width:0.25; stroke-dasharray:3,3;"/>
<text x="20.000000" y="17.000000" font-family="Verdana" font-size="7">g</text>
<line x1="258.600000" y1="77.000000" x2="261.600000" y2="78.000000"  transform="rotate(0.000000,261.600000,78.000000)" style="stroke: black; stroke-width:0.25;"/>
<line x1="258.600000" y1="79.000000" x2="261.600000" y2="78.000000"  transform="rotate(0.000000,261.600000,78.000000)" style="stroke: black; stroke-width:0.25;"/>
<line x1="72.700000" y1="36.000000" x2="76.700000" y2="36.000000"  style="stroke:black; stroke-linecap:round; stroke-width:0.25;"/>
<line x1="76.700000" y1="36.000000" x2="99.600000" y2="36.000000"  style="stroke:black; stroke-linecap:round; stroke-width:0.25;"/>
<line x1="85.600000" y1="78.000000" x2="89.600000" y2="78.000000"  style="stroke:black; stroke-linecap:round; stroke-width:0.25;"/>
<line x1="89.600000" y1="78.000000" x2="99.600000" y2="78.000000"  style="stroke:black; stroke-linecap:round; stroke-width:0.25;"/>
<line x1="91.800000" y1="120.000000" x2="95.800000" y2="120.000000"  style="stroke:black; stroke-linecap:round; stroke-width:0.25;"/>
<line x1="95.800000" y1="120.000000" x2="139.600000" y2="120.000000"  style="stroke:black; stroke-linecap:round; stroke-width:0.25;"/>
<line x1="99.600000" y1="36.000000" x2="107.600000" y2="36.000000"  style="stroke:black; stroke-linecap:round; stroke-width:0.25;"/>
<line x1="99.600000" y1="66.000000" x2="107.600000" y2="66.000000"  style="stroke:black; stroke-linecap:round; stroke-width:0.25;"/>
<line x1="99.600000" y1="78.000000" x2="99.600000" y2="66.000000"  style="stroke:black; stroke-linecap:round; stroke-width:0.25;"/>
<line x1="99.600000" y1="78.000000" x2="99.600000" y2="78.000000"  style="stroke:black; stroke-linecap:round; stroke-width:0.25;"/>
<line x1="107.600000" y1="36.000000" x2="107.600000" y2="58.000000"  style="stroke:black; stroke-linecap:round; stroke-width:0.25;"/>
<line x1="107.600000" y1="58.000000" x2="107.600000" y2="58.000000"  style="stroke:black; stroke-linecap:round; stroke-width:0.25;"/>
<line x1="107.600000" y1="58.000000" x2="111.600000" y2="58.000000"  style="stroke:black; stroke-linecap:round; stroke-width:0.25;"/>
<line x1="107.600000" y1="66.000000" x2="111.600000" y2="66.000000"  style="stroke:black; stroke-linecap:round; stroke-width:0.25;"/>
<line x1="135.600000" y1="62.000000" x2="139.600000" y2="62.000000"  style="stroke:black; stroke-linecap:round; stroke-width:0.25;"/>
<line x1="139.600000" y1="62.000000" x2="147.600000" y2="62.000000"  style="stroke:black; stroke-linecap:round; stroke-width:0.25;"/>
<line x1="139.600000" y1="82.000000" x2="147.600000" y2="82.000000"  style="stroke:black; stroke-linecap:round; stroke-width:0.25;"/>
<line x1="139.600000" y1="120.000000" x2="139.600000" y2="82.000000"  style="stroke:black; stroke-linecap:round; stroke-width:0.25;"/>
<line x1="139.600000" y1="120.000000" x2="139.600000" y2="120.000000"  style="stroke:black; stroke-linecap:round; stroke-width:0.25;"/>
<line x1="147.600000" y1="62.000000" x2="147.600000" y2="74.000000"  style="stroke:black; stroke-linecap:round; stroke-width:0.25;"/>
<line x1="147.600000" y1="74.000000" x2="147.600000" y2="74.000000"  style="stroke:black; stroke-linecap:round; stroke-width:0.25;"/>
<line x1="147.600000" y1="74.000000" x2="151.600000" y2="74.000000"  style="stroke:black; stroke-linecap:round; stroke-width:0.25;"/>
<line x1="147.600000" y1="82.000000" x2="151.600000" y2="82.000000"  style="stroke:black; stroke-linecap:round; stroke-width:0.25;"/>
<line x1="175.600000" y1="78.000000" x2="179.600000" y2="78.000000"  style="stroke:black; stroke-linecap:round; stroke-width:0.25;"/>
<line x1="179.600000" y1="78.000000" x2="179.600000" y2="78.000000"  style="stroke:black; stroke-linecap:round; stroke-width:0.25;"/>
<line x1="179.600000" y1="78.000000" x2="183.600000" y2="78.000000"  style="stroke:black; stroke-linecap:round; stroke-width:0.25;"/>
<line x1="207.600000" y1="78.000000" x2="211.600000" y2="78.000000"  style="stroke:black; stroke-linecap:round; stroke-width:0.25;"/>
<line x1="211.600000" y1="78.000000" x2="211.600000" y2="78.000000"  style="stroke:black; stroke-linecap:round; stroke-width:0.25;"/>
<line x1="211.600000" y1="78.000000" x2="215.600000" y2="78.000000"  style="stroke:black; stroke-linecap:round; stroke-width:0.25;"/>
<line x1="239.600000" y1="78.000000" x2="243.600000" y2="78.000000"  style="stroke:black; stroke-linecap:round; stroke-width:0.25;"/>
<line x1="243.600000" y1="78.000000" x2="243.600000" y2="78.000000"  style="stroke:black; stroke-linecap:round; stroke-width:0.25;"/>
<line x1="243.600000" y1="78.000000" x2="247.600000" y2="78.000000"  style="stroke:black; stroke-linecap:round; stroke-width:0.25;"/>
<line x1="247.600000" y1="78.000000" x2="251.600000" y2="78.000000"  style="stroke:black; stroke-linecap:round; stroke-width:0.25;"/>
<line x1="251.600000" y1="78.000000" x2="261.600000" y2="78.000000"  style="stroke:black; stroke-linecap:round; stroke-width:0.25;"/>
</svg>
