<?xml version="1.0"?>
<svg xmlns="http://www.w3.org/2000/svg" xmlns:xlink="http://www.w3.org/1999/xlink" viewBox="0 0 300.500000 240.000000" width="150.250000mm" height="120.000000mm" version="1.1">
<rect x="0.000000" y="0.000000" width="299.500000" height="239.000000" rx="0" ry="0" style="stroke:#000000;fill:#FFFFFF;"/>
<text x="10.000000" y="7.000000" font-family="Verdana" font-size="7"></text>
<rect x="114.250000" y="34.000000" width="24.000000" height="24.000000" rx="0" ry="0" style="stroke:#000000;fill:#FFFFFF;"/>
<text x="126.250000" y="48.000000" font-family="Verdana" font-size="7" text-anchor="middle" fill="#000000">10</text>
<circle cx="116.250000" cy="36.000000" r="1"/>
<line x1="105.250000" y1="25.000000" x2="105.250000" y2="67.000000"  style="stroke: black; stroke-linecap:round; stroke-width:0.25; stroke-dasharray:3,3;"/>
<line x1="105.250000" y1="67.000000" x2="147.250000" y2="67.000000"  style="stroke: black; stroke-linecap:round; stroke-width:0.25; stroke-dasharray:3,3;"/>
<line x1="147.250000" y1="67.000000" x2="147.250000" y2="25.000000"  style="stroke: black; stroke-linecap:round; stroke-width:0.25; stroke-dasharray:3,3;"/>
<line x1="105.250000" y1="25.000000" x2="110.250000" y2="25.000000"  style="stroke: black; stroke-linecap:round; stroke-width:0.25; stroke-dasharray:3,3;"/>
<line x1="147.250000" y1="25.000000" x2="147.250000" y2="25.000000"  style="stroke: black; stroke-linecap:round; stroke-width:0.25; stroke-dasharray:3,3;"/>
<text x="110.250000" y="27.000000" font-family="Verdana" font-size="7">milliseconds</text>
<rect x="66.900000" y="86.000000" width="38.700000" height="24.000000" rx="0" ry="0" style="stroke:#000000;fill:#FFFFFF;"/>
<text x="86.250000" y="100.000000" font-family="Verdana" font-size="7" text-anchor="middle" fill="#000000">1.92e+05f</text>
<circle cx="68.900000" cy="88.000000" r="1"/>
<rect x="53.350000" y="118.000000" width="25.800000" height="24.000000" rx="0" ry="0" style="stroke:#000000;fill:#FFFFFF;"/>
<text x="66.250000" y="132.000000" font-family="Verdana" font-size="7" text-anchor="middle" fill="#000000">1.0f</text>
<circle cx="55.350000" cy="120.000000" r="1"/>
<rect x="34.000000" y="150.000000" width="64.500000" height="24.000000" rx="0" ry="0" style="stroke:#000000;fill:#FFFFFF;"/>
<text x="66.250000" y="164.000000" font-family="Verdana" font-size="7" text-anchor="middle" fill="#000000">fSamplingFreq</text>
<circle cx="36.000000" cy="152.000000" r="1"/>
<rect x="114.500000" y="134.000000" width="24.000000" height="24.000000" rx="0" ry="0" style="stroke:#000000;fill:#FFFFFF;"/>
<text x="126.500000" y="148.000000" font-family="Verdana" font-size="7" text-anchor="middle" fill="#000000">max</text>
<circle cx="116.500000" cy="136.000000" r="1"/>
<line x1="111.500000" y1="141.000000" x2="114.500000" y2="142.000000"  transform="rotate(0.000000,114.500000,142.000000)" style="stroke: black; stroke-width:0.25;"/>
<line x1="111.500000" y1="143.000000" x2="114.500000" y2="142.000000"  transform="rotate(0.000000,114.500000,142.000000)" style="stroke: black; stroke-width:0.25;"/>
<line x1="111.500000" y1="149.000000" x2="114.500000" y2="150.000000"  transform="rotate(0.000000,114.500000,150.000000)" style="stroke: black; stroke-width:0.25;"/>
<line x1="111.500000" y1="151.000000" x2="114.500000" y2="150.000000"  transform="rotate(0.000000,114.500000,150.000000)" style="stroke: black; stroke-width:0.25;"/>
<rect x="154.500000" y="118.000000" width="24.000000" height="24.000000" rx="0" ry="0" style="stroke:#000000;fill:#FFFFFF;"/>
<text x="166.500000" y="132.000000" font-family="Verdana" font-size="7" text-anchor="middle" fill="#000000">min</text>
<circle cx="156.500000" cy="120.000000" r="1"/>
<line x1="151.500000" y1="125.000000" x2="154.500000" y2="126.000000"  transform="rotate(0.000000,154.500000,126.000000)" style="stroke: black; stroke-width:0.25;"/>
<line x1="151.500000" y1="127.000000" x2="154.500000" y2="126.000000"  transform="rotate(0.000000,154.500000,126.000000)" style="stroke: black; stroke-width:0.25;"/>
<line x1="151.500000" y1="133.000000" x2="154.500000" y2="134.000000"  transform="rotate(0.000000,154.500000,134.000000)" style="stroke: black; stroke-width:0.25;"/>
<line x1="151.500000" y1="135.000000" x2="154.500000" y2="134.000000"  transform="rotate(0.000000,154.500000,134.000000)" style="stroke: black; stroke-width:0.25;"/>
<line x1="25.000000" y1="77.000000" x2="25.000000" y2="183.000000"  style="stroke: black; stroke-linecap:round; stroke-width:0.25; stroke-dasharray:3,3;"/>
<line x1="25.000000" y1="183.000000" x2="187.500000" y2="183.000000"  style="stroke: black; stroke-linecap:round; stroke-width:0.25; stroke-dasharray:3,3;"/>
<line x1="187.500000" y1="183.000000" x2="187.500000" y2="77.000000"  style="stroke: black; stroke-linecap:round; stroke-width:0.25; stroke-dasharray:3,3;"/>
<line x1="25.000000" y1="77.000000" x2="30.000000" y2="77.000000"  style="stroke: black; stroke-linecap:round; stroke-width:0.25; stroke-dasharray:3,3;"/>
<line x1="42.900000" y1="77.000000" x2="187.500000" y2="77.000000"  style="stroke: black; stroke-linecap:round; stroke-width:0.25; stroke-dasharray:3,3;"/>
<text x="30.000000" y="79.000000" font-family="Verdana" font-size="7">SR</text>
<rect x="93.350000" y="192.000000" width="25.800000" height="24.000000" rx="0" ry="0" style="stroke:#000000;fill:#FFFFFF;"/>
<text x="106.250000" y="206.000000" font-family="Verdana" font-size="7" text-anchor="middle" fill="#000000">1000</text>
<circle cx="95.350000" cy="194.000000" r="1"/>
<rect x="204.500000" y="134.000000" width="24.000000" height="24.000000" rx="0" ry="0" style="stroke:#000000;fill:#FFFFFF;"/>
<text x="216.500000" y="148.000000" font-family="Verdana" font-size="7" text-anchor="middle" fill="#000000">/</text>
<circle cx="206.500000" cy="136.000000" r="1"/>
<line x1="201.500000" y1="141.000000" x2="204.500000" y2="142.000000"  transform="rotate(0.000000,204.500000,142.000000)" style="stroke: black; stroke-width:0.25;"/>
<line x1="201.500000" y1="143.000000" x2="204.500000" y2="142.000000"  transform="rotate(0.000000,204.500000,142.000000)" style="stroke: black; stroke-width:0.25;"/>
<line x1="201.500000" y1="149.000000" x2="204.500000" y2="150.000000"  transform="rotate(0.000000,204.500000,150.000000)" style="stroke: black; stroke-width:0.25;"/>
<line x1="201.500000" y1="151.000000" x2="204.500000" y2="150.000000"  transform="rotate(0.000000,204.500000,150.000000)" style="stroke: black; stroke-width:0.25;"/>
<rect x="244.500000" y="108.000000" width="24.000000" height="24.000000" rx="0" ry="0" style="stroke:#000000;fill:#FFFFFF;"/>
<text x="256.500000" y="122.000000" font-family="Verdana" font-size="7" text-anchor="middle" fill="#000000">*</text>
<circle cx="246.500000" cy="110.000000" r="1"/>
<line x1="241.500000" y1="115.000000" x2="244.500000" y2="116.000000"  transform="rotate(0.000000,244.500000,116.000000)" style="stroke: black; stroke-width:0.25;"/>
<line x1="241.500000" y1="117.000000" x2="244.500000" y2="116.000000"  transform="rotate(0.000000,244.500000,116.000000)" style="stroke: black; stroke-width:0.25;"/>
<line x1="241.500000" y1="123.000000" x2="244.500000" y2="124.000000"  transform="rotate(0.000000,244.500000,124.000000)" style="stroke: black; stroke-width:0.25;"/>
<line x1="241.500000" y1="125.000000" x2="244.500000" y2="124.000000"  transform="rotate(0.000000,244.500000,124.000000)" style="stroke: black; stroke-width:0.25;"/>
<line x1="15.000000" y1="15.000000" x2="15.000000" y2="225.000000"  style="stroke: black; stroke-linecap:round; stroke-width:0.25; stroke-dasharray:3,3;"/>
<line x1="15.000000" y1="225.000000" x2="285.500000" y2="225.000000"  style="stroke: black; stroke-linecap:round; stroke-width:0.25; stroke-dasharray:3,3;"/>
<line x1="285.500000" y1="225.000000" x2="285.500000" y2="15.000000"  style="stroke: black; stroke-linecap:round; stroke-width:0.25; stroke-dasharray:3,3;"/>
<line x1="15.000000" y1="15.000000" x2="20.000000" y2="15.000000"  style="stroke: black; stroke-linecap:round; stroke-width:0.25; stroke-dasharray:3,3;"/>
<line x1="49.025000" y1="15.000000" x2="285.500000" y2="15.000000"  style="stroke: black; stroke-linecap:round; stroke-width:0.25; stroke-dasharray:3,3;"/>
<text x="20.000000" y="17.000000" font-family="Verdana" font-size="7">process</text>
<line x1="287.500000" y1="119.000000" x2="290.500000" y2="120.000000"  transform="rotate(0.000000,290.500000,120.000000)" style="stroke: black; stroke-width:0.25;"/>
<line x1="287.500000" y1="121.000000" x2="290.500000" y2="120.000000"  transform="rotate(0.000000,290.500000,120.000000)" style="stroke: black; stroke-width:0.25;"/>
<line x1="79.150000" y1="130.000000" x2="83.150000" y2="130.000000"  style="stroke:black; stroke-linecap:round; stroke-width:0.25;"/>
<line x1="83.150000" y1="130.000000" x2="102.500000" y2="130.000000"  style="stroke:black; stroke-linecap:round; stroke-width:0.25;"/>
<line x1="98.500000" y1="162.000000" x2="102.500000" y2="162.000000"  style="stroke:black; stroke-linecap:round; stroke-width:0.25;"/>
<line x1="102.500000" y1="130.000000" x2="110.500000" y2="130.000000"  style="stroke:black; stroke-linecap:round; stroke-width:0.25;"/>
<line x1="102.500000" y1="150.000000" x2="110.500000" y2="150.000000"  style="stroke:black; stroke-linecap:round; stroke-width:0.25;"/>
<line x1="102.500000" y1="162.000000" x2="102.500000" y2="150.000000"  style="stroke:black; stroke-linecap:round; stroke-width:0.25;"/>
<line x1="102.500000" y1="162.000000" x2="102.500000" y2="162.000000"  style="stroke:black; stroke-linecap:round; stroke-width:0.25;"/>
<line x1="105.600000" y1="98.000000" x2="109.600000" y2="98.000000"  style="stroke:black; stroke-linecap:round; stroke-width:0.25;"/>
<line x1="109.600000" y1="98.000000" x2="142.500000" y2="98.000000"  style="stroke:black; stroke-linecap:round; stroke-width:0.25;"/>
<line x1="110.500000" y1="130.000000" x2="110.500000" y2="142.000000"  style="stroke:black; stroke-linecap:round; stroke-width:0.25;"/>
<line x1="110.500000" y1="142.000000" x2="110.500000" y2="142.000000"  style="stroke:black; stroke-linecap:round; stroke-width:0.25;"/>
<line x1="110.500000" y1="142.000000" x2="114.500000" y2="142.000000"  style="stroke:black; stroke-linecap:round; stroke-width:0.25;"/>
<line x1="110.500000" y1="150.000000" x2="114.500000" y2="150.000000"  style="stroke:black; stroke-linecap:round; stroke-width:0.25;"/>
<line x1="119.150000" y1="204.000000" x2="123.150000" y2="204.000000"  style="stroke:black; stroke-linecap:round; stroke-width:0.25;"/>
<line x1="123.150000" y1="204.000000" x2="192.500000" y2="204.000000"  style="stroke:black; stroke-linecap:round; stroke-width:0.25;"/>
<line x1="138.250000" y1="46.000000" x2="142.250000" y2="46.000000"  style="stroke:black; stroke-linecap:round; stroke-width:0.25;"/>
<line x1="138.500000" y1="146.000000" x2="142.500000" y2="146.000000"  style="stroke:black; stroke-linecap:round; stroke-width:0.25;"/>
<line x1="142.250000" y1="46.000000" x2="152.250000" y2="46.000000"  style="stroke:black; stroke-linecap:round; stroke-width:0.25;"/>
<line x1="142.500000" y1="98.000000" x2="150.500000" y2="98.000000"  style="stroke:black; stroke-linecap:round; stroke-width:0.25;"/>
<line x1="142.500000" y1="134.000000" x2="150.500000" y2="134.000000"  style="stroke:black; stroke-linecap:round; stroke-width:0.25;"/>
<line x1="142.500000" y1="146.000000" x2="142.500000" y2="134.000000"  style="stroke:black; stroke-linecap:round; stroke-width:0.25;"/>
<line x1="142.500000" y1="146.000000" x2="142.500000" y2="146.000000"  style="stroke:black; stroke-linecap:round; stroke-width:0.25;"/>
<line x1="150.500000" y1="98.000000" x2="150.500000" y2="126.000000"  style="stroke:black; stroke-linecap:round; stroke-width:0.25;"/>
<line x1="150.500000" y1="126.000000" x2="150.500000" y2="126.000000"  style="stroke:black; stroke-linecap:round; stroke-width:0.25;"/>
<line x1="150.500000" y1="126.000000" x2="154.500000" y2="126.000000"  style="stroke:black; stroke-linecap:round; stroke-width:0.25;"/>
<line x1="150.500000" y1="134.000000" x2="154.500000" y2="134.000000"  style="stroke:black; stroke-linecap:round; stroke-width:0.25;"/>
<line x1="152.250000" y1="46.000000" x2="232.500000" y2="46.000000"  style="stroke:black; stroke-linecap:round; stroke-width:0.25;"/>
<line x1="178.500000" y1="130.000000" x2="182.500000" y2="130.000000"  style="stroke:black; stroke-linecap:round; stroke-width:0.25;"/>
<line x1="182.500000" y1="130.000000" x2="192.500000" y2="130.000000"  style="stroke:black; stroke-linecap:round; stroke-width:0.25;"/>
<line x1="192.500000" y1="130.000000" x2="200.500000" y2="130.000000"  style="stroke:black; stroke-linecap:round; stroke-width:0.25;"/>
<line x1="192.500000" y1="150.000000" x2="200.500000" y2="150.000000"  style="stroke:black; stroke-linecap:round; stroke-width:0.25;"/>
<line x1="192.500000" y1="204.000000" x2="192.500000" y2="150.000000"  style="stroke:black; stroke-linecap:round; stroke-width:0.25;"/>
<line x1="192.500000" y1="204.000000" x2="192.500000" y2="204.000000"  style="stroke:black; stroke-linecap:round; stroke-width:0.25;"/>
<line x1="200.500000" y1="130.000000" x2="200.500000" y2="142.000000"  style="stroke:black; stroke-linecap:round; stroke-width:0.25;"/>
<line x1="200.500000" y1="142.000000" x2="200.500000" y2="142.000000"  style="stroke:black; stroke-linecap:round; stroke-width:0.25;"/>
<line x1="200.500000" y1="142.000000" x2="204.500000" y2="142.000000"  style="stroke:black; stroke-linecap:round; stroke-width:0.25;"/>
<line x1="200.500000" y1="150.000000" x2="204.500000" y2="150.000000"  style="stroke:black; stroke-linecap:round; stroke-width:0.25;"/>
<line x1="228.500000" y1="146.000000" x2="232.500000" y2="146.000000"  style="stroke:black; stroke-linecap:round; stroke-width:0.25;"/>
<line x1="232.500000" y1="46.000000" x2="240.500000" y2="46.000000"  style="stroke:black; stroke-linecap:round; stroke-width:0.25;"/>
<line x1="232.500000" y1="124.000000" x2="240.500000" y2="124.000000"  style="stroke:black; stroke-linecap:round; stroke-width:0.25;"/>
<line x1="232.500000" y1="146.000000" x2="232.500000" y2="124.000000"  style="stroke:black; stroke-linecap:round; stroke-width:0.25;"/>
<line x1="232.500000" y1="146.000000" x2="232.500000" y2="146.000000"  style="stroke:black; stroke-linecap:round; stroke-width:0.25;"/>
<line x1="240.500000" y1="46.000000" x2="240.500000" y2="116.000000"  style="stroke:black; stroke-linecap:round; stroke-width:0.25;"/>
<line x1="240.500000" y1="116.000000" x2="240.500000" y2="116.000000"  style="stroke:black; stroke-linecap:round; stroke-width:0.25;"/>
<line x1="240.500000" y1="116.000000" x2="244.500000" y2="116.000000"  style="stroke:black; stroke-linecap:round; stroke-width:0.25;"/>
<line x1="240.500000" y1="124.000000" x2="244.500000" y2="124.000000"  style="stroke:black; stroke-linecap:round; stroke-width:0.25;"/>
<line x1="268.500000" y1="120.000000" x2="272.500000" y2="120.000000"  style="stroke:black; stroke-linecap:round; stroke-width:0.25;"/>
<line x1="272.500000" y1="120.000000" x2="272.500000" y2="120.000000"  style="stroke:black; stroke-linecap:round; stroke-width:0.25;"/>
<line x1="272.500000" y1="120.000000" x2="276.500000" y2="120.000000"  style="stroke:black; stroke-linecap:round; stroke-width:0.25;"/>
<line x1="276.500000" y1="120.000000" x2="280.500000" y2="120.000000"  style="stroke:black; stroke-linecap:round; stroke-width:0.25;"/>
<line x1="280.500000" y1="120.000000" x2="290.500000" y2="120.000000"  style="stroke:black; stroke-linecap:round; stroke-width:0.25;"/>
</svg>
