<?xml version="1.0"?>
<svg xmlns="http://www.w3.org/2000/svg" xmlns:xlink="http://www.w3.org/1999/xlink" viewBox="0 0 357.400000 112.000000" width="178.700000mm" height="56.000000mm" version="1.1">
<rect x="0.000000" y="0.000000" width="356.400000" height="111.000000" rx="0" ry="0" style="stroke:#000000;fill:#FFFFFF;"/>
<text x="10.000000" y="7.000000" font-family="Verdana" font-size="7"></text>
<rect x="40.000000" y="40.000000" width="25.800000" height="24.000000" rx="0" ry="0" style="stroke:#000000;fill:#FFFFFF;"/>
<text x="52.900000" y="54.000000" font-family="Verdana" font-size="7" text-anchor="middle" fill="#000000">[1] b1</text>
<circle cx="42.000000" cy="42.000000" r="1"/>
<line x1="37.000000" y1="51.000000" x2="40.000000" y2="52.000000"  transform="rotate(0.000000,40.000000,52.000000)" style="stroke: black; stroke-width:0.25;"/>
<line x1="37.000000" y1="53.000000" x2="40.000000" y2="52.000000"  transform="rotate(0.000000,40.000000,52.000000)" style="stroke: black; stroke-width:0.25;"/>
<rect x="98.700000" y="32.000000" width="24.000000" height="24.000000" rx="0" ry="0" style="stroke:#000000;fill:#FFFFFF;"/>
<text x="110.700000" y="46.000000" font-family="Verdana" font-size="7" text-anchor="middle" fill="#000000">1</text>
<circle cx="100.700000" cy="34.000000" r="1"/>
<rect x="81.800000" y="64.000000" width="25.800000" height="24.000000" rx="0" ry="0" style="stroke:#000000;fill:#FFFFFF;"/>
<text x="94.700000" y="78.000000" font-family="Verdana" font-size="7" text-anchor="middle" fill="#000000">[1] b1</text>
<circle cx="83.800000" cy="66.000000" r="1"/>
<rect x="115.600000" y="64.000000" width="24.000000" height="24.000000" rx="0" ry="0" style="stroke:#000000;fill:#FFFFFF;"/>
<text x="127.600000" y="78.000000" font-family="Verdana" font-size="7" text-anchor="middle" fill="#000000">abs</text>
<circle cx="117.600000" cy="66.000000" r="1"/>
<line x1="112.600000" y1="75.000000" x2="115.600000" y2="76.000000"  transform="rotate(0.000000,115.600000,76.000000)" style="stroke: black; stroke-width:0.25;"/>
<line x1="112.600000" y1="77.000000" x2="115.600000" y2="76.000000"  transform="rotate(0.000000,115.600000,76.000000)" style="stroke: black; stroke-width:0.25;"/>
<rect x="155.600000" y="48.000000" width="24.000000" height="24.000000" rx="0" ry="0" style="stroke:#000000;fill:#FFFFFF;"/>
<text x="167.600000" y="62.000000" font-family="Verdana" font-size="7" text-anchor="middle" fill="#000000">-</text>
<circle cx="157.600000" cy="50.000000" r="1"/>
<line x1="152.600000" y1="55.000000" x2="155.600000" y2="56.000000"  transform="rotate(0.000000,155.600000,56.000000)" style="stroke: black; stroke-width:0.25;"/>
<line x1="152.600000" y1="57.000000" x2="155.600000" y2="56.000000"  transform="rotate(0.000000,155.600000,56.000000)" style="stroke: black; stroke-width:0.25;"/>
<line x1="152.600000" y1="63.000000" x2="155.600000" y2="64.000000"  transform="rotate(0.000000,155.600000,64.000000)" style="stroke: black; stroke-width:0.25;"/>
<line x1="152.600000" y1="65.000000" x2="155.600000" y2="64.000000"  transform="rotate(0.000000,155.600000,64.000000)" style="stroke: black; stroke-width:0.25;"/>
<rect x="195.600000" y="44.000000" width="24.000000" height="24.000000" rx="0" ry="0" style="stroke:#000000;fill:#FFFFFF;"/>
<text x="207.600000" y="58.000000" font-family="Verdana" font-size="7" text-anchor="middle" fill="#000000">*</text>
<circle cx="197.600000" cy="46.000000" r="1"/>
<line x1="192.600000" y1="51.000000" x2="195.600000" y2="52.000000"  transform="rotate(0.000000,195.600000,52.000000)" style="stroke: black; stroke-width:0.25;"/>
<line x1="192.600000" y1="53.000000" x2="195.600000" y2="52.000000"  transform="rotate(0.000000,195.600000,52.000000)" style="stroke: black; stroke-width:0.25;"/>
<line x1="192.600000" y1="59.000000" x2="195.600000" y2="60.000000"  transform="rotate(0.000000,195.600000,60.000000)" style="stroke: black; stroke-width:0.25;"/>
<line x1="192.600000" y1="61.000000" x2="195.600000" y2="60.000000"  transform="rotate(0.000000,195.600000,60.000000)" style="stroke: black; stroke-width:0.25;"/>
<rect x="264.500000" y="64.000000" width="24.000000" height="24.000000" rx="0" ry="0" style="stroke:#000000;fill:#FFFFFF;"/>
<text x="276.500000" y="78.000000" font-family="Verdana" font-size="7" text-anchor="middle" fill="#000000">+</text>
<circle cx="266.500000" cy="66.000000" r="1"/>
<line x1="261.500000" y1="71.000000" x2="264.500000" y2="72.000000"  transform="rotate(0.000000,264.500000,72.000000)" style="stroke: black; stroke-width:0.25;"/>
<line x1="261.500000" y1="73.000000" x2="264.500000" y2="72.000000"  transform="rotate(0.000000,264.500000,72.000000)" style="stroke: black; stroke-width:0.25;"/>
<line x1="261.500000" y1="79.000000" x2="264.500000" y2="80.000000"  transform="rotate(0.000000,264.500000,80.000000)" style="stroke: black; stroke-width:0.25;"/>
<line x1="261.500000" y1="81.000000" x2="264.500000" y2="80.000000"  transform="rotate(0.000000,264.500000,80.000000)" style="stroke: black; stroke-width:0.25;"/>
<rect x="283.600000" y="24.000000" width="25.800000" height="24.000000" rx="0" ry="0" style="stroke:#000000;fill:#FFFFFF;"/>
<text x="296.500000" y="38.000000" font-family="Verdana" font-size="7" text-anchor="middle" fill="#000000">[1] b1</text>
<circle cx="307.400000" cy="46.000000" r="1"/>
<rect x="243.600000" y="28.000000" width="24.000000" height="24.000000" rx="0" ry="0" style="stroke:#000000;fill:#FFFFFF;"/>
<text x="255.600000" y="42.000000" font-family="Verdana" font-size="7" text-anchor="middle" fill="#000000">*</text>
<circle cx="265.600000" cy="50.000000" r="1"/>
<line x1="270.600000" y1="43.000000" x2="267.600000" y2="44.000000"  transform="rotate(0.000000,267.600000,44.000000)" style="stroke: black; stroke-width:0.25;"/>
<line x1="270.600000" y1="45.000000" x2="267.600000" y2="44.000000"  transform="rotate(0.000000,267.600000,44.000000)" style="stroke: black; stroke-width:0.25;"/>
<line x1="270.600000" y1="35.000000" x2="267.600000" y2="36.000000"  transform="rotate(0.000000,267.600000,36.000000)" style="stroke: black; stroke-width:0.25;"/>
<line x1="270.600000" y1="37.000000" x2="267.600000" y2="36.000000"  transform="rotate(0.000000,267.600000,36.000000)" style="stroke: black; stroke-width:0.25;"/>
<line x1="311.400000" y1="76.000000" x2="311.400000" y2="72.000000"  style="stroke:black; stroke-linecap:round; stroke-width:0.25;"/>
<line x1="311.400000" y1="72.000000" x2="315.400000" y2="72.000000"  style="stroke:black; stroke-linecap:round; stroke-width:0.25;"/>
<line x1="315.400000" y1="72.000000" x2="315.400000" y2="76.000000"  style="stroke:black; stroke-linecap:round; stroke-width:0.25;"/>
<line x1="15.000000" y1="15.000000" x2="15.000000" y2="97.000000"  style="stroke: black; stroke-linecap:round; stroke-width:0.25; stroke-dasharray:3,3;"/>
<line x1="15.000000" y1="97.000000" x2="342.400000" y2="97.000000"  style="stroke: black; stroke-linecap:round; stroke-width:0.25; stroke-dasharray:3,3;"/>
<line x1="342.400000" y1="97.000000" x2="342.400000" y2="15.000000"  style="stroke: black; stroke-linecap:round; stroke-width:0.25; stroke-dasharray:3,3;"/>
<line x1="15.000000" y1="15.000000" x2="20.000000" y2="15.000000"  style="stroke: black; stroke-linecap:round; stroke-width:0.25; stroke-dasharray:3,3;"/>
<line x1="49.025000" y1="15.000000" x2="342.400000" y2="15.000000"  style="stroke: black; stroke-linecap:round; stroke-width:0.25; stroke-dasharray:3,3;"/>
<text x="20.000000" y="17.000000" font-family="Verdana" font-size="7">process</text>
<line x1="344.400000" y1="55.000000" x2="347.400000" y2="56.000000"  transform="rotate(0.000000,347.400000,56.000000)" style="stroke: black; stroke-width:0.25;"/>
<line x1="344.400000" y1="57.000000" x2="347.400000" y2="56.000000"  transform="rotate(0.000000,347.400000,56.000000)" style="stroke: black; stroke-width:0.25;"/>
<line x1="10.000000" y1="52.000000" x2="20.000000" y2="52.000000"  style="stroke:black; stroke-linecap:round; stroke-width:0.25;"/>
<line x1="10.000000" y1="60.000000" x2="20.000000" y2="60.000000"  style="stroke:black; stroke-linecap:round; stroke-width:0.25;"/>
<line x1="20.000000" y1="52.000000" x2="24.000000" y2="52.000000"  style="stroke:black; stroke-linecap:round; stroke-width:0.25;"/>
<line x1="20.000000" y1="60.000000" x2="24.000000" y2="60.000000"  style="stroke:black; stroke-linecap:round; stroke-width:0.25;"/>
<line x1="24.000000" y1="52.000000" x2="28.000000" y2="52.000000"  style="stroke:black; stroke-linecap:round; stroke-width:0.25;"/>
<line x1="24.000000" y1="60.000000" x2="28.000000" y2="60.000000"  style="stroke:black; stroke-linecap:round; stroke-width:0.25;"/>
<line x1="28.000000" y1="52.000000" x2="36.000000" y2="52.000000"  style="stroke:black; stroke-linecap:round; stroke-width:0.25;"/>
<line x1="28.000000" y1="60.000000" x2="36.000000" y2="60.000000"  style="stroke:black; stroke-linecap:round; stroke-width:0.25;"/>
<line x1="36.000000" y1="52.000000" x2="40.000000" y2="52.000000"  style="stroke:black; stroke-linecap:round; stroke-width:0.25;"/>
<line x1="36.000000" y1="60.000000" x2="36.000000" y2="72.000000"  style="stroke:black; stroke-linecap:round; stroke-width:0.25;"/>
<line x1="36.000000" y1="72.000000" x2="36.000000" y2="72.000000"  style="stroke:black; stroke-linecap:round; stroke-width:0.25;"/>
<line x1="36.000000" y1="72.000000" x2="52.900000" y2="72.000000"  style="stroke:black; stroke-linecap:round; stroke-width:0.25;"/>
<line x1="52.900000" y1="72.000000" x2="69.800000" y2="72.000000"  style="stroke:black; stroke-linecap:round; stroke-width:0.25;"/>
<line x1="69.800000" y1="24.000000" x2="77.800000" y2="24.000000"  style="stroke:black; stroke-linecap:round; stroke-width:0.25;"/>
<line x1="69.800000" y1="72.000000" x2="69.800000" y2="24.000000"  style="stroke:black; stroke-linecap:round; stroke-width:0.25;"/>
<line x1="69.800000" y1="72.000000" x2="69.800000" y2="72.000000"  style="stroke:black; stroke-linecap:round; stroke-width:0.25;"/>
<line x1="77.800000" y1="24.000000" x2="130.700000" y2="24.000000"  style="stroke:black; stroke-linecap:round; stroke-width:0.25;"/>
<line x1="107.600000" y1="76.000000" x2="111.600000" y2="76.000000"  style="stroke:black; stroke-linecap:round; stroke-width:0.25;"/>
<line x1="111.600000" y1="76.000000" x2="111.600000" y2="76.000000"  style="stroke:black; stroke-linecap:round; stroke-width:0.25;"/>
<line x1="111.600000" y1="76.000000" x2="115.600000" y2="76.000000"  style="stroke:black; stroke-linecap:round; stroke-width:0.25;"/>
<line x1="122.700000" y1="44.000000" x2="126.700000" y2="44.000000"  style="stroke:black; stroke-linecap:round; stroke-width:0.25;"/>
<line x1="126.700000" y1="44.000000" x2="143.600000" y2="44.000000"  style="stroke:black; stroke-linecap:round; stroke-width:0.25;"/>
<line x1="130.700000" y1="24.000000" x2="183.600000" y2="24.000000"  style="stroke:black; stroke-linecap:round; stroke-width:0.25;"/>
<line x1="139.600000" y1="76.000000" x2="143.600000" y2="76.000000"  style="stroke:black; stroke-linecap:round; stroke-width:0.25;"/>
<line x1="143.600000" y1="44.000000" x2="151.600000" y2="44.000000"  style="stroke:black; stroke-linecap:round; stroke-width:0.25;"/>
<line x1="143.600000" y1="64.000000" x2="151.600000" y2="64.000000"  style="stroke:black; stroke-linecap:round; stroke-width:0.25;"/>
<line x1="143.600000" y1="76.000000" x2="143.600000" y2="64.000000"  style="stroke:black; stroke-linecap:round; stroke-width:0.25;"/>
<line x1="143.600000" y1="76.000000" x2="143.600000" y2="76.000000"  style="stroke:black; stroke-linecap:round; stroke-width:0.25;"/>
<line x1="151.600000" y1="44.000000" x2="151.600000" y2="56.000000"  style="stroke:black; stroke-linecap:round; stroke-width:0.25;"/>
<line x1="151.600000" y1="56.000000" x2="151.600000" y2="56.000000"  style="stroke:black; stroke-linecap:round; stroke-width:0.25;"/>
<line x1="151.600000" y1="56.000000" x2="155.600000" y2="56.000000"  style="stroke:black; stroke-linecap:round; stroke-width:0.25;"/>
<line x1="151.600000" y1="64.000000" x2="155.600000" y2="64.000000"  style="stroke:black; stroke-linecap:round; stroke-width:0.25;"/>
<line x1="179.600000" y1="60.000000" x2="183.600000" y2="60.000000"  style="stroke:black; stroke-linecap:round; stroke-width:0.25;"/>
<line x1="183.600000" y1="24.000000" x2="191.600000" y2="24.000000"  style="stroke:black; stroke-linecap:round; stroke-width:0.25;"/>
<line x1="183.600000" y1="60.000000" x2="191.600000" y2="60.000000"  style="stroke:black; stroke-linecap:round; stroke-width:0.25;"/>
<line x1="191.600000" y1="24.000000" x2="191.600000" y2="52.000000"  style="stroke:black; stroke-linecap:round; stroke-width:0.25;"/>
<line x1="191.600000" y1="52.000000" x2="191.600000" y2="52.000000"  style="stroke:black; stroke-linecap:round; stroke-width:0.25;"/>
<line x1="191.600000" y1="52.000000" x2="195.600000" y2="52.000000"  style="stroke:black; stroke-linecap:round; stroke-width:0.25;"/>
<line x1="191.600000" y1="60.000000" x2="195.600000" y2="60.000000"  style="stroke:black; stroke-linecap:round; stroke-width:0.25;"/>
<line x1="219.600000" y1="56.000000" x2="223.600000" y2="56.000000"  style="stroke:black; stroke-linecap:round; stroke-width:0.25;"/>
<line x1="223.600000" y1="56.000000" x2="231.600000" y2="56.000000"  style="stroke:black; stroke-linecap:round; stroke-width:0.25;"/>
<line x1="231.600000" y1="56.000000" x2="231.600000" y2="80.000000"  style="stroke:black; stroke-linecap:round; stroke-width:0.25;"/>
<line x1="231.600000" y1="80.000000" x2="231.600000" y2="80.000000"  style="stroke:black; stroke-linecap:round; stroke-width:0.25;"/>
<line x1="231.600000" y1="80.000000" x2="239.600000" y2="80.000000"  style="stroke:black; stroke-linecap:round; stroke-width:0.25;"/>
<line x1="239.600000" y1="72.000000" x2="260.500000" y2="72.000000"  style="stroke:black; stroke-linecap:round; stroke-width:0.25;"/>
<line x1="239.600000" y1="80.000000" x2="260.500000" y2="80.000000"  style="stroke:black; stroke-linecap:round; stroke-width:0.25;"/>
<line x1="239.600000" y1="40.000000" x2="239.600000" y2="40.000000"  style="stroke:black; stroke-linecap:round; stroke-width:0.25;"/>
<line x1="239.600000" y1="40.000000" x2="239.600000" y2="72.000000"  style="stroke:black; stroke-linecap:round; stroke-width:0.25;"/>
<line x1="239.600000" y1="72.000000" x2="239.600000" y2="72.000000"  style="stroke:black; stroke-linecap:round; stroke-width:0.25;"/>
<line x1="243.600000" y1="40.000000" x2="239.600000" y2="40.000000"  style="stroke:black; stroke-linecap:round; stroke-width:0.25;"/>
<line x1="260.500000" y1="72.000000" x2="264.500000" y2="72.000000"  style="stroke:black; stroke-linecap:round; stroke-width:0.25;"/>
<line x1="260.500000" y1="80.000000" x2="264.500000" y2="80.000000"  style="stroke:black; stroke-linecap:round; stroke-width:0.25;"/>
<line x1="271.600000" y1="36.000000" x2="267.600000" y2="36.000000"  style="stroke:black; stroke-linecap:round; stroke-width:0.25;"/>
<line x1="271.600000" y1="44.000000" x2="267.600000" y2="44.000000"  style="stroke:black; stroke-linecap:round; stroke-width:0.25;"/>
<line x1="271.600000" y1="44.000000" x2="271.600000" y2="44.000000"  style="stroke:black; stroke-linecap:round; stroke-width:0.25;"/>
<line x1="271.600000" y1="56.000000" x2="271.600000" y2="44.000000"  style="stroke:black; stroke-linecap:round; stroke-width:0.25;"/>
<line x1="279.600000" y1="36.000000" x2="271.600000" y2="36.000000"  style="stroke:black; stroke-linecap:round; stroke-width:0.25;"/>
<line x1="279.600000" y1="56.000000" x2="271.600000" y2="56.000000"  style="stroke:black; stroke-linecap:round; stroke-width:0.25;"/>
<line x1="283.600000" y1="36.000000" x2="279.600000" y2="36.000000"  style="stroke:black; stroke-linecap:round; stroke-width:0.25;"/>
<line x1="288.500000" y1="76.000000" x2="292.500000" y2="76.000000"  style="stroke:black; stroke-linecap:round; stroke-width:0.25;"/>
<line x1="292.500000" y1="76.000000" x2="313.400000" y2="76.000000"  style="stroke:black; stroke-linecap:round; stroke-width:0.25;"/>
<line x1="296.500000" y1="56.000000" x2="279.600000" y2="56.000000"  style="stroke:black; stroke-linecap:round; stroke-width:0.25;"/>
<line x1="313.400000" y1="56.000000" x2="296.500000" y2="56.000000"  style="stroke:black; stroke-linecap:round; stroke-width:0.25;"/>
<line x1="313.400000" y1="56.000000" x2="313.400000" y2="56.000000"  style="stroke:black; stroke-linecap:round; stroke-width:0.25;"/>
<line x1="313.400000" y1="72.000000" x2="313.400000" y2="56.000000"  style="stroke:black; stroke-linecap:round; stroke-width:0.25;"/>
<line x1="313.400000" y1="76.000000" x2="315.400000" y2="76.000000"  style="stroke:black; stroke-linecap:round; stroke-width:0.25;"/>
<line x1="315.400000" y1="76.000000" x2="321.400000" y2="76.000000"  style="stroke:black; stroke-linecap:round; stroke-width:0.25;"/>
<line x1="321.400000" y1="56.000000" x2="329.400000" y2="56.000000"  style="stroke:black; stroke-linecap:round; stroke-width:0.25;"/>
<line x1="321.400000" y1="76.000000" x2="321.400000" y2="56.000000"  style="stroke:black; stroke-linecap:round; stroke-width:0.25;"/>
<line x1="321.400000" y1="76.000000" x2="321.400000" y2="76.000000"  style="stroke:black; stroke-linecap:round; stroke-width:0.25;"/>
<line x1="329.400000" y1="56.000000" x2="333.400000" y2="56.000000"  style="stroke:black; stroke-linecap:round; stroke-width:0.25;"/>
<line x1="333.400000" y1="56.000000" x2="337.400000" y2="56.000000"  style="stroke:black; stroke-linecap:round; stroke-width:0.25;"/>
<line x1="337.400000" y1="56.000000" x2="347.400000" y2="56.000000"  style="stroke:black; stroke-linecap:round; stroke-width:0.25;"/>
</svg>
