<?xml version="1.0"?>
<svg xmlns="http://www.w3.org/2000/svg" xmlns:xlink="http://www.w3.org/1999/xlink" viewBox="0 0 334.700000 144.000000" width="167.350000mm" height="72.000000mm" version="1.1">
<rect x="0.000000" y="0.000000" width="333.700000" height="143.000000" rx="0" ry="0" style="stroke:#000000;fill:#FFFFFF;"/>
<text x="10.000000" y="7.000000" font-family="Verdana" font-size="7"></text>
<rect x="40.000000" y="56.000000" width="38.700000" height="24.000000" rx="0" ry="0" style="stroke:#000000;fill:#FFFFFF;"/>
<text x="59.350000" y="70.000000" font-family="Verdana" font-size="7" text-anchor="middle" fill="#000000">[1] sec</text>
<circle cx="42.000000" cy="58.000000" r="1"/>
<line x1="37.000000" y1="67.000000" x2="40.000000" y2="68.000000"  transform="rotate(0.000000,40.000000,68.000000)" style="stroke: black; stroke-width:0.25;"/>
<line x1="37.000000" y1="69.000000" x2="40.000000" y2="68.000000"  transform="rotate(0.000000,40.000000,68.000000)" style="stroke: black; stroke-width:0.25;"/>
<a xlink:href="g-0x7ff7a0112c00.svg">
<rect x="94.700000" y="64.000000" width="24.000000" height="24.000000" rx="0" ry="0" style="stroke:#000000;fill:#FFFFFF;"/>
</a>
<a xlink:href="g-0x7ff7a0112c00.svg">
<text x="106.700000" y="78.000000" font-family="Verdana" font-size="7" text-anchor="middle" fill="#000000">g</text>
</a>
<circle cx="96.700000" cy="66.000000" r="1"/>
<rect x="134.700000" y="60.000000" width="24.000000" height="24.000000" rx="0" ry="0" style="stroke:#000000;fill:#FFFFFF;"/>
<text x="146.700000" y="74.000000" font-family="Verdana" font-size="7" text-anchor="middle" fill="#000000">*</text>
<circle cx="136.700000" cy="62.000000" r="1"/>
<line x1="131.700000" y1="67.000000" x2="134.700000" y2="68.000000"  transform="rotate(0.000000,134.700000,68.000000)" style="stroke: black; stroke-width:0.25;"/>
<line x1="131.700000" y1="69.000000" x2="134.700000" y2="68.000000"  transform="rotate(0.000000,134.700000,68.000000)" style="stroke: black; stroke-width:0.25;"/>
<line x1="131.700000" y1="75.000000" x2="134.700000" y2="76.000000"  transform="rotate(0.000000,134.700000,76.000000)" style="stroke: black; stroke-width:0.25;"/>
<line x1="131.700000" y1="77.000000" x2="134.700000" y2="76.000000"  transform="rotate(0.000000,134.700000,76.000000)" style="stroke: black; stroke-width:0.25;"/>
<rect x="222.700000" y="96.000000" width="24.000000" height="24.000000" rx="0" ry="0" style="stroke:#000000;fill:#FFFFFF;"/>
<text x="234.700000" y="110.000000" font-family="Verdana" font-size="7" text-anchor="middle" fill="#000000">+</text>
<circle cx="224.700000" cy="98.000000" r="1"/>
<line x1="219.700000" y1="103.000000" x2="222.700000" y2="104.000000"  transform="rotate(0.000000,222.700000,104.000000)" style="stroke: black; stroke-width:0.25;"/>
<line x1="219.700000" y1="105.000000" x2="222.700000" y2="104.000000"  transform="rotate(0.000000,222.700000,104.000000)" style="stroke: black; stroke-width:0.25;"/>
<line x1="219.700000" y1="111.000000" x2="222.700000" y2="112.000000"  transform="rotate(0.000000,222.700000,112.000000)" style="stroke: black; stroke-width:0.25;"/>
<line x1="219.700000" y1="113.000000" x2="222.700000" y2="112.000000"  transform="rotate(0.000000,222.700000,112.000000)" style="stroke: black; stroke-width:0.25;"/>
<rect x="262.700000" y="56.000000" width="24.000000" height="24.000000" rx="0" ry="0" style="stroke:#000000;fill:#FFFFFF;"/>
<text x="274.700000" y="70.000000" font-family="Verdana" font-size="7" text-anchor="middle" fill="#000000">1</text>
<circle cx="284.700000" cy="78.000000" r="1"/>
<a xlink:href="g-0x7ff7a0112c00.svg">
<rect x="262.700000" y="24.000000" width="24.000000" height="24.000000" rx="0" ry="0" style="stroke:#000000;fill:#FFFFFF;"/>
</a>
<a xlink:href="g-0x7ff7a0112c00.svg">
<text x="274.700000" y="38.000000" font-family="Verdana" font-size="7" text-anchor="middle" fill="#000000">g</text>
</a>
<circle cx="284.700000" cy="46.000000" r="1"/>
<rect x="222.700000" y="40.000000" width="24.000000" height="24.000000" rx="0" ry="0" style="stroke:#000000;fill:#FFFFFF;"/>
<text x="234.700000" y="54.000000" font-family="Verdana" font-size="7" text-anchor="middle" fill="#000000">-</text>
<circle cx="244.700000" cy="62.000000" r="1"/>
<line x1="249.700000" y1="55.000000" x2="246.700000" y2="56.000000"  transform="rotate(0.000000,246.700000,56.000000)" style="stroke: black; stroke-width:0.25;"/>
<line x1="249.700000" y1="57.000000" x2="246.700000" y2="56.000000"  transform="rotate(0.000000,246.700000,56.000000)" style="stroke: black; stroke-width:0.25;"/>
<line x1="249.700000" y1="47.000000" x2="246.700000" y2="48.000000"  transform="rotate(0.000000,246.700000,48.000000)" style="stroke: black; stroke-width:0.25;"/>
<line x1="249.700000" y1="49.000000" x2="246.700000" y2="48.000000"  transform="rotate(0.000000,246.700000,48.000000)" style="stroke: black; stroke-width:0.25;"/>
<rect x="182.700000" y="44.000000" width="24.000000" height="24.000000" rx="0" ry="0" style="stroke:#000000;fill:#FFFFFF;"/>
<text x="194.700000" y="58.000000" font-family="Verdana" font-size="7" text-anchor="middle" fill="#000000">*</text>
<circle cx="204.700000" cy="66.000000" r="1"/>
<line x1="209.700000" y1="59.000000" x2="206.700000" y2="60.000000"  transform="rotate(0.000000,206.700000,60.000000)" style="stroke: black; stroke-width:0.25;"/>
<line x1="209.700000" y1="61.000000" x2="206.700000" y2="60.000000"  transform="rotate(0.000000,206.700000,60.000000)" style="stroke: black; stroke-width:0.25;"/>
<line x1="209.700000" y1="51.000000" x2="206.700000" y2="52.000000"  transform="rotate(0.000000,206.700000,52.000000)" style="stroke: black; stroke-width:0.25;"/>
<line x1="209.700000" y1="53.000000" x2="206.700000" y2="52.000000"  transform="rotate(0.000000,206.700000,52.000000)" style="stroke: black; stroke-width:0.25;"/>
<line x1="288.700000" y1="108.000000" x2="288.700000" y2="104.000000"  style="stroke:black; stroke-linecap:round; stroke-width:0.25;"/>
<line x1="288.700000" y1="104.000000" x2="292.700000" y2="104.000000"  style="stroke:black; stroke-linecap:round; stroke-width:0.25;"/>
<line x1="292.700000" y1="104.000000" x2="292.700000" y2="108.000000"  style="stroke:black; stroke-linecap:round; stroke-width:0.25;"/>
<line x1="15.000000" y1="15.000000" x2="15.000000" y2="129.000000"  style="stroke: black; stroke-linecap:round; stroke-width:0.25; stroke-dasharray:3,3;"/>
<line x1="15.000000" y1="129.000000" x2="319.700000" y2="129.000000"  style="stroke: black; stroke-linecap:round; stroke-width:0.25; stroke-dasharray:3,3;"/>
<line x1="319.700000" y1="129.000000" x2="319.700000" y2="15.000000"  style="stroke: black; stroke-linecap:round; stroke-width:0.25; stroke-dasharray:3,3;"/>
<line x1="15.000000" y1="15.000000" x2="20.000000" y2="15.000000"  style="stroke: black; stroke-linecap:round; stroke-width:0.25; stroke-dasharray:3,3;"/>
<line x1="49.025000" y1="15.000000" x2="319.700000" y2="15.000000"  style="stroke: black; stroke-linecap:round; stroke-width:0.25; stroke-dasharray:3,3;"/>
<text x="20.000000" y="17.000000" font-family="Verdana" font-size="7">process</text>
<line x1="321.700000" y1="71.000000" x2="324.700000" y2="72.000000"  transform="rotate(0.000000,324.700000,72.000000)" style="stroke: black; stroke-width:0.25;"/>
<line x1="321.700000" y1="73.000000" x2="324.700000" y2="72.000000"  transform="rotate(0.000000,324.700000,72.000000)" style="stroke: black; stroke-width:0.25;"/>
<line x1="10.000000" y1="68.000000" x2="20.000000" y2="68.000000"  style="stroke:black; stroke-linecap:round; stroke-width:0.25;"/>
<line x1="10.000000" y1="76.000000" x2="20.000000" y2="76.000000"  style="stroke:black; stroke-linecap:round; stroke-width:0.25;"/>
<line x1="20.000000" y1="68.000000" x2="24.000000" y2="68.000000"  style="stroke:black; stroke-linecap:round; stroke-width:0.25;"/>
<line x1="20.000000" y1="76.000000" x2="24.000000" y2="76.000000"  style="stroke:black; stroke-linecap:round; stroke-width:0.25;"/>
<line x1="24.000000" y1="68.000000" x2="28.000000" y2="68.000000"  style="stroke:black; stroke-linecap:round; stroke-width:0.25;"/>
<line x1="24.000000" y1="76.000000" x2="28.000000" y2="76.000000"  style="stroke:black; stroke-linecap:round; stroke-width:0.25;"/>
<line x1="28.000000" y1="68.000000" x2="36.000000" y2="68.000000"  style="stroke:black; stroke-linecap:round; stroke-width:0.25;"/>
<line x1="28.000000" y1="76.000000" x2="36.000000" y2="76.000000"  style="stroke:black; stroke-linecap:round; stroke-width:0.25;"/>
<line x1="36.000000" y1="68.000000" x2="40.000000" y2="68.000000"  style="stroke:black; stroke-linecap:round; stroke-width:0.25;"/>
<line x1="36.000000" y1="76.000000" x2="36.000000" y2="88.000000"  style="stroke:black; stroke-linecap:round; stroke-width:0.25;"/>
<line x1="36.000000" y1="88.000000" x2="36.000000" y2="88.000000"  style="stroke:black; stroke-linecap:round; stroke-width:0.25;"/>
<line x1="36.000000" y1="88.000000" x2="59.350000" y2="88.000000"  style="stroke:black; stroke-linecap:round; stroke-width:0.25;"/>
<line x1="59.350000" y1="88.000000" x2="82.700000" y2="88.000000"  style="stroke:black; stroke-linecap:round; stroke-width:0.25;"/>
<line x1="82.700000" y1="56.000000" x2="90.700000" y2="56.000000"  style="stroke:black; stroke-linecap:round; stroke-width:0.25;"/>
<line x1="82.700000" y1="88.000000" x2="82.700000" y2="56.000000"  style="stroke:black; stroke-linecap:round; stroke-width:0.25;"/>
<line x1="82.700000" y1="88.000000" x2="82.700000" y2="88.000000"  style="stroke:black; stroke-linecap:round; stroke-width:0.25;"/>
<line x1="90.700000" y1="56.000000" x2="106.700000" y2="56.000000"  style="stroke:black; stroke-linecap:round; stroke-width:0.25;"/>
<line x1="106.700000" y1="56.000000" x2="122.700000" y2="56.000000"  style="stroke:black; stroke-linecap:round; stroke-width:0.25;"/>
<line x1="118.700000" y1="76.000000" x2="122.700000" y2="76.000000"  style="stroke:black; stroke-linecap:round; stroke-width:0.25;"/>
<line x1="122.700000" y1="56.000000" x2="130.700000" y2="56.000000"  style="stroke:black; stroke-linecap:round; stroke-width:0.25;"/>
<line x1="122.700000" y1="76.000000" x2="130.700000" y2="76.000000"  style="stroke:black; stroke-linecap:round; stroke-width:0.25;"/>
<line x1="130.700000" y1="56.000000" x2="130.700000" y2="68.000000"  style="stroke:black; stroke-linecap:round; stroke-width:0.25;"/>
<line x1="130.700000" y1="68.000000" x2="130.700000" y2="68.000000"  style="stroke:black; stroke-linecap:round; stroke-width:0.25;"/>
<line x1="130.700000" y1="68.000000" x2="134.700000" y2="68.000000"  style="stroke:black; stroke-linecap:round; stroke-width:0.25;"/>
<line x1="130.700000" y1="76.000000" x2="134.700000" y2="76.000000"  style="stroke:black; stroke-linecap:round; stroke-width:0.25;"/>
<line x1="158.700000" y1="72.000000" x2="162.700000" y2="72.000000"  style="stroke:black; stroke-linecap:round; stroke-width:0.25;"/>
<line x1="162.700000" y1="72.000000" x2="170.700000" y2="72.000000"  style="stroke:black; stroke-linecap:round; stroke-width:0.25;"/>
<line x1="170.700000" y1="72.000000" x2="170.700000" y2="112.000000"  style="stroke:black; stroke-linecap:round; stroke-width:0.25;"/>
<line x1="170.700000" y1="112.000000" x2="170.700000" y2="112.000000"  style="stroke:black; stroke-linecap:round; stroke-width:0.25;"/>
<line x1="170.700000" y1="112.000000" x2="178.700000" y2="112.000000"  style="stroke:black; stroke-linecap:round; stroke-width:0.25;"/>
<line x1="178.700000" y1="56.000000" x2="178.700000" y2="56.000000"  style="stroke:black; stroke-linecap:round; stroke-width:0.25;"/>
<line x1="178.700000" y1="56.000000" x2="178.700000" y2="104.000000"  style="stroke:black; stroke-linecap:round; stroke-width:0.25;"/>
<line x1="178.700000" y1="104.000000" x2="178.700000" y2="104.000000"  style="stroke:black; stroke-linecap:round; stroke-width:0.25;"/>
<line x1="178.700000" y1="104.000000" x2="218.700000" y2="104.000000"  style="stroke:black; stroke-linecap:round; stroke-width:0.25;"/>
<line x1="178.700000" y1="112.000000" x2="218.700000" y2="112.000000"  style="stroke:black; stroke-linecap:round; stroke-width:0.25;"/>
<line x1="182.700000" y1="56.000000" x2="178.700000" y2="56.000000"  style="stroke:black; stroke-linecap:round; stroke-width:0.25;"/>
<line x1="210.700000" y1="52.000000" x2="206.700000" y2="52.000000"  style="stroke:black; stroke-linecap:round; stroke-width:0.25;"/>
<line x1="210.700000" y1="60.000000" x2="206.700000" y2="60.000000"  style="stroke:black; stroke-linecap:round; stroke-width:0.25;"/>
<line x1="210.700000" y1="60.000000" x2="210.700000" y2="60.000000"  style="stroke:black; stroke-linecap:round; stroke-width:0.25;"/>
<line x1="210.700000" y1="88.000000" x2="210.700000" y2="60.000000"  style="stroke:black; stroke-linecap:round; stroke-width:0.25;"/>
<line x1="218.700000" y1="52.000000" x2="210.700000" y2="52.000000"  style="stroke:black; stroke-linecap:round; stroke-width:0.25;"/>
<line x1="218.700000" y1="88.000000" x2="210.700000" y2="88.000000"  style="stroke:black; stroke-linecap:round; stroke-width:0.25;"/>
<line x1="218.700000" y1="104.000000" x2="222.700000" y2="104.000000"  style="stroke:black; stroke-linecap:round; stroke-width:0.25;"/>
<line x1="218.700000" y1="112.000000" x2="222.700000" y2="112.000000"  style="stroke:black; stroke-linecap:round; stroke-width:0.25;"/>
<line x1="222.700000" y1="52.000000" x2="218.700000" y2="52.000000"  style="stroke:black; stroke-linecap:round; stroke-width:0.25;"/>
<line x1="246.700000" y1="108.000000" x2="250.700000" y2="108.000000"  style="stroke:black; stroke-linecap:round; stroke-width:0.25;"/>
<line x1="250.700000" y1="48.000000" x2="246.700000" y2="48.000000"  style="stroke:black; stroke-linecap:round; stroke-width:0.25;"/>
<line x1="250.700000" y1="56.000000" x2="246.700000" y2="56.000000"  style="stroke:black; stroke-linecap:round; stroke-width:0.25;"/>
<line x1="250.700000" y1="56.000000" x2="250.700000" y2="56.000000"  style="stroke:black; stroke-linecap:round; stroke-width:0.25;"/>
<line x1="250.700000" y1="68.000000" x2="250.700000" y2="56.000000"  style="stroke:black; stroke-linecap:round; stroke-width:0.25;"/>
<line x1="250.700000" y1="108.000000" x2="290.700000" y2="108.000000"  style="stroke:black; stroke-linecap:round; stroke-width:0.25;"/>
<line x1="254.700000" y1="88.000000" x2="218.700000" y2="88.000000"  style="stroke:black; stroke-linecap:round; stroke-width:0.25;"/>
<line x1="258.700000" y1="36.000000" x2="258.700000" y2="36.000000"  style="stroke:black; stroke-linecap:round; stroke-width:0.25;"/>
<line x1="258.700000" y1="36.000000" x2="258.700000" y2="48.000000"  style="stroke:black; stroke-linecap:round; stroke-width:0.25;"/>
<line x1="258.700000" y1="48.000000" x2="250.700000" y2="48.000000"  style="stroke:black; stroke-linecap:round; stroke-width:0.25;"/>
<line x1="258.700000" y1="68.000000" x2="250.700000" y2="68.000000"  style="stroke:black; stroke-linecap:round; stroke-width:0.25;"/>
<line x1="262.700000" y1="36.000000" x2="258.700000" y2="36.000000"  style="stroke:black; stroke-linecap:round; stroke-width:0.25;"/>
<line x1="262.700000" y1="68.000000" x2="258.700000" y2="68.000000"  style="stroke:black; stroke-linecap:round; stroke-width:0.25;"/>
<line x1="290.700000" y1="88.000000" x2="254.700000" y2="88.000000"  style="stroke:black; stroke-linecap:round; stroke-width:0.25;"/>
<line x1="290.700000" y1="88.000000" x2="290.700000" y2="88.000000"  style="stroke:black; stroke-linecap:round; stroke-width:0.25;"/>
<line x1="290.700000" y1="104.000000" x2="290.700000" y2="88.000000"  style="stroke:black; stroke-linecap:round; stroke-width:0.25;"/>
<line x1="290.700000" y1="108.000000" x2="292.700000" y2="108.000000"  style="stroke:black; stroke-linecap:round; stroke-width:0.25;"/>
<line x1="292.700000" y1="108.000000" x2="298.700000" y2="108.000000"  style="stroke:black; stroke-linecap:round; stroke-width:0.25;"/>
<line x1="298.700000" y1="72.000000" x2="306.700000" y2="72.000000"  style="stroke:black; stroke-linecap:round; stroke-width:0.25;"/>
<line x1="298.700000" y1="108.000000" x2="298.700000" y2="72.000000"  style="stroke:black; stroke-linecap:round; stroke-width:0.25;"/>
<line x1="298.700000" y1="108.000000" x2="298.700000" y2="108.000000"  style="stroke:black; stroke-linecap:round; stroke-width:0.25;"/>
<line x1="306.700000" y1="72.000000" x2="310.700000" y2="72.000000"  style="stroke:black; stroke-linecap:round; stroke-width:0.25;"/>
<line x1="310.700000" y1="72.000000" x2="314.700000" y2="72.000000"  style="stroke:black; stroke-linecap:round; stroke-width:0.25;"/>
<line x1="314.700000" y1="72.000000" x2="324.700000" y2="72.000000"  style="stroke:black; stroke-linecap:round; stroke-width:0.25;"/>
</svg>
