<?xml version="1.0"?>
<svg xmlns="http://www.w3.org/2000/svg" xmlns:xlink="http://www.w3.org/1999/xlink" viewBox="0 0 273.600000 112.000000" width="136.800000mm" height="56.000000mm" version="1.1">
<rect x="0.000000" y="0.000000" width="272.600000" height="111.000000" rx="0" ry="0" style="stroke:#000000;fill:#FFFFFF;"/>
<text x="10.000000" y="7.000000" font-family="Verdana" font-size="7"></text>
<rect x="40.000000" y="40.000000" width="25.800000" height="24.000000" rx="0" ry="0" style="stroke:#000000;fill:#FFFFFF;"/>
<text x="52.900000" y="54.000000" font-family="Verdana" font-size="7" text-anchor="middle" fill="#000000">[1] b1</text>
<circle cx="42.000000" cy="42.000000" r="1"/>
<line x1="37.000000" y1="51.000000" x2="40.000000" y2="52.000000"  transform="rotate(0.000000,40.000000,52.000000)" style="stroke: black; stroke-width:0.25;"/>
<line x1="37.000000" y1="53.000000" x2="40.000000" y2="52.000000"  transform="rotate(0.000000,40.000000,52.000000)" style="stroke: black; stroke-width:0.25;"/>
<rect x="118.700000" y="24.000000" width="24.000000" height="24.000000" rx="0" ry="0" style="stroke:#000000;fill:#FFFFFF;"/>
<text x="130.700000" y="38.000000" font-family="Verdana" font-size="7" text-anchor="middle" fill="#000000">mem</text>
<circle cx="120.700000" cy="26.000000" r="1"/>
<line x1="115.700000" y1="35.000000" x2="118.700000" y2="36.000000"  transform="rotate(0.000000,118.700000,36.000000)" style="stroke: black; stroke-width:0.25;"/>
<line x1="115.700000" y1="37.000000" x2="118.700000" y2="36.000000"  transform="rotate(0.000000,118.700000,36.000000)" style="stroke: black; stroke-width:0.25;"/>
<rect x="117.800000" y="56.000000" width="25.800000" height="24.000000" rx="0" ry="0" style="stroke:#000000;fill:#FFFFFF;"/>
<text x="130.700000" y="70.000000" font-family="Verdana" font-size="7" text-anchor="middle" fill="#000000">[1] b1</text>
<circle cx="119.800000" cy="58.000000" r="1"/>
<rect x="159.600000" y="40.000000" width="24.000000" height="24.000000" rx="0" ry="0" style="stroke:#000000;fill:#FFFFFF;"/>
<text x="171.600000" y="54.000000" font-family="Verdana" font-size="7" text-anchor="middle" fill="#000000">*</text>
<circle cx="161.600000" cy="42.000000" r="1"/>
<line x1="156.600000" y1="47.000000" x2="159.600000" y2="48.000000"  transform="rotate(0.000000,159.600000,48.000000)" style="stroke: black; stroke-width:0.25;"/>
<line x1="156.600000" y1="49.000000" x2="159.600000" y2="48.000000"  transform="rotate(0.000000,159.600000,48.000000)" style="stroke: black; stroke-width:0.25;"/>
<line x1="156.600000" y1="55.000000" x2="159.600000" y2="56.000000"  transform="rotate(0.000000,159.600000,56.000000)" style="stroke: black; stroke-width:0.25;"/>
<line x1="156.600000" y1="57.000000" x2="159.600000" y2="56.000000"  transform="rotate(0.000000,159.600000,56.000000)" style="stroke: black; stroke-width:0.25;"/>
<rect x="217.600000" y="44.000000" width="24.000000" height="24.000000" rx="0" ry="0" style="stroke:#000000;fill:#FFFFFF;"/>
<text x="229.600000" y="58.000000" font-family="Verdana" font-size="7" text-anchor="middle" fill="#000000">+</text>
<circle cx="219.600000" cy="46.000000" r="1"/>
<line x1="214.600000" y1="51.000000" x2="217.600000" y2="52.000000"  transform="rotate(0.000000,217.600000,52.000000)" style="stroke: black; stroke-width:0.25;"/>
<line x1="214.600000" y1="53.000000" x2="217.600000" y2="52.000000"  transform="rotate(0.000000,217.600000,52.000000)" style="stroke: black; stroke-width:0.25;"/>
<line x1="214.600000" y1="59.000000" x2="217.600000" y2="60.000000"  transform="rotate(0.000000,217.600000,60.000000)" style="stroke: black; stroke-width:0.25;"/>
<line x1="214.600000" y1="61.000000" x2="217.600000" y2="60.000000"  transform="rotate(0.000000,217.600000,60.000000)" style="stroke: black; stroke-width:0.25;"/>
<line x1="15.000000" y1="15.000000" x2="15.000000" y2="97.000000"  style="stroke: black; stroke-linecap:round; stroke-width:0.25; stroke-dasharray:3,3;"/>
<line x1="15.000000" y1="97.000000" x2="258.600000" y2="97.000000"  style="stroke: black; stroke-linecap:round; stroke-width:0.25; stroke-dasharray:3,3;"/>
<line x1="258.600000" y1="97.000000" x2="258.600000" y2="15.000000"  style="stroke: black; stroke-linecap:round; stroke-width:0.25; stroke-dasharray:3,3;"/>
<line x1="15.000000" y1="15.000000" x2="20.000000" y2="15.000000"  style="stroke: black; stroke-linecap:round; stroke-width:0.25; stroke-dasharray:3,3;"/>
<line x1="49.025000" y1="15.000000" x2="258.600000" y2="15.000000"  style="stroke: black; stroke-linecap:round; stroke-width:0.25; stroke-dasharray:3,3;"/>
<text x="20.000000" y="17.000000" font-family="Verdana" font-size="7">process</text>
<line x1="260.600000" y1="55.000000" x2="263.600000" y2="56.000000"  transform="rotate(0.000000,263.600000,56.000000)" style="stroke: black; stroke-width:0.25;"/>
<line x1="260.600000" y1="57.000000" x2="263.600000" y2="56.000000"  transform="rotate(0.000000,263.600000,56.000000)" style="stroke: black; stroke-width:0.25;"/>
<line x1="10.000000" y1="52.000000" x2="20.000000" y2="52.000000"  style="stroke:black; stroke-linecap:round; stroke-width:0.25;"/>
<line x1="10.000000" y1="60.000000" x2="20.000000" y2="60.000000"  style="stroke:black; stroke-linecap:round; stroke-width:0.25;"/>
<line x1="20.000000" y1="52.000000" x2="24.000000" y2="52.000000"  style="stroke:black; stroke-linecap:round; stroke-width:0.25;"/>
<line x1="20.000000" y1="60.000000" x2="24.000000" y2="60.000000"  style="stroke:black; stroke-linecap:round; stroke-width:0.25;"/>
<line x1="24.000000" y1="52.000000" x2="28.000000" y2="52.000000"  style="stroke:black; stroke-linecap:round; stroke-width:0.25;"/>
<line x1="24.000000" y1="60.000000" x2="28.000000" y2="60.000000"  style="stroke:black; stroke-linecap:round; stroke-width:0.25;"/>
<line x1="28.000000" y1="52.000000" x2="36.000000" y2="52.000000"  style="stroke:black; stroke-linecap:round; stroke-width:0.25;"/>
<line x1="28.000000" y1="60.000000" x2="36.000000" y2="60.000000"  style="stroke:black; stroke-linecap:round; stroke-width:0.25;"/>
<line x1="36.000000" y1="52.000000" x2="40.000000" y2="52.000000"  style="stroke:black; stroke-linecap:round; stroke-width:0.25;"/>
<line x1="36.000000" y1="60.000000" x2="36.000000" y2="72.000000"  style="stroke:black; stroke-linecap:round; stroke-width:0.25;"/>
<line x1="36.000000" y1="72.000000" x2="36.000000" y2="72.000000"  style="stroke:black; stroke-linecap:round; stroke-width:0.25;"/>
<line x1="36.000000" y1="72.000000" x2="52.900000" y2="72.000000"  style="stroke:black; stroke-linecap:round; stroke-width:0.25;"/>
<line x1="52.900000" y1="72.000000" x2="69.800000" y2="72.000000"  style="stroke:black; stroke-linecap:round; stroke-width:0.25;"/>
<line x1="69.800000" y1="56.000000" x2="77.800000" y2="56.000000"  style="stroke:black; stroke-linecap:round; stroke-width:0.25;"/>
<line x1="69.800000" y1="72.000000" x2="69.800000" y2="56.000000"  style="stroke:black; stroke-linecap:round; stroke-width:0.25;"/>
<line x1="69.800000" y1="72.000000" x2="69.800000" y2="72.000000"  style="stroke:black; stroke-linecap:round; stroke-width:0.25;"/>
<line x1="77.800000" y1="56.000000" x2="81.800000" y2="56.000000"  style="stroke:black; stroke-linecap:round; stroke-width:0.25;"/>
<line x1="81.800000" y1="56.000000" x2="85.800000" y2="56.000000"  style="stroke:black; stroke-linecap:round; stroke-width:0.25;"/>
<line x1="85.800000" y1="56.000000" x2="105.800000" y2="88.000000"  style="stroke:black; stroke-linecap:round; stroke-width:0.25;"/>
<line x1="85.800000" y1="56.000000" x2="105.800000" y2="52.000000"  style="stroke:black; stroke-linecap:round; stroke-width:0.25;"/>
<line x1="105.800000" y1="88.000000" x2="146.700000" y2="88.000000"  style="stroke:black; stroke-linecap:round; stroke-width:0.25;"/>
<line x1="105.800000" y1="36.000000" x2="113.800000" y2="36.000000"  style="stroke:black; stroke-linecap:round; stroke-width:0.25;"/>
<line x1="105.800000" y1="52.000000" x2="105.800000" y2="36.000000"  style="stroke:black; stroke-linecap:round; stroke-width:0.25;"/>
<line x1="105.800000" y1="52.000000" x2="105.800000" y2="52.000000"  style="stroke:black; stroke-linecap:round; stroke-width:0.25;"/>
<line x1="113.800000" y1="36.000000" x2="114.700000" y2="36.000000"  style="stroke:black; stroke-linecap:round; stroke-width:0.25;"/>
<line x1="114.700000" y1="36.000000" x2="118.700000" y2="36.000000"  style="stroke:black; stroke-linecap:round; stroke-width:0.25;"/>
<line x1="142.700000" y1="36.000000" x2="146.700000" y2="36.000000"  style="stroke:black; stroke-linecap:round; stroke-width:0.25;"/>
<line x1="143.600000" y1="68.000000" x2="147.600000" y2="68.000000"  style="stroke:black; stroke-linecap:round; stroke-width:0.25;"/>
<line x1="146.700000" y1="36.000000" x2="147.600000" y2="36.000000"  style="stroke:black; stroke-linecap:round; stroke-width:0.25;"/>
<line x1="146.700000" y1="88.000000" x2="187.600000" y2="88.000000"  style="stroke:black; stroke-linecap:round; stroke-width:0.25;"/>
<line x1="147.600000" y1="36.000000" x2="155.600000" y2="36.000000"  style="stroke:black; stroke-linecap:round; stroke-width:0.25;"/>
<line x1="147.600000" y1="56.000000" x2="155.600000" y2="56.000000"  style="stroke:black; stroke-linecap:round; stroke-width:0.25;"/>
<line x1="147.600000" y1="68.000000" x2="147.600000" y2="56.000000"  style="stroke:black; stroke-linecap:round; stroke-width:0.25;"/>
<line x1="147.600000" y1="68.000000" x2="147.600000" y2="68.000000"  style="stroke:black; stroke-linecap:round; stroke-width:0.25;"/>
<line x1="155.600000" y1="36.000000" x2="155.600000" y2="48.000000"  style="stroke:black; stroke-linecap:round; stroke-width:0.25;"/>
<line x1="155.600000" y1="48.000000" x2="155.600000" y2="48.000000"  style="stroke:black; stroke-linecap:round; stroke-width:0.25;"/>
<line x1="155.600000" y1="48.000000" x2="159.600000" y2="48.000000"  style="stroke:black; stroke-linecap:round; stroke-width:0.25;"/>
<line x1="155.600000" y1="56.000000" x2="159.600000" y2="56.000000"  style="stroke:black; stroke-linecap:round; stroke-width:0.25;"/>
<line x1="183.600000" y1="52.000000" x2="187.600000" y2="52.000000"  style="stroke:black; stroke-linecap:round; stroke-width:0.25;"/>
<line x1="187.600000" y1="52.000000" x2="213.600000" y2="52.000000"  style="stroke:black; stroke-linecap:round; stroke-width:0.25;"/>
<line x1="187.600000" y1="88.000000" x2="213.600000" y2="60.000000"  style="stroke:black; stroke-linecap:round; stroke-width:0.25;"/>
<line x1="213.600000" y1="52.000000" x2="217.600000" y2="52.000000"  style="stroke:black; stroke-linecap:round; stroke-width:0.25;"/>
<line x1="213.600000" y1="60.000000" x2="217.600000" y2="60.000000"  style="stroke:black; stroke-linecap:round; stroke-width:0.25;"/>
<line x1="241.600000" y1="56.000000" x2="245.600000" y2="56.000000"  style="stroke:black; stroke-linecap:round; stroke-width:0.25;"/>
<line x1="245.600000" y1="56.000000" x2="245.600000" y2="56.000000"  style="stroke:black; stroke-linecap:round; stroke-width:0.25;"/>
<line x1="245.600000" y1="56.000000" x2="249.600000" y2="56.000000"  style="stroke:black; stroke-linecap:round; stroke-width:0.25;"/>
<line x1="249.600000" y1="56.000000" x2="253.600000" y2="56.000000"  style="stroke:black; stroke-linecap:round; stroke-width:0.25;"/>
<line x1="253.600000" y1="56.000000" x2="263.600000" y2="56.000000"  style="stroke:black; stroke-linecap:round; stroke-width:0.25;"/>
</svg>
