<?xml version="1.0"?>
<svg xmlns="http://www.w3.org/2000/svg" xmlns:xlink="http://www.w3.org/1999/xlink" viewBox="0 0 248.000000 152.000000" width="124.000000mm" height="76.000000mm" version="1.1">
<rect x="0.000000" y="0.000000" width="247.000000" height="151.000000" rx="0" ry="0" style="stroke:#000000;fill:#FFFFFF;"/>
<text x="10.000000" y="7.000000" font-family="Verdana" font-size="7"></text>
<rect x="48.000000" y="72.000000" width="24.000000" height="24.000000" rx="0" ry="0" style="stroke:#000000;fill:#FFFFFF;"/>
<text x="60.000000" y="86.000000" font-family="Verdana" font-size="7" text-anchor="middle" fill="#000000">1</text>
<circle cx="50.000000" cy="74.000000" r="1"/>
<rect x="32.000000" y="104.000000" width="24.000000" height="24.000000" rx="0" ry="0" style="stroke:#000000;fill:#FFFFFF;"/>
<text x="44.000000" y="118.000000" font-family="Verdana" font-size="7" text-anchor="middle" fill="#000000">1</text>
<circle cx="34.000000" cy="106.000000" r="1"/>
<rect x="64.000000" y="104.000000" width="24.000000" height="24.000000" rx="0" ry="0" style="stroke:#000000;fill:#FFFFFF;"/>
<text x="76.000000" y="118.000000" font-family="Verdana" font-size="7" text-anchor="middle" fill="#000000">mem</text>
<circle cx="66.000000" cy="106.000000" r="1"/>
<line x1="61.000000" y1="115.000000" x2="64.000000" y2="116.000000"  transform="rotate(0.000000,64.000000,116.000000)" style="stroke: black; stroke-width:0.25;"/>
<line x1="61.000000" y1="117.000000" x2="64.000000" y2="116.000000"  transform="rotate(0.000000,64.000000,116.000000)" style="stroke: black; stroke-width:0.25;"/>
<rect x="104.000000" y="88.000000" width="24.000000" height="24.000000" rx="0" ry="0" style="stroke:#000000;fill:#FFFFFF;"/>
<text x="116.000000" y="102.000000" font-family="Verdana" font-size="7" text-anchor="middle" fill="#000000">-</text>
<circle cx="106.000000" cy="90.000000" r="1"/>
<line x1="101.000000" y1="95.000000" x2="104.000000" y2="96.000000"  transform="rotate(0.000000,104.000000,96.000000)" style="stroke: black; stroke-width:0.25;"/>
<line x1="101.000000" y1="97.000000" x2="104.000000" y2="96.000000"  transform="rotate(0.000000,104.000000,96.000000)" style="stroke: black; stroke-width:0.25;"/>
<line x1="101.000000" y1="103.000000" x2="104.000000" y2="104.000000"  transform="rotate(0.000000,104.000000,104.000000)" style="stroke: black; stroke-width:0.25;"/>
<line x1="101.000000" y1="105.000000" x2="104.000000" y2="104.000000"  transform="rotate(0.000000,104.000000,104.000000)" style="stroke: black; stroke-width:0.25;"/>
<rect x="144.000000" y="84.000000" width="24.000000" height="24.000000" rx="0" ry="0" style="stroke:#000000;fill:#FFFFFF;"/>
<text x="156.000000" y="98.000000" font-family="Verdana" font-size="7" text-anchor="middle" fill="#000000">+</text>
<circle cx="146.000000" cy="86.000000" r="1"/>
<line x1="141.000000" y1="91.000000" x2="144.000000" y2="92.000000"  transform="rotate(0.000000,144.000000,92.000000)" style="stroke: black; stroke-width:0.25;"/>
<line x1="141.000000" y1="93.000000" x2="144.000000" y2="92.000000"  transform="rotate(0.000000,144.000000,92.000000)" style="stroke: black; stroke-width:0.25;"/>
<line x1="141.000000" y1="99.000000" x2="144.000000" y2="100.000000"  transform="rotate(0.000000,144.000000,100.000000)" style="stroke: black; stroke-width:0.25;"/>
<line x1="141.000000" y1="101.000000" x2="144.000000" y2="100.000000"  transform="rotate(0.000000,144.000000,100.000000)" style="stroke: black; stroke-width:0.25;"/>
<rect x="108.000000" y="24.000000" width="24.000000" height="24.000000" rx="0" ry="0" style="stroke:#000000;fill:#FFFFFF;"/>
<text x="120.000000" y="38.000000" font-family="Verdana" font-size="7" text-anchor="middle" fill="#000000">1</text>
<circle cx="130.000000" cy="46.000000" r="1"/>
<rect x="68.000000" y="28.000000" width="24.000000" height="24.000000" rx="0" ry="0" style="stroke:#000000;fill:#FFFFFF;"/>
<text x="80.000000" y="42.000000" font-family="Verdana" font-size="7" text-anchor="middle" fill="#000000">@</text>
<circle cx="90.000000" cy="50.000000" r="1"/>
<line x1="95.000000" y1="43.000000" x2="92.000000" y2="44.000000"  transform="rotate(0.000000,92.000000,44.000000)" style="stroke: black; stroke-width:0.25;"/>
<line x1="95.000000" y1="45.000000" x2="92.000000" y2="44.000000"  transform="rotate(0.000000,92.000000,44.000000)" style="stroke: black; stroke-width:0.25;"/>
<line x1="95.000000" y1="35.000000" x2="92.000000" y2="36.000000"  transform="rotate(0.000000,92.000000,36.000000)" style="stroke: black; stroke-width:0.25;"/>
<line x1="95.000000" y1="37.000000" x2="92.000000" y2="36.000000"  transform="rotate(0.000000,92.000000,36.000000)" style="stroke: black; stroke-width:0.25;"/>
<line x1="170.000000" y1="96.000000" x2="170.000000" y2="92.000000"  style="stroke:black; stroke-linecap:round; stroke-width:0.25;"/>
<line x1="170.000000" y1="92.000000" x2="174.000000" y2="92.000000"  style="stroke:black; stroke-linecap:round; stroke-width:0.25;"/>
<line x1="174.000000" y1="92.000000" x2="174.000000" y2="96.000000"  style="stroke:black; stroke-linecap:round; stroke-width:0.25;"/>
<rect x="192.000000" y="64.000000" width="24.000000" height="24.000000" rx="0" ry="0" style="stroke:#000000;fill:#FFFFFF;"/>
<text x="204.000000" y="78.000000" font-family="Verdana" font-size="7" text-anchor="middle" fill="#000000">mem</text>
<circle cx="194.000000" cy="66.000000" r="1"/>
<line x1="189.000000" y1="75.000000" x2="192.000000" y2="76.000000"  transform="rotate(0.000000,192.000000,76.000000)" style="stroke: black; stroke-width:0.25;"/>
<line x1="189.000000" y1="77.000000" x2="192.000000" y2="76.000000"  transform="rotate(0.000000,192.000000,76.000000)" style="stroke: black; stroke-width:0.25;"/>
<line x1="15.000000" y1="15.000000" x2="15.000000" y2="137.000000"  style="stroke: black; stroke-linecap:round; stroke-width:0.25; stroke-dasharray:3,3;"/>
<line x1="15.000000" y1="137.000000" x2="233.000000" y2="137.000000"  style="stroke: black; stroke-linecap:round; stroke-width:0.25; stroke-dasharray:3,3;"/>
<line x1="233.000000" y1="137.000000" x2="233.000000" y2="15.000000"  style="stroke: black; stroke-linecap:round; stroke-width:0.25; stroke-dasharray:3,3;"/>
<line x1="15.000000" y1="15.000000" x2="20.000000" y2="15.000000"  style="stroke: black; stroke-linecap:round; stroke-width:0.25; stroke-dasharray:3,3;"/>
<line x1="49.025000" y1="15.000000" x2="233.000000" y2="15.000000"  style="stroke: black; stroke-linecap:round; stroke-width:0.25; stroke-dasharray:3,3;"/>
<text x="20.000000" y="17.000000" font-family="Verdana" font-size="7">process</text>
<line x1="235.000000" y1="75.000000" x2="238.000000" y2="76.000000"  transform="rotate(0.000000,238.000000,76.000000)" style="stroke: black; stroke-width:0.25;"/>
<line x1="235.000000" y1="77.000000" x2="238.000000" y2="76.000000"  transform="rotate(0.000000,238.000000,76.000000)" style="stroke: black; stroke-width:0.25;"/>
<line x1="28.000000" y1="40.000000" x2="28.000000" y2="40.000000"  style="stroke:black; stroke-linecap:round; stroke-width:0.25;"/>
<line x1="28.000000" y1="40.000000" x2="28.000000" y2="64.000000"  style="stroke:black; stroke-linecap:round; stroke-width:0.25;"/>
<line x1="28.000000" y1="64.000000" x2="28.000000" y2="64.000000"  style="stroke:black; stroke-linecap:round; stroke-width:0.25;"/>
<line x1="28.000000" y1="64.000000" x2="80.000000" y2="64.000000"  style="stroke:black; stroke-linecap:round; stroke-width:0.25;"/>
<line x1="56.000000" y1="116.000000" x2="60.000000" y2="116.000000"  style="stroke:black; stroke-linecap:round; stroke-width:0.25;"/>
<line x1="60.000000" y1="116.000000" x2="60.000000" y2="116.000000"  style="stroke:black; stroke-linecap:round; stroke-width:0.25;"/>
<line x1="60.000000" y1="116.000000" x2="64.000000" y2="116.000000"  style="stroke:black; stroke-linecap:round; stroke-width:0.25;"/>
<line x1="64.000000" y1="40.000000" x2="28.000000" y2="40.000000"  style="stroke:black; stroke-linecap:round; stroke-width:0.25;"/>
<line x1="68.000000" y1="40.000000" x2="64.000000" y2="40.000000"  style="stroke:black; stroke-linecap:round; stroke-width:0.25;"/>
<line x1="72.000000" y1="84.000000" x2="76.000000" y2="84.000000"  style="stroke:black; stroke-linecap:round; stroke-width:0.25;"/>
<line x1="76.000000" y1="84.000000" x2="92.000000" y2="84.000000"  style="stroke:black; stroke-linecap:round; stroke-width:0.25;"/>
<line x1="80.000000" y1="64.000000" x2="132.000000" y2="64.000000"  style="stroke:black; stroke-linecap:round; stroke-width:0.25;"/>
<line x1="88.000000" y1="116.000000" x2="92.000000" y2="116.000000"  style="stroke:black; stroke-linecap:round; stroke-width:0.25;"/>
<line x1="92.000000" y1="84.000000" x2="100.000000" y2="84.000000"  style="stroke:black; stroke-linecap:round; stroke-width:0.25;"/>
<line x1="92.000000" y1="104.000000" x2="100.000000" y2="104.000000"  style="stroke:black; stroke-linecap:round; stroke-width:0.25;"/>
<line x1="92.000000" y1="116.000000" x2="92.000000" y2="104.000000"  style="stroke:black; stroke-linecap:round; stroke-width:0.25;"/>
<line x1="92.000000" y1="116.000000" x2="92.000000" y2="116.000000"  style="stroke:black; stroke-linecap:round; stroke-width:0.25;"/>
<line x1="96.000000" y1="36.000000" x2="92.000000" y2="36.000000"  style="stroke:black; stroke-linecap:round; stroke-width:0.25;"/>
<line x1="96.000000" y1="44.000000" x2="92.000000" y2="44.000000"  style="stroke:black; stroke-linecap:round; stroke-width:0.25;"/>
<line x1="96.000000" y1="44.000000" x2="96.000000" y2="44.000000"  style="stroke:black; stroke-linecap:round; stroke-width:0.25;"/>
<line x1="96.000000" y1="56.000000" x2="96.000000" y2="44.000000"  style="stroke:black; stroke-linecap:round; stroke-width:0.25;"/>
<line x1="100.000000" y1="84.000000" x2="100.000000" y2="96.000000"  style="stroke:black; stroke-linecap:round; stroke-width:0.25;"/>
<line x1="100.000000" y1="96.000000" x2="100.000000" y2="96.000000"  style="stroke:black; stroke-linecap:round; stroke-width:0.25;"/>
<line x1="100.000000" y1="96.000000" x2="104.000000" y2="96.000000"  style="stroke:black; stroke-linecap:round; stroke-width:0.25;"/>
<line x1="100.000000" y1="104.000000" x2="104.000000" y2="104.000000"  style="stroke:black; stroke-linecap:round; stroke-width:0.25;"/>
<line x1="104.000000" y1="36.000000" x2="96.000000" y2="36.000000"  style="stroke:black; stroke-linecap:round; stroke-width:0.25;"/>
<line x1="104.000000" y1="56.000000" x2="96.000000" y2="56.000000"  style="stroke:black; stroke-linecap:round; stroke-width:0.25;"/>
<line x1="108.000000" y1="36.000000" x2="104.000000" y2="36.000000"  style="stroke:black; stroke-linecap:round; stroke-width:0.25;"/>
<line x1="120.000000" y1="56.000000" x2="104.000000" y2="56.000000"  style="stroke:black; stroke-linecap:round; stroke-width:0.25;"/>
<line x1="128.000000" y1="100.000000" x2="132.000000" y2="100.000000"  style="stroke:black; stroke-linecap:round; stroke-width:0.25;"/>
<line x1="132.000000" y1="64.000000" x2="140.000000" y2="64.000000"  style="stroke:black; stroke-linecap:round; stroke-width:0.25;"/>
<line x1="132.000000" y1="100.000000" x2="140.000000" y2="100.000000"  style="stroke:black; stroke-linecap:round; stroke-width:0.25;"/>
<line x1="136.000000" y1="56.000000" x2="120.000000" y2="56.000000"  style="stroke:black; stroke-linecap:round; stroke-width:0.25;"/>
<line x1="140.000000" y1="64.000000" x2="140.000000" y2="92.000000"  style="stroke:black; stroke-linecap:round; stroke-width:0.25;"/>
<line x1="140.000000" y1="92.000000" x2="140.000000" y2="92.000000"  style="stroke:black; stroke-linecap:round; stroke-width:0.25;"/>
<line x1="140.000000" y1="92.000000" x2="144.000000" y2="92.000000"  style="stroke:black; stroke-linecap:round; stroke-width:0.25;"/>
<line x1="140.000000" y1="100.000000" x2="144.000000" y2="100.000000"  style="stroke:black; stroke-linecap:round; stroke-width:0.25;"/>
<line x1="168.000000" y1="96.000000" x2="172.000000" y2="96.000000"  style="stroke:black; stroke-linecap:round; stroke-width:0.25;"/>
<line x1="172.000000" y1="56.000000" x2="136.000000" y2="56.000000"  style="stroke:black; stroke-linecap:round; stroke-width:0.25;"/>
<line x1="172.000000" y1="56.000000" x2="172.000000" y2="56.000000"  style="stroke:black; stroke-linecap:round; stroke-width:0.25;"/>
<line x1="172.000000" y1="92.000000" x2="172.000000" y2="56.000000"  style="stroke:black; stroke-linecap:round; stroke-width:0.25;"/>
<line x1="172.000000" y1="96.000000" x2="174.000000" y2="96.000000"  style="stroke:black; stroke-linecap:round; stroke-width:0.25;"/>
<line x1="174.000000" y1="96.000000" x2="180.000000" y2="96.000000"  style="stroke:black; stroke-linecap:round; stroke-width:0.25;"/>
<line x1="180.000000" y1="76.000000" x2="188.000000" y2="76.000000"  style="stroke:black; stroke-linecap:round; stroke-width:0.25;"/>
<line x1="180.000000" y1="96.000000" x2="180.000000" y2="76.000000"  style="stroke:black; stroke-linecap:round; stroke-width:0.25;"/>
<line x1="180.000000" y1="96.000000" x2="180.000000" y2="96.000000"  style="stroke:black; stroke-linecap:round; stroke-width:0.25;"/>
<line x1="188.000000" y1="76.000000" x2="192.000000" y2="76.000000"  style="stroke:black; stroke-linecap:round; stroke-width:0.25;"/>
<line x1="216.000000" y1="76.000000" x2="220.000000" y2="76.000000"  style="stroke:black; stroke-linecap:round; stroke-width:0.25;"/>
<line x1="220.000000" y1="76.000000" x2="220.000000" y2="76.000000"  style="stroke:black; stroke-linecap:round; stroke-width:0.25;"/>
<line x1="220.000000" y1="76.000000" x2="224.000000" y2="76.000000"  style="stroke:black; stroke-linecap:round; stroke-width:0.25;"/>
<line x1="224.000000" y1="76.000000" x2="228.000000" y2="76.000000"  style="stroke:black; stroke-linecap:round; stroke-width:0.25;"/>
<line x1="228.000000" y1="76.000000" x2="238.000000" y2="76.000000"  style="stroke:black; stroke-linecap:round; stroke-width:0.25;"/>
</svg>
